<?xml version="1.0" standalone="no"?>
<!DOCTYPE svg PUBLIC "-//W3C//DTD SVG 20010904//EN"
 "http://www.w3.org/TR/2001/REC-SVG-20010904/DTD/svg10.dtd">
<svg version="1.0" xmlns="http://www.w3.org/2000/svg"
 width="780.000000pt" height="400.000000pt" viewBox="0 0 780.000000 400.000000"
 preserveAspectRatio="xMidYMid meet">

<g transform="translate(0.000000,400.000000) scale(0.100000,-0.100000)"
fill="#000000" stroke="none">
<path d="M1 3798 c0 -175 2 -197 13 -163 13 45 41 58 51 24 5 -15 2 -26 -9
-34 -18 -14 -11 -25 15 -25 27 0 111 -89 104 -110 -3 -10 -30 -41 -61 -70 -46
-44 -60 -51 -85 -48 -23 4 -29 1 -29 -14 0 -11 11 -23 27 -29 34 -13 70 11 96
64 17 33 23 37 57 37 48 0 66 19 48 52 -7 13 -17 26 -23 30 -5 4 -6 8 -2 8 5
0 1 7 -8 16 -26 27 -15 49 28 52 31 3 42 -2 68 -30 17 -18 42 -53 56 -77 22
-36 24 -47 15 -62 -10 -16 -9 -19 8 -19 11 0 20 -3 20 -7 1 -5 5 -27 9 -50 5
-24 4 -43 0 -43 -5 0 -9 4 -9 8 0 13 -47 32 -78 32 -15 0 -37 7 -49 15 -20 14
-22 13 -28 -15 -4 -16 -11 -30 -16 -30 -5 0 -9 -11 -9 -25 0 -19 -5 -25 -21
-25 -11 0 -32 -14 -46 -30 -14 -17 -45 -44 -69 -61 -32 -22 -44 -37 -44 -54 0
-16 -6 -25 -15 -25 -13 0 -15 -25 -15 -163 0 -92 4 -167 10 -173 5 -5 11 -18
13 -29 2 -11 8 -30 15 -42 17 -31 15 -36 -13 -29 l-25 6 0 -389 0 -390 36 -7
c20 -4 71 -4 113 0 42 3 90 2 106 -3 21 -7 -11 -10 -112 -10 l-143 -1 0 -436
0 -436 48 7 c76 11 94 17 88 30 -12 32 168 65 344 64 60 -1 62 -2 33 -11 -18
-6 -33 -14 -33 -18 0 -14 30 -20 53 -11 12 5 27 10 32 11 6 1 15 4 20 5 9 3
175 22 258 30 20 1 37 1 37 -1 0 -10 -36 -41 -54 -48 -31 -11 -3 -29 32 -21
20 4 29 11 26 20 -4 9 6 15 28 20 18 4 53 13 78 21 67 21 134 31 155 24 15 -5
12 -10 -21 -30 -21 -13 -45 -30 -52 -37 -11 -11 -10 -13 7 -13 32 0 73 19 97
45 24 26 62 33 81 14 6 -6 25 -9 43 -7 28 3 33 7 36 32 2 16 8 34 14 40 8 8 9
6 4 -8 -7 -18 -3 -18 77 -12 46 5 87 13 90 18 4 7 23 8 47 5 35 -6 40 -4 45
15 4 12 4 24 2 27 -3 2 -5 -1 -5 -7 0 -7 -10 -11 -22 -11 -18 1 -19 2 -5 6 9
2 15 9 12 14 -4 5 3 9 14 9 15 0 23 10 31 40 10 36 14 40 43 41 30 2 30 2 5 6
-30 5 -39 32 -36 108 1 22 0 66 -2 98 -2 47 -5 55 -16 46 -12 -9 -14 -3 -14
39 0 32 -9 71 -26 108 -26 58 -40 116 -49 204 -4 37 -4 41 5 21 9 -20 13 -21
26 -10 14 11 14 14 1 24 -18 13 -29 135 -12 135 6 0 17 -21 24 -47 8 -27 24
-82 37 -123 13 -41 24 -81 24 -87 0 -24 -17 -13 -30 17 -14 33 -30 40 -30 13
1 -30 63 -249 74 -260 3 -4 4 13 1 38 -14 133 -15 173 -4 162 6 -6 15 -44 19
-84 7 -61 8 -51 5 56 -6 176 -24 335 -42 363 -7 12 -11 27 -8 32 3 6 1 10 -4
10 -6 0 -11 7 -11 15 0 8 5 15 11 15 14 0 3 170 -12 185 -5 5 -9 1 -9 -12 0
-12 -5 -25 -11 -29 -8 -4 -7 -9 2 -15 11 -7 9 -13 -8 -31 -22 -22 -23 -22 -37
-3 -14 20 -15 19 -43 -7 -16 -16 -33 -28 -37 -28 -5 0 -14 -6 -20 -14 -6 -8
-60 -40 -120 -70 -60 -31 -114 -60 -120 -65 -6 -4 -35 -16 -63 -25 -29 -10
-53 -22 -53 -28 0 -6 -3 -9 -6 -6 -13 14 18 45 58 58 24 8 57 24 73 36 17 12
59 36 95 54 36 18 91 50 122 71 31 22 61 39 66 39 10 0 22 23 22 41 0 5 -17 6
-39 3 -37 -6 -39 -5 -34 15 6 23 30 40 65 46 34 7 34 16 0 44 -31 27 -72 92
-72 117 0 6 8 36 18 66 20 60 18 68 -30 126 -16 18 -28 40 -28 49 0 13 -3 13
-15 3 -10 -9 -15 -9 -15 -1 0 13 -22 10 -32 -4 -5 -6 -11 -5 -17 3 -4 8 -12
14 -17 14 -20 1 -34 11 -39 29 -4 11 -24 31 -45 44 -38 24 -38 24 -87 7 -26
-10 -68 -17 -93 -16 -54 1 -100 -27 -93 -57 3 -10 9 -19 13 -19 10 0 90 -78
90 -87 0 -4 -6 -1 -13 7 -39 47 -131 94 -174 87 -23 -4 -33 -2 -31 6 3 14 -65
87 -81 87 -15 0 -14 -12 5 -60 15 -38 15 -42 -1 -60 -15 -16 -21 -18 -33 -7
-14 10 -15 9 -7 -8 15 -37 44 -150 44 -177 1 -26 -1 -27 -26 -17 -38 14 -56
-6 -25 -31 12 -10 28 -20 35 -23 9 -4 9 -7 0 -18 -10 -10 -16 -10 -25 -1 -20
20 -28 14 -28 -20 0 -18 4 -28 8 -22 4 7 20 14 37 15 25 4 33 -2 57 -41 23
-37 29 -60 32 -121 2 -42 12 -93 20 -114 9 -21 14 -40 11 -43 -7 -7 -9 -4 -28
43 l-17 40 3 -50 2 -50 -55 -6 -55 -6 53 -1 c58 -2 94 -28 100 -72 2 -14 9
-34 16 -45 7 -11 21 -47 31 -80 9 -33 26 -72 37 -87 15 -21 16 -29 6 -32 -39
-13 -40 -14 -8 -15 40 -1 31 -13 -23 -31 -28 -9 -42 -9 -50 -1 -7 7 -3 13 14
20 l24 10 -27 0 c-20 1 -32 9 -43 31 -19 37 -29 39 -22 4 3 -19 -1 -28 -17
-34 -21 -9 -21 -9 2 -9 30 -1 28 -17 -4 -25 -15 -4 -95 -11 -178 -17 -83 -5
-163 -12 -178 -15 -18 -4 -28 -2 -28 5 0 6 11 11 24 11 14 0 28 5 31 10 4 6
12 10 18 9 7 -1 30 0 52 1 37 3 36 4 -15 9 l-54 6 -3 40 c-2 22 -7 54 -12 70
-9 29 -9 29 -10 -12 -1 -43 -1 -43 -38 -43 -38 1 -103 28 -73 31 8 1 22 1 30
0 12 -2 13 0 1 8 -11 7 -14 39 -13 141 0 72 2 134 5 136 8 8 37 -63 38 -93 1
-40 13 -70 23 -54 7 10 3 54 -10 119 -3 16 7 15 74 -4 46 -14 53 -18 37 -25
l-20 -8 20 0 c11 -1 38 2 60 6 36 6 38 7 15 14 l-25 7 25 1 c24 1 24 2 -8 21
-39 24 -42 24 -42 5 0 -19 -19 -19 -83 0 -40 12 -56 23 -71 48 -18 31 -19 31
-27 10 -12 -32 -19 -29 -19 7 0 17 3 29 7 28 16 -5 52 23 51 40 0 9 5 44 11
77 6 32 11 95 13 138 2 79 -5 96 -43 109 -5 2 -13 39 -19 83 -6 44 -15 87 -20
96 -4 8 -6 27 -3 41 3 14 0 29 -6 32 -6 4 -11 1 -11 -7 0 -20 -26 -41 -35 -27
-13 21 -16 19 -98 -60 -49 -46 -63 -51 -26 -9 12 13 34 43 50 66 l30 43 -23
32 c-12 18 -34 45 -47 60 l-24 28 18 53 18 54 41 -4 c25 -3 56 1 77 10 54 22
161 -5 133 -33 -8 -8 -9 -19 -1 -39 14 -38 4 -58 -38 -75 -19 -8 -35 -21 -36
-28 -3 -30 4 -64 16 -88 7 -14 17 -43 21 -64 11 -47 64 -94 115 -102 32 -5 35
-2 57 40 12 25 22 51 22 56 0 26 41 98 58 102 24 7 36 57 16 65 -8 3 -14 11
-14 18 0 7 -11 20 -25 29 -19 13 -25 25 -25 54 0 32 5 39 33 52 17 8 38 27 47
42 12 23 12 30 0 53 -16 29 -105 75 -146 75 -12 0 -34 4 -48 10 -16 6 -27 6
-31 0 -4 -6 4 -10 17 -10 13 0 30 -4 38 -10 21 -13 4 -17 -102 -25 -77 -5 -87
-4 -82 10 4 8 17 18 30 21 22 6 29 16 25 38 -1 4 41 6 93 4 70 -3 98 -9 111
-21 36 -37 105 -8 105 45 0 16 -48 34 -75 27 -16 -3 -70 25 -72 38 -2 6 7 15
18 18 11 4 25 19 30 33 12 32 84 89 118 94 33 4 40 28 9 28 -17 0 -25 6 -25
18 1 69 -3 78 -39 94 -20 9 -41 15 -48 12 -10 -4 -46 -104 -46 -128 0 -20 24
4 34 34 6 19 22 40 36 47 32 16 49 0 25 -24 -17 -16 -17 -18 -2 -21 9 -2 17
-5 17 -6 0 -2 -31 -35 -69 -74 -40 -40 -88 -79 -114 -90 -41 -18 -44 -22 -39
-48 11 -62 -27 14 -48 94 -4 18 -14 40 -21 48 -13 16 -20 35 -22 67 -1 9 -7
17 -14 17 -10 0 -10 6 -1 24 12 27 54 48 98 50 15 1 27 3 25 5 -2 2 23 21 56
43 32 22 59 45 59 51 0 6 -5 25 -12 43 -16 44 -5 69 23 54 34 -19 39 0 21 72
l-17 68 -187 0 -187 0 8 -22 c11 -31 91 -44 133 -22 15 8 28 19 28 24 0 14 46
12 58 -2 5 -7 8 -42 6 -78 -4 -55 -2 -69 15 -87 11 -11 25 -23 32 -25 18 -6 1
-28 -21 -28 -10 0 -21 -4 -24 -9 -3 -5 -31 -12 -61 -16 -41 -5 -58 -12 -66
-27 -9 -17 -8 -19 8 -14 10 3 36 8 58 11 22 4 48 9 59 12 10 3 16 1 13 -4 -3
-5 -33 -18 -67 -28 -33 -10 -60 -22 -60 -27 0 -4 -10 -6 -22 -4 -13 3 -26 5
-30 5 -4 1 -14 15 -23 31 -18 34 -47 39 -83 14 -12 -8 -26 -13 -31 -9 -5 3
-12 -4 -16 -15 -5 -17 -10 -18 -27 -9 -17 9 -19 18 -15 50 3 21 1 39 -4 39 -5
0 -22 15 -38 32 -24 27 -29 40 -27 78 1 25 8 55 14 67 7 12 12 31 12 42 0 17
-6 21 -30 21 l-30 0 1 -202z m39 -94 c0 -8 -5 -12 -10 -9 -6 4 -8 11 -5 16 9
14 15 11 15 -7z m285 -504 c3 -5 1 -10 -4 -10 -6 0 -11 5 -11 10 0 6 2 10 4
10 3 0 8 -4 11 -10z m155 -50 c-6 -11 -13 -20 -15 -20 -2 0 -9 9 -15 20 -9 18
-8 20 15 20 23 0 24 -2 15 -20z m61 -73 c-13 -13 -26 -3 -16 12 3 6 11 8 17 5
6 -4 6 -10 -1 -17z m-411 -52 c0 -8 -4 -15 -10 -15 -5 0 -10 7 -10 15 0 8 5
15 10 15 6 0 10 -7 10 -15z m367 -21 c-3 -3 -12 -4 -19 -1 -8 3 -5 6 6 6 11 1
17 -2 13 -5z m-29 -101 c10 -16 21 -35 25 -44 4 -12 13 -15 31 -12 30 6 33 -3
9 -29 -20 -22 -62 -23 -89 -3 -15 12 -16 16 -5 24 11 7 11 15 2 41 -20 58 -6
70 27 23z m105 -151 c-24 -49 -32 -57 -58 -59 -35 -3 -65 19 -89 65 l-16 32
58 -6 c58 -6 60 -6 93 29 30 32 34 34 37 16 2 -10 -9 -45 -25 -77z m-466 -48
c-3 -3 -12 -4 -19 -1 -8 3 -5 6 6 6 11 1 17 -2 13 -5z m780 -211 c-3 -3 -21
-1 -39 3 l-33 8 35 6 c32 5 50 -3 37 -17z m23 -251 c12 -42 14 -62 6 -62 -15
0 -46 72 -46 106 0 45 23 21 40 -44z m690 -112 c0 -5 -4 -10 -10 -10 -5 0 -10
5 -10 10 0 6 5 10 10 10 6 0 10 -4 10 -10z m-50 -10 c0 -5 -7 -10 -15 -10 -8
0 -15 5 -15 10 0 6 7 10 15 10 8 0 15 -4 15 -10z m-26 -92 c9 -17 16 -43 16
-57 0 -23 -4 -20 -30 24 -27 46 -30 65 -10 65 5 0 16 -14 24 -32z m-75 -20
c38 -88 62 -198 43 -198 -6 0 -14 16 -18 35 -8 45 -30 40 -27 -6 2 -34 -5 -26
-21 25 -13 40 -15 6 -7 -105 9 -115 7 -137 -6 -103 -4 10 -13 25 -20 32 -7 7
-13 22 -13 33 0 10 -5 19 -11 19 -13 0 -39 62 -39 95 0 23 -36 72 -46 63 -2
-3 7 -38 21 -78 31 -91 31 -122 0 -55 l-23 50 -7 -48 c-4 -27 -5 -82 -3 -124
3 -42 1 -69 -3 -61 -5 7 -9 34 -9 60 0 40 -3 46 -16 41 -15 -5 -16 3 -9 78 11
121 9 207 -4 223 -31 38 10 53 177 64 17 2 26 -7 41 -40z m-249 -18 c0 -5 -4
-10 -9 -10 -6 0 -13 5 -16 10 -3 6 1 10 9 10 9 0 16 -4 16 -10z m-53 -82 c-3
-8 -6 -5 -6 6 -1 11 2 17 5 13 3 -3 4 -12 1 -19z m-841 -78 c25 0 32 -14 13
-26 -6 -3 -16 -1 -22 5 -16 16 -37 14 -37 -4 0 -13 -7 -15 -34 -10 -19 4 -43
2 -54 -4 -17 -9 -20 -7 -24 14 -5 23 -2 25 33 25 21 0 40 4 44 10 4 6 15 6 31
0 14 -6 36 -10 50 -10z m134 -11 c11 -6 6 -8 -15 -9 -38 0 -75 10 -75 21 0 9
68 0 90 -12z m767 -21 c-3 -7 -5 -2 -5 12 0 14 2 19 5 13 2 -7 2 -19 0 -25z
m-30 -22 c-3 -11 -11 -40 -17 -64 -14 -57 -70 -156 -70 -125 0 12 4 25 10 28
9 6 40 101 55 168 3 16 10 25 16 21 6 -3 9 -16 6 -28z m-718 7 c11 -9 -17 -22
-37 -17 -34 9 -29 36 6 28 15 -4 29 -9 31 -11z m1041 -22 c0 -11 3 -28 6 -38
5 -16 4 -16 -10 1 -18 22 -21 56 -6 56 6 0 10 -9 10 -19z m-523 -8 c5 -14 -71
-33 -88 -22 -17 10 -12 15 31 27 40 11 52 10 57 -5z m-133 -12 c10 -15 -19
-20 -182 -33 -156 -12 -232 -6 -167 13 17 5 82 11 144 14 63 3 117 8 120 10 8
9 80 5 85 -4z m156 -26 c0 -15 -99 -35 -200 -40 -25 -1 -106 -6 -181 -10 -95
-6 -138 -5 -143 3 -4 7 9 13 36 16 61 7 261 19 340 20 36 1 70 4 74 9 8 8 74
10 74 2z m369 -58 c1 -5 -3 -5 -9 -2 -5 3 -10 16 -9 28 0 21 1 21 9 2 5 -11 9
-24 9 -28z m-162 1 c-3 -8 -6 -5 -6 6 -1 11 2 17 5 13 3 -3 4 -12 1 -19z m-77
-498 c0 -5 -7 -10 -16 -10 -8 0 -12 5 -9 10 3 6 10 10 16 10 5 0 9 -4 9 -10z
m137 -6 c-3 -3 -12 -4 -19 -1 -8 3 -5 6 6 6 11 1 17 -2 13 -5z m-1214 -11 c-7
-2 -19 -2 -25 0 -7 3 -2 5 12 5 14 0 19 -2 13 -5z m60 -10 c-7 -2 -19 -2 -25
0 -7 3 -2 5 12 5 14 0 19 -2 13 -5z m342 -13 c-3 -5 -23 -10 -43 -9 -30 0 -33
2 -17 9 28 12 67 12 60 0z m180 0 c3 -5 1 -10 -4 -10 -6 0 -11 5 -11 10 0 6 2
10 4 10 3 0 8 -4 11 -10z m-500 -50 c-3 -5 -10 -10 -16 -10 -5 0 -9 5 -9 10 0
6 7 10 16 10 8 0 12 -4 9 -10z"/>
<path d="M1370 2025 c0 -14 21 -45 31 -45 18 0 5 45 -13 48 -10 2 -18 1 -18
-3z"/>
<path d="M1302 1993 c5 -25 28 -28 28 -4 0 12 -6 21 -16 21 -9 0 -14 -7 -12
-17z"/>
<path d="M1240 1991 c0 -5 7 -14 15 -21 13 -10 15 -9 15 9 0 12 -6 21 -15 21
-8 0 -15 -4 -15 -9z"/>
<path d="M1380 1950 c0 -5 9 -10 21 -10 11 0 17 5 14 10 -3 6 -13 10 -21 10
-8 0 -14 -4 -14 -10z"/>
<path d="M1426 1905 c4 -8 8 -15 10 -15 2 0 4 7 4 15 0 8 -4 15 -10 15 -5 0
-7 -7 -4 -15z"/>
<path d="M1333 1871 c3 -16 13 -44 22 -62 l15 -34 -6 54 c-6 60 -10 71 -26 71
-6 0 -8 -11 -5 -29z"/>
<path d="M6450 3990 c0 -5 -7 -10 -15 -10 -20 0 -19 -6 10 -57 29 -48 45 -55
45 -19 0 27 14 41 53 50 64 15 132 -21 178 -93 l15 -24 52 18 c29 11 52 24 52
30 0 6 -23 35 -52 63 l-52 52 -116 0 c-78 0 -110 -3 -100 -10 9 -6 10 -10 3
-10 -6 0 -15 5 -18 10 -3 6 -17 10 -31 10 -13 0 -24 -4 -24 -10z"/>
<path d="M6524 3915 c-18 -14 -17 -14 12 -9 38 7 87 -31 104 -81 13 -40 20
-43 44 -16 16 18 16 22 2 49 -16 31 -86 72 -122 72 -11 0 -29 -7 -40 -15z
m156 -93 c0 -13 -12 -22 -22 -16 -10 6 -1 24 13 24 5 0 9 -4 9 -8z"/>
<path d="M3908 3903 c6 -2 18 -2 25 0 6 3 1 5 -13 5 -14 0 -19 -2 -12 -5z"/>
<path d="M6568 3843 c6 -2 18 -2 25 0 6 3 1 5 -13 5 -14 0 -19 -2 -12 -5z"/>
<path d="M620 3820 c0 -5 5 -10 10 -10 6 0 10 5 10 10 0 6 -4 10 -10 10 -5 0
-10 -4 -10 -10z"/>
<path d="M675 3810 c-4 -6 -11 -8 -16 -5 -13 9 -34 -7 -35 -26 -1 -13 7 -17
37 -15 35 1 39 3 39 29 0 27 -13 36 -25 17z"/>
<path d="M6560 3810 c0 -5 5 -10 10 -10 6 0 10 5 10 10 0 6 -4 10 -10 10 -5 0
-10 -4 -10 -10z"/>
<path d="M6373 3788 c-13 -6 -23 -18 -23 -27 0 -12 3 -12 12 -3 17 17 22 15
46 -18 18 -24 21 -34 12 -50 -8 -16 -8 -22 4 -26 11 -4 14 -24 12 -85 -1 -67
-4 -83 -20 -95 -11 -8 -27 -14 -37 -14 -9 0 -22 -7 -29 -15 -7 -8 -10 -15 -8
-15 4 0 133 43 167 55 27 10 4 15 -27 6 l-32 -10 15 36 c8 19 15 42 15 50 0
21 31 49 63 57 35 8 30 30 -7 34 -31 4 -56 49 -56 102 0 29 -2 30 -42 29 -24
0 -53 -5 -65 -11z"/>
<path d="M7341 3781 c-11 -11 -24 -36 -30 -56 -8 -31 -6 -46 12 -91 20 -49 37
-69 37 -44 0 6 9 10 20 10 11 0 20 -4 20 -10 0 -5 -4 -10 -10 -10 -5 0 -10 -9
-10 -19 0 -27 -13 -33 -36 -17 -15 12 -23 12 -44 1 -14 -6 -37 -15 -52 -19
-26 -6 -98 -82 -98 -103 0 -6 -11 -18 -25 -27 -32 -21 -49 -54 -47 -90 2 -22
-1 -27 -13 -22 -8 3 -22 9 -32 13 -11 4 -14 3 -9 -6 14 -23 111 -71 144 -71
44 0 38 -22 -10 -34 -30 -8 -43 -5 -81 16 -39 22 -44 23 -40 7 3 -10 23 -30
45 -44 35 -23 44 -25 71 -16 49 18 59 -4 19 -40 -38 -34 -61 -36 -93 -10 l-24
19 -10 -41 c-13 -55 -60 -87 -125 -87 -40 0 -53 -5 -86 -35 -21 -19 -44 -35
-51 -35 -8 0 -40 -9 -73 -20 l-59 -20 -103 44 c-149 63 -144 62 -144 24 1 -27
8 -38 43 -60 24 -16 57 -28 75 -28 43 -1 111 -32 131 -60 26 -37 -8 -98 -80
-147 -21 -14 -32 -19 -25 -12 19 21 14 46 -14 68 -54 42 -257 15 -346 -47 -47
-32 -66 -35 -92 -13 -21 18 -21 1 2 -43 12 -26 25 -36 50 -41 36 -7 39 -12 45
-64 2 -21 11 -39 23 -45 41 -23 44 -46 9 -78 l-25 -23 58 -84 c31 -46 67 -100
78 -120 13 -22 34 -40 53 -47 33 -11 35 -15 18 -51 -5 -12 -6 -30 -2 -40 5
-14 10 -6 20 30 7 27 22 62 34 78 12 16 19 34 16 39 -4 6 0 24 8 40 12 22 13
39 5 72 -9 43 -28 75 -28 49 0 -11 -3 -11 -15 -1 -24 20 -19 25 44 44 89 27
104 19 86 -41 -6 -18 2 -27 45 -56 48 -33 51 -36 32 -46 -33 -17 -37 -49 -11
-77 l22 -24 -23 -25 c-13 -14 -32 -25 -42 -25 -11 0 -26 -7 -35 -16 -11 -11
-19 -12 -26 -5 -6 6 -14 11 -18 11 -10 0 -30 -82 -28 -115 1 -16 -5 -52 -14
-78 -21 -60 -22 -97 -2 -97 8 0 31 -10 50 -22 26 -18 33 -28 29 -43 -4 -11 -8
-22 -10 -24 -8 -9 -44 33 -44 51 0 11 -7 18 -19 18 -11 0 -23 5 -26 10 -5 8
-11 8 -20 0 -16 -13 -8 -98 11 -120 19 -22 30 -510 12 -510 -9 -1 -7 -5 4 -13
17 -14 32 -63 43 -142 9 -74 14 -85 38 -85 16 0 18 -3 9 -12 -7 -7 -12 -19
-11 -27 0 -9 3 -11 5 -5 4 9 13 8 35 -3 36 -18 48 -10 31 18 -12 18 -11 20 5
17 26 -5 27 -34 2 -59 -18 -18 -25 -20 -40 -10 -27 16 -39 14 -39 -8 0 -10 -8
-22 -17 -25 -11 -5 -13 -10 -6 -17 8 -8 21 -7 46 2 27 9 47 10 80 2 25 -5 83
-9 130 -9 67 1 83 -2 75 -11 -7 -9 -7 -13 1 -13 6 0 11 -6 11 -14 0 -9 15 -17
40 -21 22 -4 38 -12 37 -18 -1 -7 19 -14 53 -17 30 -3 61 -9 68 -14 11 -7 12
-4 3 13 -7 11 -18 21 -26 21 -8 0 -14 4 -13 9 2 5 -31 45 -72 88 -101 106
-126 137 -77 95 38 -32 57 -40 57 -23 0 5 -7 14 -15 21 -26 21 -17 30 30 30
25 0 45 -4 45 -9 0 -6 40 -7 97 -4 71 5 94 3 89 -5 -4 -7 3 -17 18 -24 14 -6
26 -15 26 -20 0 -5 14 -7 30 -3 26 6 30 4 30 -13 0 -12 8 -23 18 -25 14 -4 14
-6 -5 -12 -13 -4 -23 -11 -23 -16 0 -9 36 -16 139 -24 41 -3 79 -9 85 -14 6
-5 28 -11 49 -15 94 -15 106 -19 111 -32 3 -8 -1 -14 -9 -14 -8 0 -15 -4 -15
-10 0 -5 25 -10 55 -10 30 0 55 4 55 10 0 5 -12 8 -27 6 -16 -2 -22 -1 -15 1
21 8 14 17 -40 58 -29 22 -66 52 -83 67 -16 14 -41 36 -55 48 -17 15 -19 20
-7 16 20 -6 22 5 5 23 -11 10 1 12 62 10 41 -2 108 -2 148 -1 l73 2 -1 470 -1
470 -124 0 -124 0 15 -42 c8 -24 16 -60 17 -80 1 -21 5 -38 10 -38 4 0 7 -4 7
-10 0 -15 -109 -9 -122 7 -7 9 -9 35 -5 74 8 73 -8 71 -17 -3 -16 -123 -13
-118 -64 -118 l-45 0 6 74 c3 49 14 92 31 128 30 64 31 68 11 68 -9 0 -20 -10
-25 -22 -13 -33 -40 -175 -40 -214 0 -34 0 -34 -47 -34 -92 0 -170 19 -233 56
-33 20 -60 40 -60 45 0 5 8 17 18 27 67 70 92 104 92 130 -1 26 -1 26 -19 -9
-10 -20 -23 -43 -30 -50 -6 -8 -20 -25 -31 -39 -17 -22 -19 -22 -20 -6 0 20
50 118 79 153 l18 21 79 -19 c103 -24 224 -25 286 -1 60 23 69 32 30 32 -17 0
-34 -5 -37 -10 -4 -6 -11 -8 -16 -4 -5 3 -7 8 -5 12 2 4 -2 13 -10 20 -8 7
-14 8 -14 2 0 -13 -47 -13 -55 0 -4 6 -3 16 2 23 22 29 74 299 60 313 -2 2
-10 -15 -18 -38 l-14 -43 -2 55 c-6 125 -24 213 -48 235 -13 11 -25 29 -28 40
-4 18 -5 18 -6 -2 -1 -17 -7 -23 -25 -23 -14 0 -28 5 -31 10 -4 6 -25 8 -50 5
-31 -3 -48 -1 -58 10 -8 8 -17 11 -21 8 -3 -3 -8 2 -12 11 -7 19 12 70 33 87
12 11 13 5 8 -42 -4 -39 -3 -48 4 -32 6 12 12 43 15 69 7 56 25 86 66 110 31
19 42 58 18 66 -10 4 -10 10 -2 29 8 17 8 29 0 42 -8 13 -8 20 2 26 8 5 -6 8
-34 9 -43 2 -49 -1 -82 -39 -20 -23 -43 -56 -52 -72 -23 -42 -36 -44 -44 -6
-5 26 -1 37 19 57 15 15 25 36 25 53 l0 29 92 0 c84 0 94 -2 127 -27 49 -37
51 -40 91 -103 53 -86 89 -120 128 -120 29 0 32 -3 27 -22 -7 -28 -24 -146
-32 -212 -5 -47 -4 -48 18 -41 53 16 63 44 27 70 -21 15 -21 16 -3 13 15 -2
20 4 26 35 7 44 -25 193 -47 218 -8 8 -14 21 -14 27 0 6 -13 33 -30 59 -16 26
-30 53 -30 60 0 7 -5 13 -10 13 -6 0 -8 10 -4 24 4 18 1 25 -13 29 -15 4 36
11 58 9 9 -2 31 53 28 69 -7 44 32 112 59 102 12 -5 14 -2 9 12 -8 19 1 85 12
83 18 -2 31 3 31 13 0 7 -9 9 -22 5 -13 -4 -27 -8 -33 -9 -5 -2 -16 -6 -22
-10 -7 -4 -39 -2 -72 4 -47 10 -66 10 -86 1 -27 -12 -45 -9 -45 9 0 5 7 9 15
9 8 0 15 5 15 11 0 16 136 5 156 -12 12 -10 15 -10 12 1 -2 8 4 14 12 15 9 0
16 11 18 28 3 23 8 27 35 28 24 1 26 3 10 6 -31 6 -29 11 14 55 29 30 34 40
24 52 -10 12 -16 12 -40 0 -24 -12 -34 -11 -80 6 -67 24 -68 26 -38 42 27 14
85 59 126 97 l26 23 -35 -24 c-85 -59 -112 -72 -120 -57 -7 10 -11 7 -19 -14
-10 -27 -32 -34 -65 -21 -19 7 -21 34 -3 34 7 0 18 5 25 12 9 9 3 17 -29 33
-23 11 -41 24 -40 28 0 4 1 22 1 40 0 18 7 42 16 53 15 19 15 18 9 -3 -3 -12
-1 -24 5 -28 6 -4 10 4 10 18 0 16 8 28 24 35 22 10 25 8 29 -11 3 -20 4 -20
11 -4 5 11 2 26 -8 42 -14 20 -25 25 -61 25 -31 0 -51 -6 -64 -19z m-16 -361
c-3 -5 1 -10 9 -10 22 0 20 -26 -4 -50 -15 -15 -31 -19 -71 -17 -29 1 -54 7
-56 13 -5 14 85 66 98 58 5 -3 9 0 9 5 0 6 5 11 11 11 5 0 7 -4 4 -10z m-119
-84 c8 -8 14 -20 14 -27 0 -9 4 -8 15 1 12 10 18 10 30 0 8 -7 15 -18 15 -26
0 -17 -65 -37 -106 -32 l-31 3 14 48 c14 49 25 56 49 33z m314 -161 c0 -8 -4
-15 -10 -15 -5 0 -10 7 -10 15 0 8 5 15 10 15 6 0 10 -7 10 -15z m-47 -1 c3
-3 3 -12 0 -20 -4 -10 -10 -11 -24 -3 -11 5 -17 14 -14 20 7 10 28 12 38 3z
m-172 -127 c-6 -6 -11 -19 -11 -29 0 -10 -7 -18 -15 -18 -12 0 -13 5 -4 26 14
39 19 45 31 38 6 -4 6 -10 -1 -17z m33 -45 c2 -4 1 -14 -4 -21 -10 -17 -31 -5
-23 14 6 16 19 20 27 7z m114 -115 c3 -23 0 -27 -20 -27 -13 0 -29 5 -36 12
-17 17 -15 39 3 32 8 -4 15 -1 15 6 0 25 35 4 38 -23z m-230 5 c13 -9 6 -42
-9 -42 -4 0 -6 -6 -3 -13 5 -14 -9 -30 -37 -40 -14 -4 -15 1 -9 33 6 33 26 69
40 69 3 1 11 -3 18 -7z m256 -74 c3 -13 6 -32 5 -43 0 -17 -5 -14 -29 15 -36
42 -37 50 -6 50 16 0 26 -7 30 -22z m44 -33 c16 -34 15 -45 -2 -45 -8 0 -15
14 -18 35 -5 41 4 45 20 10z m-1092 -117 c3 -5 4 -12 1 -14 -7 -7 -47 15 -47
25 0 11 38 2 46 -11z m-226 -69 c0 -11 -4 -18 -10 -14 -5 3 -7 12 -3 20 7 21
13 19 13 -6z m301 -52 c-13 -13 -15 1 -4 30 7 17 8 17 11 -1 2 -10 -1 -23 -7
-29z m-41 -3 c0 -8 -7 -14 -15 -14 -17 0 -18 2 -9 24 7 18 24 12 24 -10z
m-110 -4 c0 -5 -4 -10 -10 -10 -5 0 -10 5 -10 10 0 6 5 10 10 10 6 0 10 -4 10
-10z m153 -131 c-8 -30 -31 -35 -54 -12 -20 19 -20 20 2 48 l23 28 17 -22 c10
-12 15 -30 12 -42z m519 -64 c-4 -26 -22 -45 -22 -25 0 12 18 50 24 50 2 0 1
-11 -2 -25z m-678 -121 c4 -10 1 -14 -6 -12 -15 5 -23 28 -10 28 5 0 13 -7 16
-16z m36 -4 c0 -5 -4 -10 -10 -10 -5 0 -10 5 -10 10 0 6 5 10 10 10 6 0 10 -4
10 -10z m41 -56 c12 -23 12 -27 -6 -41 -18 -13 -22 -11 -47 17 -36 40 -35 50
5 50 26 0 37 -6 48 -26z m411 4 c-23 -8 -39 -8 -55 0 -19 9 -13 11 33 10 53 0
54 -1 22 -10z m-52 -48 c-20 -13 -33 -13 -25 0 3 6 14 10 23 10 15 0 15 -2 2
-10z m215 -30 c5 -23 10 -28 19 -21 9 7 16 7 24 -1 7 -7 12 -8 12 -2 0 6 7 11
15 11 19 0 19 -36 0 -60 -9 -13 -23 -18 -47 -15 -28 2 -33 0 -36 -20 -2 -13 3
-24 12 -27 9 -3 23 -7 32 -10 12 -4 11 -10 -10 -32 -15 -15 -30 -49 -36 -78
-15 -70 -33 -94 -26 -35 2 25 9 63 15 85 7 29 7 41 -2 47 -7 4 -64 8 -128 8
-108 0 -117 2 -137 23 l-22 24 25 11 c14 7 30 12 36 12 5 0 24 10 42 22 18 13
34 24 37 26 2 2 -2 7 -10 12 -18 11 -13 16 25 26 30 7 30 7 12 -14 -11 -12
-14 -22 -8 -26 5 -4 12 -2 16 4 3 5 16 8 28 5 16 -4 29 2 47 25 32 39 56 39
65 0z m269 -30 c14 0 26 -4 26 -10 0 -5 9 -10 20 -10 15 0 20 -7 20 -28 0 -42
-30 -65 -74 -57 -24 5 -36 3 -36 -4 0 -6 -5 -11 -11 -11 -17 0 -79 66 -79 83
0 32 59 61 92 45 9 -4 28 -8 42 -8z m-234 -395 c19 -14 40 -25 47 -25 8 0 28
-7 45 -16 18 -9 63 -18 106 -20 41 -1 80 -8 86 -14 14 -14 -165 -3 -209 13
-38 13 -125 69 -125 79 0 14 15 9 50 -17z m-27 -29 c49 -37 132 -66 195 -67
31 -1 71 -5 87 -10 19 -5 -6 -7 -72 -4 -61 2 -117 10 -140 20 -46 19 -113 64
-113 76 0 14 9 11 43 -15z m604 -13 c3 -9 -13 -12 -56 -10 -44 1 -61 5 -61 15
0 17 111 13 117 -5z m-157 -18 c0 -14 -45 -25 -73 -18 -31 7 -31 8 18 14 28 3
51 7 53 7 1 1 2 0 2 -3z m-351 -59 c30 -9 84 -16 121 -16 45 0 73 -5 89 -17
22 -15 25 -15 37 2 9 12 22 16 45 13 18 -3 55 3 85 14 55 20 99 21 99 3 0 -5
-30 -13 -66 -16 -36 -3 -74 -12 -83 -20 -9 -8 -23 -20 -30 -26 -11 -10 -21
-10 -48 1 -18 8 -73 17 -123 20 -122 10 -184 28 -220 67 l-30 31 35 -20 c19
-11 59 -27 89 -36z m480 48 c17 -4 31 -10 31 -15 0 -12 -107 -12 -114 0 -13
20 23 27 83 15z m-129 -33 c0 -5 -8 -11 -18 -13 -26 -7 -83 3 -76 13 7 12 94
12 94 0z m-840 -490 c0 -4 -11 -6 -25 -3 -14 2 -25 6 -25 8 0 2 11 4 25 4 14
0 25 -4 25 -9z m400 -11 c-37 -8 -36 -8 49 -16 85 -7 73 -14 -23 -14 -70 0
-93 4 -111 19 -24 18 -24 18 48 18 55 0 64 -1 37 -7z m157 4 c-3 -3 -12 -4
-19 -1 -8 3 -5 6 6 6 11 1 17 -2 13 -5z m486 -11 c-1 -6 11 -17 27 -25 17 -7
30 -17 30 -22 0 -12 -104 1 -108 14 -2 5 -16 10 -30 11 -24 0 -25 1 -7 9 15 6
6 9 -35 11 l-55 2 45 7 c66 11 135 7 133 -7z m-896 -9 c-3 -3 -12 -4 -19 -1
-8 3 -5 6 6 6 11 1 17 -2 13 -5z m413 -14 c0 -5 -6 -10 -14 -10 -8 0 -18 5
-21 10 -3 6 3 10 14 10 12 0 21 -4 21 -10z m-379 -77 c13 -15 12 -15 -8 -4
-24 12 -29 21 -14 21 5 0 15 -7 22 -17z m757 -181 c36 -17 44 -37 11 -27 -14
5 -25 2 -30 -6 -5 -8 -9 -9 -9 -3 0 6 -25 19 -55 29 -39 14 -52 22 -45 31 12
13 75 2 128 -24z m-168 24 c0 -3 -4 -8 -10 -11 -5 -3 -10 -1 -10 4 0 6 5 11
10 11 6 0 10 -2 10 -4z m-415 -91 c6 -7 19 -15 30 -18 16 -4 14 -5 -6 -6 -16
-1 -29 5 -33 14 -3 9 -19 15 -41 15 -20 0 -34 4 -31 8 7 12 69 2 81 -13z"/>
<path d="M6640 3751 c0 -10 7 -24 15 -31 24 -20 18 -50 -27 -119 -24 -36 -45
-68 -49 -71 -4 -3 -10 -24 -14 -47 -4 -24 -11 -45 -15 -48 -5 -3 -6 -45 -3
-93 l6 -87 -119 -34 c-121 -34 -185 -60 -151 -61 9 0 17 -7 17 -15 0 -19 -31
-55 -47 -55 -7 0 -10 -7 -6 -15 3 -9 2 -15 -3 -14 -21 3 -32 -2 -39 -18 -15
-37 -23 -83 -14 -89 15 -9 10 -27 -6 -20 -10 3 -15 -1 -15 -13 0 -10 -6 -23
-13 -29 -10 -9 -17 2 -31 51 -16 52 -46 110 -67 127 -12 10 -22 53 -10 46 6
-4 30 6 53 22 24 16 47 30 51 30 14 1 36 36 37 57 0 12 -3 15 -8 9 -20 -31
-126 -48 -134 -22 -3 7 -11 9 -24 4 -19 -8 -19 -8 1 -16 19 -8 19 -9 -2 -9
-26 -1 -28 -11 -8 -66 18 -49 12 -57 -10 -14 -15 28 -19 30 -27 15 -8 -14 -13
-15 -24 -5 -8 6 -17 10 -19 7 -8 -8 26 -48 41 -48 8 0 14 -4 14 -9 0 -5 24
-23 54 -40 63 -35 67 -45 75 -162 6 -84 7 -86 28 -78 24 9 158 226 176 286 14
43 64 68 157 78 36 3 80 11 98 16 18 6 36 9 39 6 10 -11 -11 -52 -40 -80 -34
-32 -32 -46 4 -19 27 22 96 35 104 21 4 -5 -3 -9 -13 -9 -29 0 -36 -39 -9 -44
12 -2 43 -8 69 -14 26 -5 53 -5 60 -1 9 6 5 9 -13 9 -49 0 -86 73 -96 193 -3
37 -9 67 -14 67 -4 0 -5 -8 -2 -18 3 -12 -1 -19 -11 -19 -21 0 -16 27 8 50 11
9 17 20 13 23 -3 3 -2 16 3 29 10 26 2 68 -11 59 -5 -3 -9 2 -9 10 0 9 -4 16
-10 16 -10 0 -7 51 5 80 4 11 -1 16 -14 17 -20 2 -35 -20 -40 -58 0 -5 -5 -7
-11 -4 -13 8 8 55 54 124 38 57 45 91 21 111 -11 9 -12 17 -4 31 7 15 6 19 -6
19 -8 0 -15 -8 -15 -19z m-125 -531 c-27 -12 -43 -12 -25 0 8 5 22 9 30 9 10
0 8 -3 -5 -9z m127 -12 c-7 -7 -12 -8 -12 -2 0 14 12 26 19 19 2 -3 -1 -11 -7
-17z"/>
<path d="M1510 3670 c-8 -5 -27 -11 -42 -15 -15 -3 -37 -15 -48 -27 -20 -22
-27 -63 -12 -72 5 -3 7 -30 4 -61 -3 -35 0 -65 8 -80 20 -38 5 -110 -44 -205
-47 -92 -48 -101 -19 -194 34 -108 160 -276 207 -276 12 0 41 -11 65 -25 49
-28 84 -31 124 -11 27 15 32 11 28 -22 -1 -8 5 -53 14 -100 9 -48 21 -116 27
-152 12 -70 41 -137 67 -157 10 -8 12 -12 4 -13 -20 0 -16 -21 17 -85 17 -32
30 -66 30 -75 0 -9 9 -25 20 -35 19 -18 20 -17 20 4 0 17 4 20 23 16 15 -4 32
1 50 15 21 17 31 19 41 11 10 -8 17 -7 27 5 10 13 10 17 -1 24 -9 5 -11 21 -8
48 7 48 0 60 -32 58 -23 -1 -25 -5 -22 -44 3 -48 -11 -82 -34 -82 -8 0 -31 17
-49 38 -19 20 -35 33 -35 28 0 -5 -7 -3 -15 4 -8 7 -15 19 -15 27 0 13 3 13
15 3 19 -16 19 0 0 26 -8 10 -15 27 -15 36 0 10 -9 33 -20 53 -11 20 -20 44
-20 53 0 10 -4 22 -9 27 -18 20 -22 65 -6 71 21 8 19 23 -7 46 -32 27 -34 138
-4 199 27 52 43 60 51 22 18 -86 25 -101 59 -117 19 -9 41 -16 49 -16 22 0 29
-15 29 -58 0 -20 2 -40 5 -45 6 -10 43 11 43 24 0 6 9 22 20 36 36 46 20 86
-17 43 -26 -30 -31 -25 -31 25 0 52 9 55 76 25 51 -23 87 -14 102 26 8 20 6
29 -7 42 -16 16 -16 16 -10 0 3 -10 2 -18 -3 -18 -6 0 -10 8 -10 18 0 9 -3 28
-7 41 -5 21 -4 23 18 16 21 -7 22 -6 10 9 -7 9 -20 16 -29 16 -12 0 -14 -11
-10 -65 3 -36 2 -65 -2 -65 -12 0 -30 92 -30 148 0 34 -3 43 -10 32 -5 -8 -10
-41 -10 -73 0 -42 -3 -58 -12 -55 -7 3 -14 14 -16 25 -2 12 -13 24 -26 27 -28
7 -50 53 -41 87 5 22 11 24 70 26 l65 1 1 -31 c1 -18 1 -35 0 -39 0 -4 9 -7
22 -7 49 3 127 -54 127 -92 0 -21 -15 -25 -26 -8 -4 8 -12 2 -21 -15 -8 -15
-13 -29 -11 -31 2 -2 21 -5 43 -7 39 -3 40 -2 49 34 7 26 16 38 33 42 20 6 21
9 11 26 -16 24 -2 39 15 16 7 -9 24 -22 37 -29 19 -10 26 -21 28 -52 3 -43 20
-85 34 -85 18 0 20 32 2 51 -13 15 -18 36 -18 84 0 36 2 66 5 69 2 2 28 1 57
-1 35 -4 52 -10 52 -19 0 -20 18 -17 30 5 26 49 -2 96 -80 137 -33 17 -34 19
-11 22 34 5 97 -26 110 -54 21 -47 14 -101 -19 -136 -16 -17 -30 -34 -29 -37
0 -7 86 -70 104 -77 9 -4 12 5 11 33 -2 21 -3 50 -4 64 -1 18 -10 29 -24 34
-22 8 -22 8 5 12 19 3 31 13 38 30 8 21 14 24 36 18 32 -8 43 6 43 59 0 31 3
37 16 32 9 -3 18 -6 20 -6 2 0 4 -7 4 -15 0 -17 20 -56 35 -67 7 -5 6 -11 -1
-15 -11 -8 -2 -151 11 -173 3 -5 19 -10 35 -10 15 0 30 -5 32 -11 2 -6 16 7
31 30 18 28 35 41 50 41 14 0 28 11 40 31 21 37 15 49 -11 26 -24 -22 -32 -13
-22 23 6 20 4 34 -6 47 -19 25 -17 41 6 48 37 12 80 56 80 82 0 23 -20 53 -35
53 -4 0 -21 10 -38 22 l-32 22 23 -25 c25 -29 32 -59 7 -39 -8 6 -24 13 -37
15 -13 2 -46 12 -75 24 -30 12 -78 21 -117 22 -55 2 -64 4 -54 16 9 11 13 12
20 1 13 -18 -1 69 -17 108 -7 17 -16 59 -20 94 -9 79 -31 105 -83 96 -20 -3
-45 -14 -56 -26 l-20 -20 26 -27 c14 -16 28 -40 32 -55 3 -15 19 -35 36 -45
36 -21 38 -46 8 -68 -25 -17 -38 -4 -19 19 9 11 4 10 -22 -1 -19 -9 -42 -31
-52 -49 -14 -26 -23 -32 -40 -28 -16 4 -24 -1 -33 -20 -6 -14 -16 -26 -22 -26
-5 0 -10 -9 -10 -20 0 -13 -7 -20 -18 -20 -41 0 -73 -50 -90 -139 -5 -26 -14
-37 -35 -44 -16 -5 -30 -7 -31 -6 -2 2 -27 65 -56 139 -29 74 -54 136 -55 138
-2 2 -19 0 -39 -4 l-37 -6 31 -28 c36 -32 37 -40 7 -68 -22 -21 -23 -21 -52
-3 -23 13 -44 17 -91 13 -37 -2 -64 0 -68 7 -6 10 24 18 87 25 29 3 67 29 67
45 0 11 -39 25 -47 17 -4 -3 -12 -1 -20 6 -18 15 -29 2 -14 -16 8 -10 9 -16 1
-21 -6 -3 -8 -10 -6 -14 3 -4 -9 -5 -26 -3 -21 3 -29 1 -24 -7 5 -7 1 -9 -8
-5 -9 3 -14 10 -11 15 3 4 -8 3 -25 -3 -20 -7 -29 -15 -26 -24 7 -18 -2 -18
-20 1 -9 8 -26 15 -38 15 -13 0 -43 10 -67 23 -24 13 -75 31 -112 41 -63 17
-69 17 -86 2 -27 -24 -60 -19 -91 14 -15 17 -37 30 -48 30 -11 0 -22 6 -25 13
-3 7 -9 2 -15 -13 -10 -23 -11 -23 -11 -4 -1 26 29 54 57 54 15 0 22 6 22 18
0 10 11 29 24 41 21 20 38 24 113 27 90 4 143 18 143 38 0 34 -88 136 -118
136 -7 0 -24 11 -37 25 -21 20 -25 34 -25 85 0 34 -4 59 -9 56 -4 -3 -16 3
-26 14 -17 19 -17 20 -1 20 9 0 14 5 11 10 -7 12 -34 12 -55 0z m0 -39 c0 -8
-80 -22 -89 -15 -7 6 43 23 67 23 12 1 22 -3 22 -8z m-53 -107 c-3 -3 -12 -4
-19 -1 -8 3 -5 6 6 6 11 1 17 -2 13 -5z m51 -49 c-2 -36 -11 -44 -25 -22 -15
24 -10 57 9 57 15 0 18 -7 16 -35z m-63 -4 c3 -5 1 -12 -5 -16 -5 -3 -10 1
-10 9 0 18 6 21 15 7z m155 -53 c0 -5 -8 -8 -17 -8 -14 0 -15 -2 -4 -9 11 -7
10 -14 -5 -40 -10 -17 -21 -31 -24 -31 -4 0 -12 17 -18 37 -9 30 -9 40 3 53 8
9 15 22 15 29 0 13 49 -18 50 -31z m45 -390 c-4 -24 -13 -50 -21 -58 -12 -12
-14 -10 -14 17 0 40 16 83 31 83 7 0 9 -14 4 -42z m117 -57 c25 -24 26 -30 18
-66 -5 -22 -7 -57 -5 -78 2 -20 0 -35 -4 -32 -4 2 -14 -6 -21 -20 -7 -14 -18
-21 -27 -18 -8 3 -13 0 -11 -8 2 -8 -7 -15 -19 -17 -29 -4 -31 23 -3 38 23 12
26 35 7 47 -15 9 -30 53 -18 53 4 0 14 12 21 26 13 24 12 27 -10 45 l-25 19
24 0 c19 0 21 3 11 15 -6 8 -9 19 -6 24 9 14 35 2 68 -28z m493 -20 l14 -29
-49 0 -50 0 28 33 c30 36 36 36 57 -4z m-615 -40 c0 -11 -5 -23 -11 -26 -6 -4
-8 -14 -5 -22 4 -9 1 -13 -6 -11 -18 6 -22 45 -6 62 18 21 28 20 28 -3z m270
9 c0 -5 -7 -10 -16 -10 -8 0 -12 5 -9 10 3 6 10 10 16 10 5 0 9 -4 9 -10z
m-263 -96 c-3 -3 -12 -4 -19 -1 -8 3 -5 6 6 6 11 1 17 -2 13 -5z m20 -30 c-3
-3 -12 -4 -19 -1 -8 3 -5 6 6 6 11 1 17 -2 13 -5z m1298 -94 c-3 -5 -15 -10
-26 -10 -10 0 -19 5 -19 10 0 6 12 10 26 10 14 0 23 -4 19 -10z m-945 -29 c5
-11 10 -22 10 -25 0 -10 -54 -6 -70 4 -13 9 -12 12 4 25 27 20 43 19 56 -4z
m78 -495 c2 -28 0 -37 -10 -34 -7 3 -14 21 -15 42 -3 51 21 43 25 -8z"/>
<path d="M5873 3658 c-68 -49 -109 -145 -100 -234 7 -64 52 -157 74 -152 34 7
36 32 9 91 -29 65 -34 137 -11 177 8 14 14 35 15 47 0 12 14 38 31 58 36 40
28 45 -18 13z"/>
<path d="M5425 3645 c-22 -8 -53 -16 -68 -20 -22 -4 -27 -10 -22 -23 4 -9 9
-44 12 -76 5 -50 8 -56 18 -42 11 14 14 15 25 1 21 -25 30 -17 14 13 -7 15
-14 35 -14 45 0 10 -7 20 -15 23 -21 8 -19 24 3 24 9 0 34 9 55 20 44 24 85
26 115 4 31 -22 28 0 -4 25 -30 23 -60 25 -119 6z"/>
<path d="M7428 3623 c7 -3 16 -2 19 1 4 3 -2 6 -13 5 -11 0 -14 -3 -6 -6z"/>
<path d="M5148 3606 c-10 -7 -18 -20 -18 -29 0 -14 3 -14 27 -2 27 14 78 10
101 -8 19 -15 14 -35 -9 -42 -15 -5 -18 -10 -10 -18 15 -15 14 -27 -4 -27 -8
0 -15 -4 -15 -10 0 -5 7 -10 16 -10 13 0 15 -6 10 -27 -12 -53 -18 -150 -10
-156 5 -2 10 18 10 47 1 28 11 76 22 107 19 55 18 101 -2 150 -15 35 -86 50
-118 25z"/>
<path d="M6725 3585 c-41 -21 -55 -43 -55 -82 0 -33 0 -33 28 -19 15 8 36 23
46 35 22 24 36 19 36 -13 0 -13 9 -31 20 -41 18 -16 20 -16 26 -1 3 9 12 16
19 16 19 0 25 -26 10 -46 -15 -21 -9 -44 10 -44 8 0 17 -9 20 -20 7 -22 21
-26 27 -8 3 8 18 7 54 -6 27 -10 62 -20 79 -23 27 -5 29 -4 16 11 -7 9 -19 16
-25 16 -12 0 -89 37 -123 60 -15 10 -23 25 -23 43 0 15 -4 26 -9 22 -6 -3 -13
10 -17 30 -14 78 -69 105 -139 70z"/>
<path d="M5226 3546 c21 -15 30 -14 19 3 -3 6 -14 11 -23 11 -13 0 -13 -2 4
-14z"/>
<path d="M5422 3508 c7 -19 38 -22 38 -4 0 10 -9 16 -21 16 -12 0 -19 -5 -17
-12z"/>
<path d="M5180 3500 c0 -5 7 -10 15 -10 8 0 15 5 15 10 0 6 -7 10 -15 10 -8 0
-15 -4 -15 -10z"/>
<path d="M6542 3465 c0 -16 2 -22 5 -12 2 9 2 23 0 30 -3 6 -5 -1 -5 -18z"/>
<path d="M2065 3443 c4 -10 11 -33 17 -50 10 -38 33 -46 24 -8 -12 47 -26 75
-37 75 -7 0 -8 -7 -4 -17z"/>
<path d="M6241 3436 c-22 -24 -23 -26 -5 -25 22 1 65 17 47 18 -6 1 -13 8 -15
17 -2 13 -8 11 -27 -10z"/>
<path d="M6700 3428 c0 -7 5 -20 10 -28 8 -12 10 -11 10 7 0 12 -4 25 -10 28
-5 3 -10 0 -10 -7z"/>
<path d="M7720 3421 c0 -12 56 -34 72 -28 7 3 3 6 -8 6 -12 1 -27 8 -34 16
-14 17 -30 20 -30 6z"/>
<path d="M3741 3350 c-50 -23 -51 -34 -2 -20 43 12 88 2 106 -24 20 -28 19
-39 -5 -31 -14 5 -20 2 -20 -10 0 -12 7 -14 28 -9 l27 5 -22 -19 c-13 -11 -23
-24 -23 -29 0 -8 9 -9 52 -4 4 1 10 17 14 36 3 19 10 38 15 41 21 13 6 36 -37
54 -70 31 -86 32 -133 10z"/>
<path d="M6731 3350 c9 -13 22 -26 30 -29 11 -3 10 1 -2 19 -9 13 -22 26 -30
29 -11 3 -10 -1 2 -19z"/>
<path d="M2315 3339 c-6 -9 23 -24 73 -35 37 -9 18 10 -30 29 -22 10 -40 12
-43 6z"/>
<path d="M5400 3339 c0 -13 29 -43 36 -36 7 6 -18 47 -28 47 -5 0 -8 -5 -8
-11z"/>
<path d="M7760 3340 c0 -5 5 -10 10 -10 6 0 10 5 10 10 0 6 -4 10 -10 10 -5 0
-10 -4 -10 -10z"/>
<path d="M2100 3333 c-30 -11 -50 -37 -50 -65 0 -15 -4 -28 -10 -28 -10 0 -14
18 -10 58 1 18 -4 22 -28 22 -52 0 -89 -75 -42 -87 11 -3 20 -14 20 -25 0 -12
4 -17 12 -12 7 4 8 3 4 -5 -4 -6 0 -14 11 -18 10 -3 28 -14 40 -23 11 -9 46
-22 76 -29 51 -13 56 -12 75 7 29 29 36 73 18 116 -11 27 -19 34 -32 29 -11
-4 -15 -3 -10 5 3 6 2 13 -3 16 -5 4 -12 -2 -14 -11 -4 -14 -5 -13 -6 5 0 12
-1 25 0 28 1 7 -22 24 -31 23 -3 0 -12 -3 -20 -6z m-80 -77 c0 -7 11 -25 25
-40 37 -39 84 -34 106 13 21 45 34 23 15 -24 -14 -33 -18 -35 -59 -35 -35 0
-50 6 -76 30 -30 29 -42 70 -21 70 6 0 10 -6 10 -14z"/>
<path d="M4047 3334 c-3 -4 -21 -9 -39 -13 -30 -6 -33 -11 -35 -44 -1 -21 2
-47 7 -60 8 -19 9 -17 9 14 1 42 30 74 79 84 18 4 30 11 26 16 -6 10 -37 12
-47 3z"/>
<path d="M2263 3314 c-3 -8 -1 -20 6 -27 8 -8 11 -4 11 16 0 30 -7 35 -17 11z"/>
<path d="M7730 3311 c0 -5 7 -12 16 -15 24 -9 28 -7 14 9 -14 17 -30 20 -30 6z"/>
<path d="M1835 3300 c-3 -5 -1 -10 4 -10 6 0 11 5 11 10 0 6 -2 10 -4 10 -3 0
-8 -4 -11 -10z"/>
<path d="M7710 3285 c7 -9 15 -13 17 -11 7 7 -7 26 -19 26 -6 0 -6 -6 2 -15z"/>
<path d="M763 3248 c-28 -57 -54 -151 -44 -161 4 -4 11 7 14 26 3 19 19 64 36
100 33 71 35 77 23 77 -4 0 -17 -19 -29 -42z"/>
<path d="M3260 3286 c0 -2 7 -7 16 -10 8 -3 12 -2 9 4 -6 10 -25 14 -25 6z"/>
<path d="M3434 3253 c-21 -21 -33 -41 -30 -50 3 -8 6 -19 6 -24 0 -6 17 -8 43
-4 23 3 59 7 79 8 35 2 38 4 38 33 0 41 -18 61 -63 67 -33 5 -42 2 -73 -30z"/>
<path d="M7670 3285 c0 -4 12 -18 26 -32 19 -18 25 -20 22 -7 -3 17 -48 53
-48 39z"/>
<path d="M1758 3264 c-45 -24 -35 -40 29 -47 32 -3 59 -5 61 -3 2 3 -57 67
-61 66 -1 -1 -14 -8 -29 -16z"/>
<path d="M5300 3260 c0 -11 5 -20 10 -20 6 0 10 9 10 20 0 11 -4 20 -10 20 -5
0 -10 -9 -10 -20z"/>
<path d="M7650 3262 c0 -12 19 -26 26 -19 2 2 -2 10 -11 17 -9 8 -15 8 -15 2z"/>
<path d="M4026 3242 c15 -15 23 -16 37 -8 16 10 16 12 -5 18 -44 12 -53 9 -32
-10z"/>
<path d="M2375 3222 c50 -29 95 -47 95 -39 0 9 -87 54 -116 61 -22 5 -16 -1
21 -22z"/>
<path d="M5490 3233 c-63 -16 -90 -38 -115 -94 -12 -25 -25 -39 -37 -39 -11 0
-16 -4 -13 -10 3 -5 -1 -10 -9 -10 -9 0 -16 5 -16 10 0 6 -7 10 -15 10 -24 0
-17 -20 10 -30 28 -11 33 -41 10 -64 -8 -8 -15 -19 -15 -25 0 -14 17 -14 25
-1 3 6 15 10 26 10 10 0 19 5 19 10 0 6 4 10 10 10 5 0 7 -12 4 -28 -5 -23 0
-30 35 -52 22 -14 39 -31 36 -38 -8 -23 14 -62 35 -62 24 0 26 13 4 35 -36 36
-2 24 52 -19 32 -25 60 -43 63 -40 3 2 -12 22 -33 43 -33 34 -37 44 -32 68 4
15 15 37 25 48 26 29 35 59 16 51 -8 -3 -15 -1 -15 4 0 6 4 10 8 10 13 0 82
96 82 115 0 14 -3 15 -14 6 -11 -9 -15 -5 -20 19 -7 37 -31 64 -51 57 -7 -3
-15 0 -17 7 -2 11 -13 11 -58 -1z m46 -140 c-10 -10 -19 5 -10 18 6 11 8 11
12 0 2 -7 1 -15 -2 -18z m-46 -63 c0 -5 -4 -10 -9 -10 -6 0 -13 5 -16 10 -3 6
1 10 9 10 9 0 16 -4 16 -10z"/>
<path d="M7625 3230 c10 -11 22 -17 27 -14 5 3 1 12 -9 20 -27 20 -39 17 -18
-6z"/>
<path d="M1623 3233 c9 -2 23 -2 30 0 6 3 -1 5 -18 5 -16 0 -22 -2 -12 -5z"/>
<path d="M5986 3225 c4 -8 8 -15 10 -15 2 0 4 7 4 15 0 8 -4 15 -10 15 -5 0
-7 -7 -4 -15z"/>
<path d="M4081 3194 c-26 -26 -26 -24 -19 -224 4 -94 11 -125 28 -115 16 10
59 -25 86 -69 14 -22 23 -31 19 -18 -3 12 -7 32 -9 45 -1 13 -10 34 -19 47
-19 27 -21 40 -9 40 5 0 16 -16 25 -35 12 -26 23 -35 42 -35 33 0 41 -35 21
-85 -9 -21 -14 -40 -11 -43 8 -9 35 66 35 99 0 18 7 37 15 43 8 6 16 24 18 39
2 16 9 32 15 36 10 6 10 15 2 35 -16 43 -12 78 15 121 14 22 25 43 25 47 0 12
-52 68 -74 80 -21 11 -21 11 -2 -11 23 -26 12 -27 -59 -6 -27 9 -66 13 -86 11
-30 -4 -37 -2 -32 10 7 19 3 17 -26 -12z m243 -42 c2 -4 -4 -8 -14 -8 -10 0
-16 4 -14 8 3 4 9 8 14 8 5 0 11 -4 14 -8z m-204 -168 c0 -8 -4 -12 -10 -9 -5
3 -10 13 -10 21 0 8 5 12 10 9 6 -3 10 -13 10 -21z m179 -18 c17 -20 3 -46
-25 -46 -26 0 -33 27 -12 48 15 15 23 15 37 -2z"/>
<path d="M7590 3212 c0 -12 19 -26 26 -19 2 2 -2 10 -11 17 -9 8 -15 8 -15 2z"/>
<path d="M7683 3137 c-98 -80 -132 -115 -75 -79 77 48 192 137 192 149 0 7 -3
13 -7 12 -5 0 -54 -38 -110 -82z"/>
<path d="M5258 3203 c-24 -6 -23 -21 4 -43 22 -17 22 -17 35 7 19 38 8 48 -39
36z"/>
<path d="M1950 3188 c0 -9 5 -20 11 -23 17 -11 20 0 4 21 -13 17 -14 17 -15 2z"/>
<path d="M1466 3183 c-11 -11 -6 -23 9 -23 8 0 15 4 15 9 0 13 -16 22 -24 14z"/>
<path d="M2300 3178 c0 -27 20 -73 28 -62 4 6 15 10 24 8 10 -1 20 2 24 7 3 5
-6 9 -20 9 -14 0 -26 4 -26 8 0 5 -7 17 -15 28 -12 17 -14 17 -15 2z"/>
<path d="M3191 3138 c0 -18 4 -42 9 -53 6 -14 8 -4 7 32 -1 29 -5 53 -9 53 -5
0 -8 -15 -7 -32z"/>
<path d="M3882 3125 c-25 -51 -27 -65 -11 -65 5 0 7 5 4 10 -4 6 7 23 24 39
32 30 41 61 18 61 -7 0 -23 -20 -35 -45z"/>
<path d="M6940 3149 c0 -18 -13 -35 -45 -59 -38 -29 -43 -35 -28 -41 10 -3 20
-2 21 2 2 5 10 9 18 9 9 0 13 4 10 8 -3 5 14 9 36 10 49 2 70 17 39 27 -12 3
-21 12 -21 19 0 7 -7 21 -15 32 -14 18 -14 18 -15 -7z"/>
<path d="M3511 3124 c0 -11 3 -14 6 -6 3 7 2 16 -1 19 -3 4 -6 -2 -5 -13z"/>
<path d="M2010 3120 c0 -5 5 -10 11 -10 5 0 7 5 4 10 -3 6 -8 10 -11 10 -2 0
-4 -4 -4 -10z"/>
<path d="M4790 3116 c0 -2 7 -7 16 -10 8 -3 12 -2 9 4 -6 10 -25 14 -25 6z"/>
<path d="M2000 3088 c0 -9 7 -19 16 -22 25 -10 27 -1 4 19 -17 15 -20 16 -20
3z"/>
<path d="M3255 3067 c-20 -49 -20 -82 1 -44 8 15 22 27 31 27 13 0 14 2 2 17
-8 9 -12 18 -11 20 2 3 1 7 -2 10 -3 4 -13 -10 -21 -30z"/>
<path d="M5204 3067 c0 -18 -4 -40 -8 -49 -5 -11 -4 -18 3 -18 6 0 11 8 11 18
0 10 5 23 11 29 8 8 8 17 -3 32 -14 20 -14 19 -14 -12z"/>
<path d="M7754 3076 c-22 -17 -15 -28 21 -32 21 -2 25 2 25 22 0 27 -17 31
-46 10z"/>
<path d="M5825 3070 c-8 -13 -1 -24 14 -19 6 3 7 10 2 18 -6 10 -10 10 -16 1z"/>
<path d="M7650 3054 c-30 -13 -63 -22 -72 -20 -10 2 -18 -1 -18 -6 0 -6 -8
-17 -17 -24 -16 -12 -14 -13 12 -3 31 11 147 60 154 66 2 2 2 5 0 7 -2 1 -29
-7 -59 -20z"/>
<path d="M4624 3041 c4 -6 16 -16 28 -22 15 -8 18 -8 14 0 -4 6 -16 16 -28 22
-15 8 -18 8 -14 0z"/>
<path d="M6547 3023 c-4 -3 -7 -16 -6 -27 0 -19 1 -19 10 3 10 24 8 36 -4 24z"/>
<path d="M3950 3000 c0 -5 5 -10 10 -10 6 0 10 5 10 10 0 6 -4 10 -10 10 -5 0
-10 -4 -10 -10z"/>
<path d="M3328 2973 c-42 -17 -55 -52 -45 -124 4 -29 1 -42 -9 -46 -22 -8 -18
-17 38 -84 29 -34 46 -58 38 -53 -56 34 -100 68 -100 77 0 6 -3 7 -7 4 -3 -4
-11 3 -17 15 -14 27 -34 35 -32 11 0 -10 -8 -22 -20 -27 -14 -6 -21 -19 -21
-40 -1 -17 -3 -55 -6 -83 -3 -29 -1 -53 4 -53 5 0 9 13 9 29 0 49 21 55 84 24
31 -15 56 -33 56 -39 0 -16 -41 -48 -82 -64 -60 -22 -98 -44 -98 -57 0 -16 54
-53 77 -53 11 0 35 17 54 39 19 21 48 45 64 54 17 8 46 32 65 51 30 32 33 39
22 56 -16 27 -15 35 3 20 13 -10 15 -9 16 11 4 81 7 102 19 109 8 5 18 6 22 4
4 -3 8 0 8 5 0 6 -7 11 -15 11 -22 0 -21 112 0 130 10 8 19 10 25 4 14 -14 14
-177 0 -257 -13 -74 -13 -75 42 -106 52 -29 88 -14 88 37 0 15 -5 22 -12 19
-7 -2 -12 -12 -12 -21 3 -26 -12 -19 -45 23 -55 69 -37 182 25 167 34 -9 32
21 -1 34 -14 5 -28 16 -31 23 -7 18 24 89 36 82 14 -9 12 18 -3 39 -11 16 -18
17 -53 7 -68 -19 -109 -14 -124 14 -15 28 -13 28 -62 8z"/>
<path d="M4707 2984 c-4 -4 -7 -22 -7 -40 0 -36 -24 -93 -59 -142 -13 -18 -21
-35 -19 -38 3 -2 11 7 18 21 7 14 18 25 24 25 24 1 76 78 76 112 0 36 -20 74
-33 62z m23 -98 c0 -3 -4 -8 -10 -11 -5 -3 -10 -1 -10 4 0 6 5 11 10 11 6 0
10 -2 10 -4z"/>
<path d="M3250 2970 c0 -5 5 -10 11 -10 5 0 7 5 4 10 -3 6 -8 10 -11 10 -2 0
-4 -4 -4 -10z"/>
<path d="M6566 2971 c-4 -7 -5 -15 -2 -18 9 -9 19 4 14 18 -4 11 -6 11 -12 0z"/>
<path d="M3428 2963 c7 -3 16 -2 19 1 4 3 -2 6 -13 5 -11 0 -14 -3 -6 -6z"/>
<path d="M4863 2955 c-3 -9 -3 -18 -1 -21 3 -3 8 4 11 16 6 23 -1 27 -10 5z"/>
<path d="M3900 2949 c-14 -6 -37 -8 -52 -5 -15 3 -30 1 -33 -4 -4 -6 24 -10
70 -10 57 0 76 3 73 13 -6 16 -27 18 -58 6z"/>
<path d="M4000 2950 c0 -5 7 -10 15 -10 8 0 15 5 15 10 0 6 -7 10 -15 10 -8 0
-15 -4 -15 -10z"/>
<path d="M4560 2916 l-54 -34 -33 29 c-19 16 -39 29 -46 29 -6 0 -1 -7 12 -16
13 -9 28 -29 35 -45 l12 -28 62 40 c53 35 82 59 70 59 -2 0 -28 -15 -58 -34z"/>
<path d="M5983 2925 c-7 -8 -13 -32 -13 -54 0 -40 -1 -41 -39 -47 l-39 -6 -4
-72 c-2 -39 -3 -73 -1 -75 3 -5 73 51 73 59 0 4 -9 10 -20 13 -28 7 -25 25 4
20 18 -4 28 2 42 26 10 17 22 31 26 31 11 0 9 38 -5 82 -10 30 -14 34 -24 23z"/>
<path d="M7270 2937 c0 -14 50 -87 60 -87 20 0 9 27 -25 60 -19 19 -35 31 -35
27z"/>
<path d="M4849 2898 c-4 -19 2 -40 24 -74 26 -43 28 -52 19 -79 l-12 -30 20
25 c24 30 19 64 -15 100 -13 14 -25 39 -27 55 l-3 30 -6 -27z"/>
<path d="M5808 2908 c-4 -10 -18 -19 -30 -19 -19 -1 -18 -3 7 -9 17 -4 44 -8
60 -8 l30 0 -27 9 c-15 6 -28 18 -30 27 -3 16 -4 16 -10 0z"/>
<path d="M3972 2880 c-7 -11 -17 -20 -23 -20 -16 0 -69 -47 -62 -54 4 -3 15
-6 25 -6 22 0 24 -28 2 -37 -9 -3 -37 -1 -62 5 -26 6 -49 9 -51 7 -2 -2 11
-19 28 -37 17 -18 31 -36 31 -40 0 -4 7 -5 15 -2 20 8 19 5 -8 -47 -27 -50
-39 -101 -30 -125 4 -12 8 -13 14 -3 6 10 11 10 24 -1 15 -12 19 -11 36 10 21
28 24 24 9 -14 -9 -24 -8 -25 22 -19 21 4 29 3 24 -5 -13 -22 13 -22 28 0 l16
22 0 -25 c0 -22 4 -26 30 -26 17 0 32 -2 35 -4 6 -7 -31 -128 -55 -174 -21
-41 -29 -87 -9 -52 5 9 17 17 24 17 9 0 15 10 15 26 0 14 4 34 10 44 5 10 13
42 17 70 5 28 13 50 18 50 15 -1 6 -102 -10 -120 -7 -8 -17 -27 -20 -43 -6
-21 -4 -26 7 -22 15 6 35 67 42 125 2 19 7 51 11 71 4 21 2 45 -4 56 -9 18
-71 55 -114 67 -15 5 -17 13 -12 58 4 29 14 75 22 101 14 44 13 50 -1 66 -18
20 -21 38 -6 43 7 2 6 13 -2 30 -15 33 -19 34 -36 8z"/>
<path d="M5338 2893 c6 -2 18 -2 25 0 6 3 1 5 -13 5 -14 0 -19 -2 -12 -5z"/>
<path d="M3923 2883 c9 -2 23 -2 30 0 6 3 -1 5 -18 5 -16 0 -22 -2 -12 -5z"/>
<path d="M5005 2874 c-17 -13 -18 -16 -5 -24 23 -15 34 -12 20 5 -10 12 -10
15 3 15 9 0 19 5 22 10 9 15 -17 11 -40 -6z"/>
<path d="M5302 2860 c-24 -23 -27 -35 -12 -45 6 -3 13 2 17 12 4 10 11 21 16
24 5 4 8 12 6 18 -3 8 -12 4 -27 -9z"/>
<path d="M5376 2863 c11 -26 7 -70 -11 -105 -14 -30 -21 -78 -10 -78 10 0 65
60 65 70 0 6 0 13 0 18 0 4 -4 8 -10 8 -22 3 -24 4 -12 16 23 23 12 88 -15 88
-11 0 -13 -5 -7 -17z"/>
<path d="M7600 2861 c0 -14 18 -23 31 -15 8 4 7 9 -2 15 -18 11 -29 11 -29 0z"/>
<path d="M4374 2816 c1 -35 -3 -46 -16 -50 -27 -6 -25 -66 2 -66 24 0 43 -34
35 -60 -8 -26 -32 -26 -40 0 -10 33 -22 23 -29 -25 -5 -27 -12 -45 -20 -45
-13 0 -42 -87 -32 -97 2 -3 13 0 24 6 12 6 31 11 44 11 15 0 48 23 91 63 55
51 67 68 67 94 0 24 7 37 29 52 16 12 33 21 39 21 5 0 15 7 22 15 11 13 7 15
-22 15 -24 0 -42 -8 -58 -25 -13 -14 -26 -25 -30 -25 -3 0 -25 36 -49 80 -23
44 -46 80 -51 80 -4 0 -7 -20 -6 -44z"/>
<path d="M5145 2850 c-11 -5 -36 -9 -54 -9 -56 -1 -22 -22 40 -25 51 -3 54 -2
55 20 2 25 -8 28 -41 14z"/>
<path d="M5510 2820 c0 -5 4 -10 9 -10 5 0 22 -20 38 -45 20 -32 35 -45 51
-45 16 0 22 6 22 23 0 12 -5 29 -11 37 -8 11 -9 7 -5 -17 8 -49 -15 -42 -55
17 -33 48 -49 61 -49 40z"/>
<path d="M2840 2794 c-13 -34 -13 -37 7 -79 23 -48 33 -44 21 8 -5 23 -8 54
-5 70 5 34 -10 35 -23 1z"/>
<path d="M2510 2775 c0 -16 6 -25 15 -25 9 0 15 9 15 25 0 16 -6 25 -15 25 -9
0 -15 -9 -15 -25z"/>
<path d="M2570 2760 c0 -5 7 -10 15 -10 8 0 15 5 15 10 0 6 -7 10 -15 10 -8 0
-15 -4 -15 -10z"/>
<path d="M5244 2748 c-11 -33 -11 -68 -1 -68 5 0 5 -40 2 -89 -6 -77 -5 -93
11 -120 15 -25 16 -35 7 -50 -9 -14 -8 -23 3 -39 14 -21 4 -39 -16 -27 -5 3
-14 -14 -20 -37 -6 -24 -18 -63 -25 -87 -18 -54 -18 -51 -3 -51 6 0 22 10 35
22 13 13 23 16 23 9 0 -13 -31 -44 -94 -94 -39 -32 -44 -42 -21 -50 13 -6 26
4 100 74 12 10 26 19 32 19 6 0 13 7 17 15 7 19 80 21 73 3 -2 -7 -11 -12 -21
-10 -20 4 -21 -11 -1 -28 8 -7 26 -9 44 -5 30 6 31 6 25 -24 -8 -38 3 -39 34
-3 20 23 21 24 8 2 -17 -27 -21 -55 -7 -46 5 4 25 34 44 69 45 80 108 149 126
138 8 -5 10 -14 7 -20 -4 -6 -2 -11 3 -11 6 0 11 4 11 9 0 5 8 12 18 14 13 4
11 5 -5 6 -19 1 -23 7 -23 35 0 19 5 38 10 41 6 3 10 12 10 20 0 9 -17 13 -60
14 -34 0 -69 5 -78 11 -13 9 3 10 61 6 42 -3 77 -2 77 2 0 12 -60 32 -76 25
-9 -3 -14 2 -14 15 0 25 -18 40 -58 48 -18 4 -52 24 -77 46 -25 22 -45 35 -45
29 0 -6 5 -11 10 -11 6 0 10 -6 10 -14 0 -8 14 -23 32 -34 l31 -20 -54 -10
c-30 -5 -44 -10 -32 -11 12 0 25 -5 28 -11 10 -17 -18 -11 -53 10 -28 18 -32
24 -27 52 3 18 8 50 11 70 7 40 -15 112 -48 161 -23 33 -34 34 -44 5z m246
-348 c0 -5 -9 -10 -20 -10 -11 0 -20 5 -20 10 0 6 9 10 20 10 11 0 20 -4 20
-10z m40 -115 c0 -10 -10 -15 -29 -15 -46 0 -64 -10 -50 -26 19 -23 -61 -18
-91 6 -14 11 -33 20 -42 20 -10 0 -18 3 -18 8 0 4 38 6 85 4 47 -2 92 1 102 7
26 15 43 13 43 -4z"/>
<path d="M4201 2714 c0 -11 3 -14 6 -6 3 7 2 16 -1 19 -3 4 -6 -2 -5 -13z"/>
<path d="M2543 2688 c2 -7 10 -13 17 -13 7 0 15 6 18 13 2 7 -5 12 -18 12 -13
0 -20 -5 -17 -12z"/>
<path d="M5607 2693 c-9 -2 -15 -9 -12 -14 9 -14 22 -11 29 6 3 8 4 14 3 14
-1 -1 -10 -3 -20 -6z"/>
<path d="M6006 2685 c-3 -8 -2 -15 3 -15 5 0 14 7 21 15 10 12 10 15 -3 15 -8
0 -17 -7 -21 -15z"/>
<path d="M4200 2675 c-10 -12 -10 -19 -2 -27 7 -7 12 -23 12 -36 0 -15 5 -22
13 -19 6 2 11 12 9 21 -2 10 2 23 8 30 12 16 3 46 -15 46 -7 0 -18 -7 -25 -15z"/>
<path d="M6025 2660 c-4 -6 -14 -9 -22 -6 -8 3 -12 2 -9 -3 12 -18 -43 -41
-96 -40 -90 2 -123 -2 -109 -10 7 -5 50 -8 96 -9 81 0 86 1 122 33 21 18 35
36 32 40 -4 3 -10 1 -14 -5z"/>
<path d="M1680 2641 c-20 -38 -12 -78 21 -105 17 -14 37 -26 45 -26 18 0 18
25 -1 44 -8 8 -15 28 -15 44 0 60 -28 83 -50 43z"/>
<path d="M2724 2633 c-31 -50 -58 -74 -121 -109 -78 -44 -94 -61 -70 -79 15
-11 30 -10 86 5 102 26 162 78 174 152 4 28 2 37 -11 42 -9 3 -22 9 -29 12 -6
3 -20 -7 -29 -23z"/>
<path d="M5915 2640 c-4 -7 3 -8 22 -4 38 9 42 14 10 14 -14 0 -29 -5 -32 -10z"/>
<path d="M5670 2600 c8 -5 20 -10 25 -10 6 0 3 5 -5 10 -8 5 -19 10 -25 10 -5
0 -3 -5 5 -10z"/>
<path d="M2935 2590 c-3 -5 -1 -10 4 -10 6 0 11 5 11 10 0 6 -2 10 -4 10 -3 0
-8 -4 -11 -10z"/>
<path d="M2258 2585 c-8 -8 3 -65 13 -65 5 0 9 7 9 15 0 9 7 18 16 22 15 6 15
8 -2 20 -19 14 -28 16 -36 8z"/>
<path d="M2903 2540 c2 -34 6 -46 20 -48 10 -2 17 3 17 12 0 9 -4 16 -9 16 -4
0 -13 15 -19 33 -11 32 -11 32 -9 -13z"/>
<path d="M2167 2514 c-3 -4 1 -17 9 -29 15 -23 12 -59 -8 -102 -16 -33 7 -86
32 -73 23 12 30 4 30 -39 0 -33 30 -175 35 -169 15 18 46 141 49 191 5 83 9
89 47 70 40 -20 46 -39 25 -74 -21 -36 -3 -40 38 -8 26 20 29 20 44 5 15 -14
15 -20 1 -58 -11 -30 -22 -44 -37 -46 -28 -4 -28 1 3 32 14 14 25 31 25 38 -1
7 -9 3 -19 -9 -12 -15 -30 -23 -50 -23 -24 0 -34 -7 -46 -30 -9 -16 -20 -30
-26 -30 -6 0 -7 -5 -3 -11 3 -6 -8 -26 -26 -44 l-33 -34 33 -31 32 -30 -28 0
c-16 1 -40 7 -54 15 -14 8 -49 14 -77 15 -29 0 -53 5 -53 10 0 6 -4 10 -10 10
-5 0 -10 -7 -10 -15 0 -9 -7 -18 -15 -21 -8 -4 -15 -12 -15 -20 0 -18 -4 -17
-40 1 -34 18 -44 8 -27 -26 18 -34 60 -37 106 -5 20 14 52 28 71 31 31 6 33 5
15 -6 -19 -12 -19 -13 8 -20 63 -17 165 17 167 54 0 5 21 31 46 58 48 50 57
63 94 134 25 50 24 94 -2 87 -10 -2 -32 8 -50 22 -18 14 -38 30 -43 34 -6 5
-33 17 -60 28 -30 11 -72 40 -104 71 -55 53 -63 58 -74 47z m144 -129 c0 -5
-8 -12 -18 -14 -10 -1 -26 -10 -35 -19 -21 -18 -24 -2 -7 29 11 21 59 24 60 4z
m75 -291 c-9 -9 -20 -13 -24 -9 -4 4 -1 10 6 12 6 3 12 12 12 21 0 12 3 13 11
5 9 -9 7 -16 -5 -29z"/>
<path d="M3794 2507 c-8 -21 -3 -29 13 -19 8 5 9 13 3 22 -7 12 -10 12 -16 -3z"/>
<path d="M2037 2464 c-4 -25 -1 -44 10 -60 13 -20 14 -30 4 -50 -14 -32 -16
-25 20 -65 l32 -34 -7 63 c-3 35 -11 72 -17 84 -6 12 -8 37 -5 59 5 34 4 39
-13 39 -13 0 -20 -10 -24 -36z"/>
<path d="M4311 2416 c-11 -45 -15 -93 -6 -85 2 3 11 33 19 67 16 70 4 86 -13
18z"/>
<path d="M3996 2434 c-4 -9 -4 -19 -1 -22 2 -3 7 3 11 12 4 9 4 19 1 22 -2 3
-7 -3 -11 -12z"/>
<path d="M2697 2413 l-109 -4 41 -44 c42 -46 51 -65 28 -65 -31 0 -206 -220
-207 -259 0 -25 -79 -90 -123 -103 -23 -6 -43 -13 -45 -14 -2 -1 4 -16 12 -32
9 -17 13 -38 10 -46 -3 -8 6 -30 20 -49 31 -41 59 -114 45 -122 -5 -4 -9 -18
-9 -33 0 -36 -16 -18 -43 49 -31 77 -62 117 -78 102 -15 -15 9 -94 52 -171 33
-58 74 -182 85 -252 4 -25 13 -57 20 -72 20 -38 41 -105 55 -166 7 -34 17 -55
27 -58 10 -3 25 -10 35 -15 12 -6 36 -5 75 5 51 14 62 14 102 0 44 -15 45 -15
63 8 10 13 25 31 33 41 7 9 14 21 14 26 0 5 6 11 13 14 6 2 9 8 5 12 -4 4 -14
0 -23 -9 -18 -18 -121 -24 -110 -6 3 6 12 10 18 10 7 0 20 8 28 18 15 18 13
19 -43 16 -35 -2 -56 1 -53 6 4 6 31 10 61 10 30 0 62 5 72 11 12 8 36 9 66 5
40 -6 46 -10 41 -27 -4 -13 -2 -19 9 -19 8 0 18 -5 22 -12 5 -8 -2 -9 -23 -5
-25 5 -34 1 -52 -24 -25 -33 -21 -36 15 -13 17 11 37 15 64 11 22 -3 40 -1 40
4 0 5 -6 9 -12 10 -37 2 42 19 115 25 72 6 85 4 90 -10 4 -9 14 -16 23 -16 8
0 14 -6 11 -12 -2 -8 9 -18 27 -24 26 -9 30 -16 30 -42 -1 -18 3 -32 7 -32 5
0 9 -7 9 -15 0 -8 -9 -15 -20 -15 -13 0 -18 -5 -14 -15 4 -8 10 -15 14 -15 10
0 100 133 100 148 0 14 24 22 49 15 12 -3 21 -1 21 6 0 6 -10 11 -22 11 -18 0
-20 2 -9 9 8 5 20 7 27 4 6 -2 15 1 19 6 3 6 11 9 16 6 5 -4 13 4 18 17 6 13
10 18 10 12 1 -7 30 -10 91 -8 73 3 103 0 165 -20 41 -13 77 -20 80 -16 3 5
-6 10 -20 12 -43 5 -28 23 25 28 39 4 50 2 50 -8 0 -11 3 -12 14 -3 21 17 29
-14 9 -34 -8 -9 -12 -19 -9 -23 4 -3 18 7 32 23 l24 30 -6 -27 c-4 -19 -2 -29
7 -33 17 -6 468 -13 492 -7 11 3 17 14 17 34 0 17 4 27 10 23 6 -4 8 -29 4
-66 -3 -32 -3 -59 1 -59 13 0 50 23 58 37 7 11 19 13 48 8 21 -4 118 -7 215
-8 137 0 179 -3 190 -14 12 -12 14 -11 14 12 l0 26 -227 -2 c-157 0 -229 3
-231 10 -2 6 -12 11 -22 11 -31 0 -33 19 -3 32 22 9 24 12 11 15 -39 9 -15 20
35 16 28 -3 73 -4 100 -3 27 0 47 -3 47 -9 0 -6 17 -11 38 -11 21 0 43 -5 49
-11 14 -14 98 -30 118 -23 24 9 -14 42 -55 47 l-35 4 38 1 c22 1 45 -4 53 -13
8 -8 21 -12 28 -9 17 6 31 -12 16 -21 -22 -13 -9 -27 19 -22 29 6 30 5 47 -63
10 -39 22 -70 26 -70 12 0 10 28 -4 50 -11 16 -9 23 9 40 27 25 43 26 43 2 0
-14 15 -23 60 -37 39 -12 56 -21 48 -26 -7 -5 -13 -16 -13 -26 0 -14 -10 -19
-47 -21 -46 -3 -62 -15 -35 -25 6 -3 3 -6 -9 -6 -11 -1 -26 5 -33 11 -11 10
-13 10 -7 1 4 -8 2 -13 -6 -14 -7 0 -4 -4 7 -9 11 -5 14 -9 7 -9 -14 -1 -11
-51 8 -131 4 -19 11 -47 14 -62 6 -27 9 -28 67 -28 54 0 60 2 49 15 -14 17
-60 20 -60 4 0 -6 -9 -1 -19 12 -22 27 -17 43 10 36 10 -3 22 -1 25 4 3 5 0 9
-7 9 -6 0 -9 8 -6 20 3 11 1 18 -4 14 -5 -3 -9 -1 -9 3 0 5 -10 13 -21 18 -20
9 -25 34 -6 27 5 -1 6 2 3 7 -4 5 0 12 6 14 7 3 3 6 -10 6 -14 1 -22 6 -19 14
3 9 55 11 223 9 120 -1 228 -3 239 -3 63 -5 75 16 45 73 -11 22 -22 47 -24 56
-1 9 -6 25 -11 35 -4 10 -5 21 -1 24 3 4 6 0 6 -9 0 -8 9 -23 19 -32 11 -10
23 -31 26 -47 4 -16 11 -27 16 -23 14 8 11 44 -6 50 -11 5 -12 10 -2 25 11 17
12 17 18 2 4 -12 13 0 33 42 14 32 25 63 22 69 -3 9 -13 -10 -31 -61 -2 -7
-10 -13 -16 -13 -8 0 -9 10 -4 33 8 39 9 43 7 85 -1 22 -6 31 -13 26 -7 -4
-10 -1 -7 7 8 24 56 29 80 9 l23 -18 -27 -13 c-42 -19 -19 -35 44 -32 29 2 64
4 78 6 34 3 38 -29 10 -82 -11 -23 -16 -41 -12 -41 14 0 62 51 62 66 0 19 41
55 54 47 6 -4 5 1 -3 10 -8 10 -21 15 -32 12 -25 -8 -34 13 -13 36 22 24 30
24 37 -1 4 -15 13 -19 48 -17 24 0 49 6 54 13 6 6 28 14 49 17 l40 6 -37 -24
c-20 -14 -45 -25 -56 -25 -22 0 -61 -44 -61 -68 0 -14 1 -14 13 0 16 20 59 48
72 48 5 -1 1 -9 -10 -18 -11 -10 -29 -33 -39 -52 l-19 -35 25 23 26 24 100
-31 c105 -33 132 -37 132 -21 0 6 -10 10 -22 10 -25 1 -124 32 -158 50 -38 20
-15 20 41 0 59 -22 73 -24 65 -11 -3 5 -21 12 -40 15 -33 6 -72 36 -47 36 6 0
11 9 11 19 0 18 23 45 65 76 19 14 19 14 -11 15 -42 0 -61 22 -39 44 18 17 12
36 -10 36 -8 0 -17 5 -21 11 -9 15 63 3 92 -16 11 -7 32 -11 46 -8 20 4 24 9
20 25 -3 11 1 23 7 28 7 4 13 15 15 24 1 10 9 22 17 27 10 6 11 9 1 9 -9 0
-11 10 -7 33 4 21 1 47 -8 68 -12 29 -12 36 -1 47 8 7 14 18 14 24 0 6 -9 3
-19 -6 -19 -17 -20 -17 -33 3 -7 12 -18 21 -25 21 -7 0 -13 11 -13 25 0 16 -6
25 -16 25 -8 0 -12 -4 -9 -10 3 -5 -16 1 -42 14 -26 13 -55 26 -63 29 -10 3
-10 6 -2 6 7 1 29 -6 49 -14 20 -8 38 -13 41 -10 8 8 -64 35 -93 35 -14 0 -28
7 -31 15 -4 8 -12 15 -20 15 -8 0 -11 -6 -8 -15 9 -22 -9 -18 -23 4 -10 16 -9
24 6 43 10 13 26 38 35 56 17 33 17 34 -3 39 -20 5 -30 33 -13 33 5 0 14 19
21 41 11 37 10 46 -8 83 -11 22 -23 54 -26 70 -9 41 -18 24 -49 -89 -15 -56
-31 -107 -36 -115 -6 -10 -36 -15 -107 -18 -54 -2 -103 -5 -109 -7 -7 -2 -9
-19 -4 -51 4 -27 3 -61 -2 -77 -6 -15 -8 -30 -6 -32 6 -7 58 18 58 28 0 4 12
7 26 7 16 0 24 -5 21 -12 -2 -7 -12 -12 -21 -12 -9 1 -16 -2 -16 -7 0 -5 -6
-9 -13 -9 -17 0 -53 -39 -61 -66 -4 -12 -2 -40 3 -63 9 -43 2 -52 -19 -26 -8
9 -11 30 -7 55 3 22 1 40 -4 40 -5 0 -9 -9 -9 -19 0 -20 -56 -81 -74 -81 -9 0
-35 30 -36 42 0 3 18 9 40 13 22 4 40 11 40 16 0 11 -3 11 -34 -1 -16 -6 -27
-6 -31 0 -9 14 -45 -7 -40 -23 12 -30 -16 -38 -170 -49 -16 -2 -41 1 -55 5
-24 8 -24 7 -6 -7 22 -18 91 -22 101 -6 7 12 72 12 100 0 16 -7 13 -9 -16 -9
-19 -1 -58 -8 -86 -16 -57 -17 -81 -12 -184 40 -65 33 -63 31 -55 44 5 7 16 7
34 0 l27 -9 -24 18 -24 19 21 39 c23 42 42 107 42 139 -1 26 -33 -31 -56 -100
-25 -75 -52 -123 -75 -135 -26 -15 -77 -16 -90 -3 -10 10 12 64 64 159 21 38
97 114 114 114 9 0 27 10 39 21 21 20 26 21 61 8 21 -8 55 -13 75 -11 34 3 36
5 25 23 -15 23 -25 24 -49 2 -20 -18 -28 -15 -31 15 -1 18 -4 19 -22 9 -11 -6
-26 -10 -34 -8 -7 1 -26 -10 -42 -25 l-29 -28 -16 22 c-15 22 -17 22 -334 22
-270 0 -321 2 -334 15 -8 8 -19 15 -24 15 -6 0 -13 6 -16 13 -3 6 -4 -23 -3
-66 1 -42 -2 -77 -7 -77 -5 0 -3 -7 4 -15 10 -12 8 -16 -11 -24 -24 -10 -24
-10 4 -10 44 -1 31 -16 -25 -31 -57 -14 -624 -25 -645 -12 -14 9 6 81 22 83 5
1 -3 5 -20 9 -20 5 4 8 73 9 102 1 104 1 183 -40 70 -36 90 -42 148 -43 39 0
74 4 82 11 8 6 25 13 39 16 14 2 9 2 -10 0 -19 -2 -69 -6 -110 -9 -72 -4 -78
-3 -144 33 -70 38 -102 72 -55 58 23 -7 23 -6 5 7 -17 14 -18 18 -3 66 20 70
14 73 -65 30 -36 -19 -430 -26 -436 -8 -2 5 -12 10 -23 10 -17 0 -18 3 -9 21
13 23 14 22 -20 40 -33 17 -138 28 -144 14 -2 -5 -11 -1 -19 10 -14 19 -15 17
-22 -27 -4 -26 -18 -61 -31 -79 -19 -27 -21 -34 -9 -45 33 -33 86 -232 71
-269 -2 -7 -15 -15 -28 -18 -20 -4 -19 -4 5 -6 31 -1 28 -21 -3 -21 -10 0 -22
-5 -25 -11 -5 -7 5 -8 32 -3 21 4 35 3 30 -2 -19 -20 -88 -34 -162 -33 -93 2
-180 -10 -168 -22 5 -5 24 -4 43 1 19 6 73 10 120 10 47 0 103 5 125 10 42 9
59 5 35 -10 -19 -12 -102 -23 -164 -21 -93 1 -189 -10 -177 -22 7 -7 25 -7 58
0 55 12 218 3 218 -12 0 -6 -55 -10 -144 -11 -127 0 -147 2 -163 18 -10 10
-27 18 -38 18 -26 0 -80 27 -80 40 0 13 6 13 38 -4 37 -19 106 -30 97 -17 -3
6 -15 11 -25 11 -32 0 -100 31 -100 46 0 8 4 14 9 14 5 0 7 9 4 20 -3 11 -1
20 5 20 5 0 12 12 15 28 4 15 9 41 13 58 l6 31 -53 -4 c-60 -3 -89 14 -89 54
0 20 -5 23 -35 23 -19 0 -35 5 -35 10 0 13 100 2 115 -12 6 -6 4 -7 -7 -3 -24
9 -23 -8 1 -29 18 -16 19 -16 17 0 -1 12 13 20 49 29 28 7 52 12 55 12 7 -3
28 83 29 119 1 35 -11 48 -51 58 -41 10 -34 23 17 30 24 4 47 11 50 17 4 5 11
7 16 4 12 -8 12 20 0 43 -6 9 -15 77 -20 150 -6 74 -13 138 -17 143 -3 5 -15
8 -27 7 -12 -1 -71 -4 -130 -5z m-32 -203 c-4 -12 -9 -19 -12 -17 -3 3 -2 15
2 27 4 12 9 19 12 17 3 -3 2 -15 -2 -27z m56 -86 c13 -33 6 -70 -11 -59 -5 3
-10 17 -10 30 0 18 -4 23 -15 19 -19 -8 -20 28 -3 77 l12 34 7 -35 c4 -19 13
-49 20 -66z m3289 -78 c0 -2 -7 -9 -15 -16 -13 -11 -14 -10 -9 4 5 14 24 23
24 12z m-3507 -195 c5 -1 5 -5 2 -11 -3 -6 5 -10 19 -10 31 0 44 -33 22 -55
-16 -17 -41 -21 -31 -5 3 6 -3 10 -14 10 -11 0 -23 -4 -26 -10 -8 -13 -66 -13
-98 -1 -24 9 -39 35 -42 73 -2 17 15 18 168 9z m1155 2 c-26 -7 -22 -23 6 -23
16 0 26 -7 29 -21 11 -42 1 -47 -94 -45 -88 1 -89 1 -89 26 0 35 60 69 120 68
25 0 37 -2 28 -5z m911 -9 c2 -2 -10 -4 -27 -4 -18 0 -32 5 -32 10 0 9 47 4
59 -6z m131 6 c10 -7 -5 -10 -50 -9 -45 0 -59 3 -45 9 27 12 77 12 95 0z m-18
-34 c37 11 148 -3 148 -18 0 -5 -6 -16 -14 -24 -11 -11 -16 -11 -19 -1 -4 9
-8 8 -16 -3 -8 -12 -40 -16 -152 -18 -135 -4 -142 -3 -134 15 4 10 10 26 12
36 3 9 10 17 16 17 5 0 16 -8 23 -17 8 -11 13 -13 14 -5 0 6 10 12 23 12 12 0
29 4 37 10 9 6 17 5 21 -2 5 -8 17 -8 41 -2z m-2038 -12 c3 -8 2 -12 -4 -9 -6
3 -10 10 -10 16 0 14 7 11 14 -7z m3173 10 c-3 -3 -12 -4 -19 -1 -8 3 -5 6 6
6 11 1 17 -2 13 -5z m-634 -221 c77 -39 112 -43 231 -28 43 6 57 5 52 -4 -4
-6 -23 -11 -42 -11 -19 0 -34 -5 -34 -11 0 -6 7 -9 15 -5 8 3 23 2 33 -2 12
-5 6 -8 -23 -12 -25 -3 -41 -11 -43 -20 -2 -12 15 -21 67 -34 l70 -18 36 36
c44 45 65 48 24 4 -35 -39 -37 -52 -5 -44 16 4 26 1 29 -8 4 -9 14 -12 25 -9
26 6 64 -30 55 -53 -4 -11 8 -29 38 -56 52 -48 38 -64 -19 -21 -20 16 -56 35
-80 42 -23 6 -40 16 -37 21 4 6 -2 10 -11 10 -25 0 -84 -23 -84 -32 0 -4 -6
-8 -14 -8 -17 0 -69 -124 -68 -162 1 -31 -14 -38 -21 -10 -3 9 -3 -3 -1 -27 2
-24 9 -50 15 -57 7 -9 6 -19 -4 -36 -8 -13 -17 -35 -21 -50 -6 -25 -11 -28
-51 -28 -43 0 -45 1 -45 29 0 17 -5 33 -10 36 -6 4 -8 11 -5 16 4 5 -3 9 -14
9 -12 0 -21 2 -21 4 0 2 -3 11 -6 20 -5 13 1 16 34 16 32 0 41 -4 45 -22 3
-12 1 -30 -4 -40 -8 -15 -7 -23 8 -34 36 -27 40 -18 39 81 -1 78 -3 89 -11 64
-14 -41 -25 -27 -14 19 11 48 11 54 -1 47 -12 -7 -13 7 -2 21 5 5 17 37 28 71
17 56 23 64 59 79 56 24 79 45 63 56 -7 4 -25 8 -40 8 -15 0 -31 7 -35 15 -7
13 -14 13 -42 2 -27 -9 -35 -9 -38 1 -3 6 -15 12 -28 12 -13 0 -52 13 -87 29
-64 28 -66 28 -161 19 -74 -8 -101 -7 -112 2 -24 20 -8 29 29 18 20 -6 45 -7
62 -2 27 7 25 8 -20 14 -27 3 -51 11 -54 18 -3 10 3 11 25 5 37 -10 84 -6 97
8 8 8 0 9 -31 4 -45 -7 -83 0 -83 16 0 7 26 8 73 3 57 -5 89 -16 156 -50 79
-41 151 -58 151 -35 0 5 -13 9 -29 9 -37 -1 -205 78 -196 92 9 14 7 14 88 -27z
m333 -5 c-2 -14 -11 -24 -22 -25 -10 -2 -13 0 -6 3 6 3 12 14 12 25 0 10 4 19
10 19 5 0 8 -10 6 -22z m304 -2 c0 -7 -8 -20 -17 -27 -15 -12 -16 -12 -10 4 4
10 7 23 7 28 0 5 5 9 10 9 6 0 10 -6 10 -14z m-130 -34 c0 -15 -2 -15 -10 -2
-13 20 -13 33 0 25 6 -3 10 -14 10 -23z m-190 -22 c0 -5 -7 -7 -15 -4 -8 4
-15 8 -15 10 0 2 7 4 15 4 8 0 15 -4 15 -10z m170 0 c0 -5 -4 -10 -10 -10 -5
0 -10 5 -10 10 0 6 5 10 10 10 6 0 10 -4 10 -10z m45 -10 c3 -5 1 -10 -4 -10
-6 0 -11 5 -11 10 0 6 2 10 4 10 3 0 8 -4 11 -10z m45 -55 c0 -8 -4 -15 -10
-15 -5 0 -10 7 -10 15 0 8 5 15 10 15 6 0 10 -7 10 -15z m395 5 c-11 -5 -31
-9 -45 -9 -20 -1 -22 1 -10 9 8 5 29 9 45 9 26 0 27 -2 10 -9z m-1467 -21 c33
-2 32 -3 -13 -9 -27 -4 -58 -10 -67 -14 -13 -6 -18 -4 -18 7 0 16 26 27 48 21
8 -2 30 -5 50 -5z m1467 -9 c-3 -5 -14 -10 -23 -9 -14 0 -13 2 3 9 27 11 27
11 20 0z m-405 -15 c0 -8 -4 -15 -10 -15 -5 0 -10 7 -10 15 0 8 5 15 10 15 6
0 10 -7 10 -15z m250 -22 c0 -2 -9 -12 -21 -24 -23 -23 -49 -19 -49 9 0 14 8
18 35 18 19 0 35 -1 35 -3z m-2430 -13 c0 -5 -7 -10 -16 -10 -8 0 -12 5 -9 10
3 6 10 10 16 10 5 0 9 -4 9 -10z m2436 -38 c15 -9 22 -51 9 -52 -5 -1 -16 12
-23 29 -12 31 -8 38 14 23z m-680 -17 c-11 -8 -24 -15 -30 -15 -5 0 -1 7 10
15 10 8 24 14 29 14 6 0 1 -6 -9 -14z m547 -29 c-10 -13 -20 -22 -22 -20 -4 4
29 44 36 44 2 0 -4 -11 -14 -24z m-2240 -3 c-7 -2 -19 -2 -25 0 -7 3 -2 5 12
5 14 0 19 -2 13 -5z m2345 -10 c-4 -22 -22 -20 -26 1 -2 10 3 16 13 16 10 0
15 -7 13 -17z m-721 -45 c-3 -8 -6 -5 -6 6 -1 11 2 17 5 13 3 -3 4 -12 1 -19z
m-1012 -8 c-3 -5 -25 -9 -48 -8 l-42 1 45 7 c25 4 46 8 48 8 2 1 0 -2 -3 -8z
m-1228 -24 c-6 -17 -38 -20 -48 -4 -14 21 -11 25 21 20 17 -2 29 -9 27 -16z
m1341 15 c10 -6 7 -12 -11 -24 -23 -15 -26 -15 -38 -1 -10 13 -10 17 2 25 17
11 30 11 47 0z m1232 -6 c0 -8 -16 -33 -37 -55 -26 -30 -39 -38 -47 -30 -8 8
-6 14 7 21 24 14 67 58 67 69 0 6 2 10 5 10 3 0 5 -7 5 -15z m-1546 -16 c-6
-11 -24 -2 -24 11 0 5 7 7 15 4 8 -4 12 -10 9 -15z m-639 -9 c-3 -5 -11 -10
-16 -10 -6 0 -7 5 -4 10 3 6 11 10 16 10 6 0 7 -4 4 -10z m-707 -27 c-15 -2
-42 -2 -60 0 -18 2 -6 4 27 4 33 0 48 -2 33 -4z m516 -2 c3 -5 -1 -11 -9 -15
-15 -6 -29 7 -18 18 9 9 21 8 27 -3z m964 -8 c-10 -2 -26 -2 -35 0 -10 3 -2 5
17 5 19 0 27 -2 18 -5z m-1575 -10 c-7 -2 -21 -2 -30 0 -10 3 -4 5 12 5 17 0
24 -2 18 -5z m642 -13 c-3 -5 -13 -10 -21 -10 -8 0 -14 5 -14 10 0 6 9 10 21
10 11 0 17 -4 14 -10z m2258 -100 c9 0 17 -4 17 -10 0 -16 -73 -11 -95 7 -19
15 -18 15 20 9 22 -3 48 -6 58 -6z"/>
<path d="M2350 1840 c0 -5 17 -10 38 -10 27 0 33 3 22 10 -20 13 -60 13 -60 0z"/>
<path d="M5506 1411 c5 -5 20 -12 34 -16 22 -7 23 -6 8 9 -9 9 -25 16 -34 16
-11 0 -14 -3 -8 -9z"/>
<path d="M5418 1363 c6 -2 18 -2 25 0 6 3 1 5 -13 5 -14 0 -19 -2 -12 -5z"/>
<path d="M5375 1289 c-10 -43 -1 -46 12 -4 6 19 7 35 3 35 -5 0 -11 -14 -15
-31z"/>
<path d="M5346 1225 c-3 -9 -6 -22 -5 -28 0 -7 5 -1 10 12 5 13 8 26 5 28 -2
2 -6 -3 -10 -12z"/>
<path d="M2955 2358 c-22 -75 -18 -89 10 -39 34 59 42 91 21 91 -10 0 -21 -18
-31 -52z"/>
<path d="M3767 2403 c-4 -3 -7 -11 -7 -17 0 -6 5 -5 12 2 6 6 9 14 7 17 -3 3
-9 2 -12 -2z"/>
<path d="M3956 2373 c-6 -14 -5 -15 5 -6 7 7 10 15 7 18 -3 3 -9 -2 -12 -12z"/>
<path d="M3080 2364 c0 -4 14 -30 31 -58 33 -54 67 -91 75 -83 8 8 -46 107
-61 114 -8 3 -15 11 -15 19 0 8 -7 14 -15 14 -8 0 -15 -3 -15 -6z"/>
<path d="M3980 2357 c0 -18 -28 -75 -41 -83 -17 -10 -23 4 -9 20 6 9 10 21 7
28 -2 8 -13 -2 -26 -24 -12 -20 -29 -39 -38 -42 -13 -5 -14 -9 -3 -19 10 -9
13 -9 17 1 3 6 12 12 21 12 14 0 14 -2 3 -9 -9 -6 -11 -16 -7 -27 8 -18 8 -18
21 1 8 11 21 29 30 40 16 19 16 19 11 -10 -6 -28 -5 -29 9 -11 8 11 15 36 15
55 0 20 3 46 6 59 4 13 2 22 -5 22 -6 0 -11 -6 -11 -13z"/>
<path d="M4380 2354 c0 -12 7 -27 15 -34 20 -17 21 9 0 36 -14 19 -14 19 -15
-2z"/>
<path d="M2558 2342 c20 -22 25 -21 16 2 -3 9 -12 16 -20 16 -11 0 -10 -4 4
-18z"/>
<path d="M3136 2352 c-2 -4 11 -20 30 -35 43 -35 67 -81 62 -118 -4 -23 -2
-26 9 -17 8 6 12 16 10 22 -2 6 2 16 10 21 11 8 9 16 -7 42 -10 18 -32 40 -47
50 -15 10 -32 23 -36 30 -9 15 -23 17 -31 5z"/>
<path d="M6133 2328 c13 -18 28 -46 31 -63 10 -38 24 -55 47 -55 13 0 29 -21
54 -74 28 -60 35 -86 35 -138 0 -65 8 -108 19 -108 8 0 -4 177 -14 208 -4 12
-12 22 -17 22 -5 0 -7 4 -4 8 8 14 -54 123 -102 180 -50 58 -90 75 -49 20z"/>
<path d="M3675 2320 c-3 -5 -2 -10 4 -10 5 0 13 5 16 10 3 6 2 10 -4 10 -5 0
-13 -4 -16 -10z"/>
<path d="M5880 2301 c-12 -24 -13 -51 -1 -51 5 0 11 16 13 35 5 40 3 43 -12
16z"/>
<path d="M5126 2265 c-9 -9 -20 -14 -25 -11 -5 3 -23 -7 -41 -22 -34 -30 -34
-30 33 -34 17 0 35 -5 38 -11 4 -5 10 12 13 38 9 54 5 62 -18 40z"/>
<path d="M3996 2173 c-6 -14 -5 -15 5 -6 7 7 10 15 7 18 -3 3 -9 -2 -12 -12z"/>
<path d="M4037 2153 c-17 -16 -6 -32 21 -29 15 2 37 4 50 5 12 0 22 6 22 12 0
7 -11 8 -29 4 -17 -3 -32 -2 -36 4 -7 12 -19 14 -28 4z"/>
<path d="M4338 2133 c7 -3 16 -2 19 1 4 3 -2 6 -13 5 -11 0 -14 -3 -6 -6z"/>
<path d="M448 2113 c7 -3 16 -2 19 1 4 3 -2 6 -13 5 -11 0 -14 -3 -6 -6z"/>
<path d="M4955 1990 c3 -5 8 -10 11 -10 2 0 4 5 4 10 0 6 -5 10 -11 10 -5 0
-7 -4 -4 -10z"/>
<path d="M2132 1969 c2 -6 8 -10 13 -10 5 0 11 4 13 10 2 6 -4 11 -13 11 -9 0
-15 -5 -13 -11z"/>
<path d="M5495 1939 c-4 -6 -17 -14 -29 -19 -18 -7 -15 -9 16 -9 20 -1 40 4
43 9 3 6 -1 10 -10 10 -9 0 -13 5 -10 10 3 6 4 10 1 10 -3 0 -8 -5 -11 -11z"/>
<path d="M6365 1865 c-4 -53 -3 -90 4 -102 13 -22 12 -28 15 85 2 51 0 94 -4
97 -4 3 -11 -33 -15 -80z"/>
<path d="M5588 1923 c6 -2 18 -2 25 0 6 3 1 5 -13 5 -14 0 -19 -2 -12 -5z"/>
<path d="M7536 1922 c-2 -4 -1 -23 3 -42 l7 -35 127 -3 127 -3 0 46 0 45 -129
0 c-72 0 -132 -3 -135 -8z"/>
<path d="M2900 1910 c14 -4 48 -8 75 -8 l50 1 -45 8 c-25 4 -58 7 -75 7 -29 0
-29 0 -5 -8z"/>
<path d="M5388 1913 c12 -2 30 -2 40 0 9 3 -1 5 -23 4 -22 0 -30 -2 -17 -4z"/>
<path d="M3108 1903 c7 -3 16 -2 19 1 4 3 -2 6 -13 5 -11 0 -14 -3 -6 -6z"/>
<path d="M4020 1840 c46 -25 63 -25 25 0 -16 11 -37 20 -45 20 -8 -1 1 -9 20
-20z"/>
<path d="M4165 1849 l-50 -7 62 2 c85 2 63 -16 -29 -24 l-73 -7 65 -2 c45 -1
72 4 88 15 12 8 32 13 45 10 14 -4 11 -1 -8 9 -16 8 -34 14 -40 13 -5 -1 -32
-4 -60 -9z"/>
<path d="M4300 1850 c0 -5 4 -10 9 -10 6 0 13 5 16 10 3 6 -1 10 -9 10 -9 0
-16 -4 -16 -10z"/>
<path d="M7272 1853 c-16 -6 -45 -65 -62 -125 -18 -68 -6 -83 15 -18 10 30 28
76 41 103 12 26 21 47 21 46 -1 0 -8 -3 -15 -6z"/>
<path d="M3890 1841 c0 -9 58 -36 64 -30 2 2 -11 12 -30 21 -19 10 -34 14 -34
9z"/>
<path d="M4310 1820 c-12 -8 -11 -10 7 -10 12 0 25 5 28 10 8 13 -15 13 -35 0z"/>
<path d="M7130 1785 c-7 -9 -11 -17 -9 -20 3 -2 10 5 17 15 14 24 10 26 -8 5z"/>
<path d="M610 1780 c0 -8 129 -3 139 6 2 2 -28 4 -67 4 -40 0 -72 -4 -72 -10z"/>
<path d="M4303 1783 c9 -2 25 -2 35 0 9 3 1 5 -18 5 -19 0 -27 -2 -17 -5z"/>
<path d="M5568 1713 c6 -2 18 -2 25 0 6 3 1 5 -13 5 -14 0 -19 -2 -12 -5z"/>
<path d="M5198 1633 c7 -3 16 -2 19 1 4 3 -2 6 -13 5 -11 0 -14 -3 -6 -6z"/>
<path d="M2863 1603 c9 -2 23 -2 30 0 6 3 -1 5 -18 5 -16 0 -22 -2 -12 -5z"/>
<path d="M2797 1590 c6 -7 33 -14 60 -16 42 -3 44 -2 13 5 -19 4 -46 11 -60
15 -20 7 -22 6 -13 -4z"/>
<path d="M2960 1593 c-14 -3 -29 -9 -35 -15 -7 -7 -2 -8 15 -2 14 5 72 9 130
8 90 -1 96 0 45 6 -67 9 -118 9 -155 3z"/>
<path d="M6352 1350 c0 -19 2 -27 5 -17 2 9 2 25 0 35 -3 9 -5 1 -5 -18z"/>
<path d="M2245 1240 c-17 -7 -16 -9 10 -9 17 0 39 4 50 9 17 7 16 9 -10 9 -16
0 -39 -4 -50 -9z"/>
<path d="M2138 1233 c7 -3 16 -2 19 1 4 3 -2 6 -13 5 -11 0 -14 -3 -6 -6z"/>
<path d="M1815 1211 c46 -21 201 -38 190 -21 -3 5 -32 10 -63 10 -31 1 -75 7
-97 15 -57 21 -78 18 -30 -4z"/>
<path d="M2145 1215 c-22 -7 -31 -13 -20 -13 11 0 36 6 55 13 45 17 17 18 -35
0z"/>
<path d="M6320 1200 c0 -5 7 -7 15 -4 8 4 15 8 15 10 0 2 -7 4 -15 4 -8 0 -15
-4 -15 -10z"/>
<path d="M6285 1170 c-4 -6 10 -10 35 -10 25 0 39 4 35 10 -3 6 -19 10 -35 10
-16 0 -32 -4 -35 -10z"/>
<path d="M6398 1163 c12 -2 30 -2 40 0 9 3 -1 5 -23 4 -22 0 -30 -2 -17 -4z"/>
<path d="M3418 1143 c7 -3 16 -2 19 1 4 3 -2 6 -13 5 -11 0 -14 -3 -6 -6z"/>
<path d="M6282 1138 c-22 -22 -13 -28 31 -22 49 8 74 24 35 24 -15 0 -32 2
-40 5 -7 3 -19 0 -26 -7z"/>
<path d="M4778 1133 c7 -3 16 -2 19 1 4 3 -2 6 -13 5 -11 0 -14 -3 -6 -6z"/>
<path d="M6228 1133 c7 -3 16 -2 19 1 4 3 -2 6 -13 5 -11 0 -14 -3 -6 -6z"/>
<path d="M6385 1130 c3 -5 17 -10 31 -10 14 0 22 4 19 10 -3 6 -17 10 -31 10
-14 0 -22 -4 -19 -10z"/>
<path d="M3357 1123 c-12 -12 -7 -22 8 -17 8 4 15 10 15 15 0 11 -14 12 -23 2z"/>
<path d="M3528 1123 c7 -3 16 -2 19 1 4 3 -2 6 -13 5 -11 0 -14 -3 -6 -6z"/>
<path d="M3813 1123 c9 -2 23 -2 30 0 6 3 -1 5 -18 5 -16 0 -22 -2 -12 -5z"/>
<path d="M3887 1093 c-3 -16 -9 -40 -13 -55 -7 -32 9 -37 40 -15 17 13 17 14
0 31 -9 10 -13 21 -8 24 5 4 15 15 23 25 12 15 11 17 -12 17 -19 0 -26 -6 -30
-27z"/>
<path d="M4083 1113 c9 -2 23 -2 30 0 6 3 -1 5 -18 5 -16 0 -22 -2 -12 -5z"/>
<path d="M5930 1095 c-7 -9 -11 -17 -9 -20 3 -2 10 5 17 15 14 24 10 26 -8 5z"/>
<path d="M1475 1090 c-3 -5 1 -10 9 -10 8 0 18 5 21 10 3 6 -1 10 -9 10 -8 0
-18 -4 -21 -10z"/>
<path d="M6263 1078 c1 -35 -31 -201 -48 -248 -8 -24 -15 -52 -15 -63 0 -21 0
-21 16 1 8 12 27 84 40 159 14 75 27 140 29 144 3 4 -1 12 -9 18 -11 9 -14 7
-13 -11z"/>
<path d="M3140 1080 c-12 -8 -9 -10 12 -10 15 0 30 5 33 10 8 13 -25 13 -45 0z"/>
<path d="M3510 1075 c7 -9 15 -13 17 -11 7 7 -7 26 -19 26 -6 0 -6 -6 2 -15z"/>
<path d="M3320 1061 c-12 -24 -13 -34 -1 -27 9 6 22 46 15 46 -2 0 -8 -9 -14
-19z"/>
<path d="M4563 1073 c15 -2 39 -2 55 0 15 2 2 4 -28 4 -30 0 -43 -2 -27 -4z"/>
<path d="M4780 1070 c25 -8 25 -8 2 -9 -13 -1 -21 -5 -18 -10 3 -4 17 -6 31
-4 13 3 23 9 20 13 -3 5 1 11 7 13 7 3 -5 5 -27 5 -34 0 -36 -1 -15 -8z"/>
<path d="M4960 1046 c0 -17 14 -29 23 -20 8 8 -3 34 -14 34 -5 0 -9 -6 -9 -14z"/>
<path d="M2512 1028 c5 -15 28 -23 28 -10 0 5 -7 13 -16 16 -10 4 -14 1 -12
-6z"/>
<path d="M3078 1023 c6 -2 18 -2 25 0 6 3 1 5 -13 5 -14 0 -19 -2 -12 -5z"/>
<path d="M386 1005 c-7 -19 3 -19 28 0 19 15 19 15 -1 15 -11 0 -23 -7 -27
-15z"/>
<path d="M1006 995 c-11 -8 -16 -15 -10 -15 5 0 18 7 28 15 11 8 16 15 10 15
-5 0 -18 -7 -28 -15z"/>
<path d="M925 990 c-3 -5 1 -10 9 -10 9 0 16 5 16 10 0 6 -4 10 -9 10 -6 0
-13 -4 -16 -10z"/>
<path d="M1044 984 c-10 -8 -13 -12 -6 -9 8 4 26 11 40 15 22 7 23 8 6 9 -11
1 -29 -6 -40 -15z"/>
<path d="M3805 983 c-4 -12 -14 -24 -24 -26 -11 -3 -8 -5 7 -6 24 -1 38 19 29
41 -4 8 -8 5 -12 -9z"/>
<path d="M683 983 c9 -2 23 -2 30 0 6 3 -1 5 -18 5 -16 0 -22 -2 -12 -5z"/>
<path d="M3858 984 c-5 -4 -8 -13 -8 -21 0 -9 16 -13 58 -13 37 0 52 3 43 9
-8 5 -29 7 -47 4 -25 -4 -33 -1 -36 12 -1 9 -6 13 -10 9z"/>
<path d="M273 963 c9 -2 23 -2 30 0 6 3 -1 5 -18 5 -16 0 -22 -2 -12 -5z"/>
<path d="M3368 963 c12 -2 32 -2 45 0 12 2 2 4 -23 4 -25 0 -35 -2 -22 -4z"/>
<path d="M3511 965 c8 -7 119 -9 126 -2 3 4 -24 7 -62 7 -38 0 -66 -2 -64 -5z"/>
<path d="M1440 950 c0 -5 7 -7 15 -4 8 4 15 8 15 10 0 2 -7 4 -15 4 -8 0 -15
-4 -15 -10z"/>
<path d="M5730 928 c-12 -22 -12 -22 6 -6 10 10 15 20 12 24 -4 3 -12 -5 -18
-18z"/>
<path d="M5809 933 c-13 -16 -12 -17 4 -4 9 7 17 15 17 17 0 8 -8 3 -21 -13z"/>
<path d="M3251 924 c0 -11 3 -14 6 -6 3 7 2 16 -1 19 -3 4 -6 -2 -5 -13z"/>
<path d="M3473 933 c20 -2 54 -2 75 0 20 2 3 4 -38 4 -41 0 -58 -2 -37 -4z"/>
<path d="M4970 926 c0 -2 7 -6 15 -10 8 -3 15 -1 15 4 0 6 -7 10 -15 10 -8 0
-15 -2 -15 -4z"/>
<path d="M5665 904 c-23 -19 -38 -24 -63 -20 -21 3 -30 1 -26 -6 6 -10 53 -7
89 6 15 6 12 1 -9 -19 -22 -21 -36 -26 -58 -21 -15 3 -28 1 -28 -4 0 -14 66
-13 92 1 15 8 19 8 14 0 -13 -21 -69 -43 -97 -39 -16 3 -29 1 -29 -3 0 -11 51
-16 84 -7 21 5 40 1 75 -17 27 -15 62 -25 87 -25 25 0 60 -10 89 -25 40 -22
58 -25 118 -23 47 2 72 7 75 16 3 10 -4 11 -34 5 -73 -15 -119 -9 -157 20 -29
22 -46 27 -90 27 -64 0 -102 24 -102 64 -1 14 3 26 7 26 4 0 8 7 8 15 0 8 -4
15 -9 15 -5 0 -7 9 -4 20 7 25 5 25 -32 -6z"/>
<path d="M425 911 c-8 -14 10 -22 30 -15 13 5 14 8 3 15 -17 11 -26 11 -33 0z"/>
<path d="M1338 887 c-7 -7 -22 -16 -32 -20 -14 -6 -16 -11 -8 -19 8 -8 19 -4
41 15 17 14 27 28 22 31 -5 4 -15 0 -23 -7z"/>
<path d="M1595 890 c-3 -5 3 -10 14 -10 11 0 23 5 26 10 3 6 -3 10 -14 10 -11
0 -23 -4 -26 -10z"/>
<path d="M5433 863 c-21 -8 -15 -22 7 -16 11 3 20 9 20 14 0 10 -8 10 -27 2z"/>
<path d="M1585 851 c-36 -6 -37 -7 -15 -13 14 -4 48 -1 75 7 46 12 47 14 15
13 -19 -1 -53 -4 -75 -7z"/>
<path d="M5720 835 c8 -9 26 -23 41 -31 33 -17 109 -19 109 -3 0 8 -13 10 -38
6 -29 -5 -47 -1 -81 19 -27 15 -39 18 -31 9z"/>
<path d="M4432 820 c0 -14 2 -19 5 -12 2 6 2 18 0 25 -3 6 -5 1 -5 -13z"/>
<path d="M1255 820 c-3 -5 -2 -10 4 -10 5 0 13 5 16 10 3 6 2 10 -4 10 -5 0
-13 -4 -16 -10z"/>
<path d="M1725 820 c27 -12 43 -12 25 0 -8 5 -22 9 -30 9 -10 0 -8 -3 5 -9z"/>
<path d="M6942 814 c11 -11 23 -14 35 -9 17 7 17 8 -2 15 -11 5 -27 9 -35 9
-12 1 -11 -2 2 -15z"/>
<path d="M1551 796 c5 -6 26 -9 47 -7 20 1 54 3 74 4 20 0 34 5 32 9 -3 4 -41
7 -84 5 -50 -1 -75 -6 -69 -11z"/>
<path d="M5194 795 c-10 -26 0 -32 34 -18 18 7 30 18 27 23 -10 15 -55 12 -61
-5z"/>
<path d="M1210 790 c-13 -8 -13 -10 2 -10 9 0 20 5 23 10 8 13 -5 13 -25 0z"/>
<path d="M108 783 c6 -2 18 -2 25 0 6 3 1 5 -13 5 -14 0 -19 -2 -12 -5z"/>
<path d="M295 780 c-4 -6 15 -10 49 -10 31 0 56 5 56 10 0 6 -22 10 -49 10
-28 0 -53 -4 -56 -10z"/>
<path d="M1734 775 c11 -8 22 -12 25 -9 6 6 -19 24 -34 24 -5 -1 -1 -7 9 -15z"/>
<path d="M6982 778 c5 -15 28 -23 28 -10 0 5 -7 13 -16 16 -10 4 -14 1 -12 -6z"/>
<path d="M5670 774 c1 -27 44 -54 88 -54 16 0 41 -9 56 -21 14 -11 31 -17 37
-14 5 4 19 -1 31 -12 16 -15 38 -18 119 -20 96 -1 99 -2 129 -32 29 -29 33
-51 8 -51 -6 0 -25 16 -42 35 -29 34 -33 35 -66 25 -64 -19 -125 -13 -159 16
-23 19 -31 22 -31 11 0 -9 17 -26 38 -39 32 -20 48 -23 119 -21 74 3 84 1 93
-18 6 -11 22 -24 36 -29 13 -5 24 -14 24 -20 0 -18 -39 -11 -60 12 -26 28 -38
16 -16 -17 19 -28 62 -34 80 -10 10 12 29 12 160 0 82 -8 156 -17 165 -20 9
-2 23 0 31 5 13 8 13 9 0 14 -14 4 -144 20 -259 30 -53 5 -85 21 -76 36 5 9
39 7 233 -12 86 -8 112 -14 112 -25 0 -20 27 -47 32 -31 2 6 -8 24 -22 40 -25
27 -32 29 -179 43 -85 8 -160 20 -167 26 -8 6 -21 9 -29 5 -10 -4 -19 3 -26
18 -16 35 -50 47 -95 34 -57 -15 -130 -5 -159 22 -17 16 -41 24 -89 29 -49 5
-72 13 -91 31 -14 13 -25 19 -25 14z"/>
<path d="M1498 763 c6 -2 18 -2 25 0 6 3 1 5 -13 5 -14 0 -19 -2 -12 -5z"/>
<path d="M2185 749 c3 -9 1 -20 -5 -24 -7 -5 -5 -12 7 -21 17 -13 17 -15 0
-28 -17 -13 -17 -14 0 -21 10 -4 56 -7 103 -5 66 1 94 7 132 26 57 29 64 41
11 18 -49 -22 -128 -34 -176 -27 -58 9 -39 26 33 30 35 2 70 8 79 12 9 6 -3 7
-31 4 -62 -7 -140 5 -135 20 2 7 32 14 69 17 95 7 90 15 -8 16 -77 1 -84 0
-79 -17z"/>
<path d="M5010 750 c0 -20 -13 -25 -54 -20 -11 1 -15 -3 -12 -9 4 -6 27 -11
52 -11 40 0 44 2 44 24 0 13 -7 26 -15 30 -10 4 -15 -1 -15 -14z"/>
<path d="M7165 760 c-8 -13 20 -24 41 -16 20 8 9 26 -16 26 -10 0 -22 -5 -25
-10z"/>
<path d="M115 743 l-30 -18 55 -3 c50 -3 204 17 196 25 -2 2 -46 6 -97 9 -78
4 -99 1 -124 -13z"/>
<path d="M4373 746 c4 -11 -4 -16 -31 -19 l-37 -4 40 1 c29 1 41 6 43 19 2 9
-2 17 -8 17 -7 0 -10 -6 -7 -14z"/>
<path d="M1830 738 c-19 -5 -47 -8 -62 -6 -15 3 -24 0 -21 -5 7 -12 122 -2
136 12 14 14 -4 13 -53 -1z"/>
<path d="M2523 740 c-34 -14 -28 -21 7 -9 17 6 30 13 30 15 0 6 -12 4 -37 -6z"/>
<path d="M2758 743 c7 -3 16 -2 19 1 4 3 -2 6 -13 5 -11 0 -14 -3 -6 -6z"/>
<path d="M2868 743 c7 -3 16 -2 19 1 4 3 -2 6 -13 5 -11 0 -14 -3 -6 -6z"/>
<path d="M4090 740 l-75 -6 78 -2 c46 -1 77 2 77 8 0 6 -1 9 -2 8 -2 -1 -37
-4 -78 -8z"/>
<path d="M2395 730 c-3 -6 1 -7 9 -4 18 7 21 14 7 14 -6 0 -13 -4 -16 -10z"/>
<path d="M4730 729 c-73 -5 -72 -5 33 -7 105 -2 139 2 75 9 -18 2 -67 1 -108
-2z"/>
<path d="M1175 710 c-10 -11 -15 -20 -11 -20 4 0 19 9 33 20 17 13 20 20 11
20 -8 0 -23 -9 -33 -20z"/>
<path d="M4488 723 c12 -2 30 -2 40 0 9 3 -1 5 -23 4 -22 0 -30 -2 -17 -4z"/>
<path d="M6748 723 c7 -3 16 -2 19 1 4 3 -2 6 -13 5 -11 0 -14 -3 -6 -6z"/>
<path d="M2078 714 c-3 -3 -28 -9 -55 -14 l-48 -9 55 4 c30 2 73 8 95 13 l40
10 -41 1 c-22 0 -43 -2 -46 -5z"/>
<path d="M4290 700 c0 -5 6 -10 14 -10 8 0 18 5 21 10 3 6 -3 10 -14 10 -12 0
-21 -4 -21 -10z"/>
<path d="M6615 702 c8 -8 131 -20 156 -15 56 11 17 22 -70 20 -49 -1 -88 -3
-86 -5z"/>
<path d="M505 690 c-3 -5 -1 -10 4 -10 6 0 11 5 11 10 0 6 -2 10 -4 10 -3 0
-8 -4 -11 -10z"/>
<path d="M1830 690 c-8 -5 -25 -10 -37 -10 -13 0 -23 -4 -23 -10 0 -5 7 -10
16 -10 18 0 114 30 114 36 0 8 -56 3 -70 -6z"/>
<path d="M4366 685 c4 -8 10 -15 15 -15 5 0 9 7 9 15 0 8 -7 15 -15 15 -9 0
-12 -6 -9 -15z"/>
<path d="M4423 685 c-3 -9 -3 -18 -1 -21 3 -3 8 4 11 16 6 23 -1 27 -10 5z"/>
<path d="M4988 693 c7 -3 16 -2 19 1 4 3 -2 6 -13 5 -11 0 -14 -3 -6 -6z"/>
<path d="M5080 677 c1 -12 8 -53 16 -92 9 -38 18 -87 21 -107 l5 -38 112 2
c61 1 89 3 61 5 -27 3 -53 9 -57 16 -5 8 -14 7 -33 -3 -24 -13 -28 -12 -50 16
-31 37 -31 44 0 44 32 0 32 17 -2 53 -33 34 -40 81 -10 73 15 -4 14 0 -6 18
-38 35 -57 40 -57 13z"/>
<path d="M7083 689 c12 -7 27 -7 45 0 25 9 24 9 -18 10 -36 0 -41 -2 -27 -10z"/>
<path d="M5643 683 c9 -2 23 -2 30 0 6 3 -1 5 -18 5 -16 0 -22 -2 -12 -5z"/>
<path d="M5705 633 c-11 -91 -24 -131 -54 -166 -15 -17 -31 -48 -35 -69 -4
-20 -13 -39 -21 -42 -8 -3 -15 -12 -15 -21 0 -33 -91 -41 -157 -14 -25 10 -35
11 -44 2 -9 -9 -9 -16 -1 -26 7 -8 9 -17 5 -20 -3 -4 -6 -22 -5 -41 1 -31 -2
-36 -34 -46 -19 -7 -44 -10 -55 -7 -10 3 -22 -1 -27 -8 -8 -15 -9 -15 -46 -15
-21 0 -25 -5 -28 -37 l-3 -38 -308 0 c-295 0 -307 -1 -286 -18 11 -9 17 -17
13 -18 -5 -1 2 -5 16 -9 41 -13 220 -12 217 1 -2 13 51 31 65 23 12 -8 0 -24
-18 -24 -8 0 -25 -9 -37 -20 l-21 -20 184 2 c119 2 184 7 183 13 -1 6 -5 23
-8 38 -6 21 -4 27 9 27 10 0 16 -9 16 -24 0 -39 11 -56 35 -56 26 0 42 16 23
22 -19 7 0 38 23 38 31 0 99 -22 99 -32 0 -4 -4 -8 -10 -8 -5 0 -10 -4 -10
-10 0 -5 19 -10 43 -10 30 0 38 3 27 10 -25 16 -6 20 23 5 24 -12 201 -14
1183 -15 l1154 0 0 131 c0 114 -2 134 -17 145 -10 7 -27 14 -39 14 -11 0 -29
6 -39 14 -11 8 -25 12 -32 9 -7 -3 -19 0 -27 6 -19 16 -46 3 -46 -21 0 -15 5
-19 19 -15 10 2 27 0 37 -6 16 -9 15 -12 -16 -23 -53 -19 -90 -16 -127 8 -18
13 -33 26 -33 31 0 4 -5 7 -10 7 -12 0 16 -47 46 -75 42 -40 148 -159 124
-139 -14 11 -33 27 -43 35 -33 26 -77 70 -127 129 -45 51 -56 58 -87 58 -23 0
-39 6 -45 16 -6 11 -23 16 -51 16 -31 0 -38 -3 -27 -10 8 -5 26 -10 38 -10 15
0 26 -7 29 -20 4 -15 14 -20 38 -20 19 0 39 -8 50 -20 10 -11 25 -20 34 -20
13 0 13 -2 2 -9 -22 -14 -4 -51 25 -51 13 0 24 -4 24 -9 0 -15 -35 -23 -65
-15 -25 6 -26 8 -9 17 15 8 10 12 -32 23 -27 7 -54 13 -61 14 -16 0 -13 -41 5
-62 9 -11 11 -18 4 -18 -6 0 -15 6 -19 13 -12 18 -53 39 -53 27 0 -14 -20 -12
-54 5 -15 8 -32 12 -37 9 -5 -3 -9 4 -9 15 0 21 -24 29 -34 12 -3 -5 -15 -7
-26 -4 -19 5 -19 7 -5 23 23 26 18 49 -12 56 -104 24 -139 36 -149 49 -14 19
-25 19 -18 0 8 -20 -65 -21 -92 0 -21 16 -34 19 -34 7 0 -5 12 -12 27 -18 l27
-9 -28 -13 c-25 -11 -28 -10 -33 8 -3 13 -14 20 -29 20 -12 0 -26 5 -29 10 -4
6 -11 8 -16 5 -5 -4 -21 3 -35 14 -15 12 -23 21 -18 22 5 0 -2 5 -15 10 -34
13 -38 3 -13 -31 81 -109 205 -300 200 -306 -2 -1 -38 43 -81 99 -122 162
-110 149 -137 138 -23 -9 -20 -12 13 -15 12 -1 47 -38 47 -50 0 -3 -21 -6 -47
-7 -36 0 -43 -3 -28 -9 15 -7 11 -9 -20 -8 -40 0 -103 15 -75 17 30 3 -15 20
-58 22 l-42 3 0 42 c0 24 -6 47 -15 54 -12 10 -12 17 5 48 24 44 25 68 4 76
-24 9 -36 7 -29 -5 8 -13 -23 -49 -42 -49 -8 0 -12 4 -8 9 3 5 0 13 -6 17 -8
4 -4 11 12 20 22 12 19 13 -36 13 -33 0 -54 -3 -47 -6 14 -6 17 -99 3 -108 -5
-3 -13 -20 -16 -37 -7 -28 -9 -30 -20 -15 -15 21 -85 24 -85 3 0 -16 21 -26
52 -26 26 0 19 -9 -11 -15 -13 -2 -31 -7 -41 -10 -31 -10 -126 12 -169 39 -35
23 -40 24 -43 8 -3 -14 -8 -13 -31 10 -19 20 -38 28 -62 28 -57 0 -66 8 -59
47 l7 35 -49 -2 c-27 -2 -55 -2 -61 -1 -18 2 -16 18 3 25 8 3 12 2 9 -4 -4 -6
9 -10 29 -10 35 0 47 12 26 25 -6 4 -8 11 -5 16 4 5 1 9 -5 9 -13 0 -6 46 13
91 9 22 14 25 28 16 25 -15 59 17 59 54 0 33 -23 49 -74 49 l-35 0 -6 -57z
m-21 -328 c20 -17 24 -25 13 -25 -9 0 -19 5 -23 11 -4 7 -21 9 -40 6 -39 -7
-45 5 -11 21 30 15 28 15 61 -13z m647 -9 c0 -5 -13 -11 -28 -12 -27 -3 -27
-2 -8 12 20 15 37 15 36 0z m454 -26 c3 -5 1 -10 -4 -10 -6 0 -11 5 -11 10 0
6 2 10 4 10 3 0 8 -4 11 -10z m-1085 -9 c6 0 10 -5 10 -11 0 -10 -59 -3 -72 9
-6 5 29 6 62 2z m670 -16 c-7 -8 -17 -15 -23 -15 -5 0 -2 9 8 20 21 23 35 19
15 -5z m520 5 c36 -10 39 -13 29 -31 -13 -26 -56 -18 -81 14 -21 27 -23 41 -4
34 8 -3 33 -11 56 -17z m257 -116 c-3 -3 -12 -4 -19 -1 -8 3 -5 6 6 6 11 1 17
-2 13 -5z m63 -14 c0 -5 -2 -10 -4 -10 -3 0 -8 5 -11 10 -3 6 -1 10 4 10 6 0
11 -4 11 -10z m90 -6 c0 -11 -8 -14 -27 -12 -39 4 -42 28 -4 28 21 0 31 -5 31
-16z m262 -17 c19 -25 5 -41 -23 -26 -10 5 -28 9 -42 9 -35 0 -41 12 -15 32
27 20 56 15 80 -15z"/>
<path d="M7368 683 c7 -3 16 -2 19 1 4 3 -2 6 -13 5 -11 0 -14 -3 -6 -6z"/>
<path d="M7408 683 c6 -2 18 -2 25 0 6 3 1 5 -13 5 -14 0 -19 -2 -12 -5z"/>
<path d="M7458 683 c6 -2 18 -2 25 0 6 3 1 5 -13 5 -14 0 -19 -2 -12 -5z"/>
<path d="M7758 683 c6 -2 18 -2 25 0 6 3 1 5 -13 5 -14 0 -19 -2 -12 -5z"/>
<path d="M6180 666 c0 -11 9 -16 28 -17 15 0 36 -2 47 -4 11 -1 63 -6 115 -9
52 -4 105 -9 118 -12 12 -4 22 -2 22 4 0 6 -35 13 -77 17 -107 9 -216 23 -236
31 -12 4 -17 1 -17 -10z"/>
<path d="M6610 670 c8 -5 44 -9 80 -9 l65 2 -50 7 c-75 12 -113 12 -95 0z"/>
<path d="M1948 663 c7 -3 16 -2 19 1 4 3 -2 6 -13 5 -11 0 -14 -3 -6 -6z"/>
<path d="M7090 661 c0 -12 37 -34 50 -29 14 5 -3 25 -27 32 -14 4 -23 3 -23
-3z"/>
<path d="M7765 654 c4 -11 10 -27 12 -36 9 -31 24 -20 21 14 -2 23 -9 34 -22
36 -15 3 -17 0 -11 -14z"/>
<path d="M2070 651 c-8 -5 -44 -12 -78 -16 -41 -5 -60 -11 -54 -17 9 -9 100 6
192 31 l35 9 -40 1 c-22 0 -47 -3 -55 -8z"/>
<path d="M1075 640 c-3 -5 -2 -10 4 -10 5 0 13 5 16 10 3 6 2 10 -4 10 -5 0
-13 -4 -16 -10z"/>
<path d="M1815 634 c-22 -8 -49 -13 -60 -10 -19 5 -55 -19 -55 -36 0 -5 7 -2
16 6 9 10 34 16 62 17 26 0 67 9 92 19 42 18 43 19 15 19 -16 0 -48 -7 -70
-15z"/>
<path d="M5035 630 c-7 -12 2 -30 16 -30 12 0 12 27 0 35 -5 3 -12 1 -16 -5z"/>
<path d="M4365 615 c-3 -8 -7 -22 -10 -31 -3 -8 2 -22 10 -30 13 -14 15 -10
15 30 0 46 -7 59 -15 31z"/>
<path d="M7077 609 c-22 -25 -21 -26 17 -31 19 -2 31 2 34 11 3 9 0 11 -8 6
-9 -5 -10 -2 -5 14 9 28 -15 28 -38 0z"/>
<path d="M7296 623 c-11 -11 -6 -23 8 -23 8 0 17 4 20 9 7 10 -19 23 -28 14z"/>
<path d="M2140 609 c-74 -13 -140 -32 -140 -41 0 -11 4 -11 95 12 101 25 115
25 115 1 0 -12 -11 -23 -32 -30 -18 -7 -28 -15 -23 -19 13 -9 18 -39 11 -68
-6 -21 -10 -22 -64 -17 -31 3 -58 7 -60 8 -1 1 3 14 9 29 7 14 10 28 8 31 -3
2 -27 -2 -54 -10 -26 -8 -73 -16 -104 -16 -44 -1 -50 -3 -26 -8 28 -6 27 -7
-19 -14 -27 -4 -65 -7 -84 -7 -21 0 -40 -7 -47 -17 -8 -11 -19 -14 -31 -9 -16
6 -16 9 -4 16 11 7 8 10 -12 10 -27 0 -41 -20 -15 -20 6 -1 -3 -7 -22 -15 -44
-20 -81 -19 -81 0 0 44 -64 2 -205 -136 l-60 -59 35 0 c19 1 46 7 59 14 14 8
31 12 38 9 7 -3 13 0 13 6 0 6 7 11 15 11 22 0 18 -13 -14 -44 -16 -16 -47
-32 -68 -36 -21 -5 -52 -13 -69 -18 -28 -9 -31 -8 -27 9 7 25 -18 25 -40 1
-10 -10 -17 -22 -17 -25 0 -4 55 -7 123 -6 67 0 113 4 103 8 -18 7 -18 8 5 24
25 18 89 23 89 8 0 -5 -9 -11 -21 -14 -36 -10 -10 -27 39 -26 37 1 42 3 22 8
l-25 7 23 8 c12 4 22 14 22 23 0 8 6 13 13 10 6 -2 11 -11 9 -18 -2 -8 -4 -21
-5 -30 -1 -20 -92 -29 -292 -29 -71 0 -137 -5 -145 -10 -10 -7 6 -10 56 -10
41 0 83 -6 100 -14 18 -9 68 -16 131 -18 57 -2 103 -6 103 -9 0 -3 -12 -12
-27 -19 -16 -7 -23 -15 -15 -17 29 -11 8 -20 -34 -15 -31 3 -45 1 -41 -5 4 -7
210 -10 612 -9 l606 1 27 48 c31 55 24 67 -43 67 -22 0 -56 3 -76 6 -31 5 -36
10 -33 30 1 13 -2 26 -7 30 -21 13 -8 26 19 18 15 -4 41 -9 57 -11 17 -2 46
-5 65 -8 35 -5 27 1 -28 20 -13 4 -21 13 -19 19 2 6 -7 24 -19 39 -26 31 -31
57 -12 57 9 0 9 3 0 12 -8 8 -15 8 -24 1 -7 -6 -28 -13 -45 -16 -29 -6 -36 -2
-60 28 -16 19 -37 35 -48 35 -11 0 -26 9 -33 20 -7 12 -23 20 -40 20 -26 1
-26 1 -8 15 15 11 16 15 5 19 -8 2 -21 7 -29 9 -8 3 17 6 55 8 39 1 60 4 48 6
-13 2 -23 9 -23 14 0 5 -12 9 -26 9 -14 0 -32 6 -40 14 -8 8 -23 12 -36 9 -22
-6 -22 -5 -5 14 9 11 17 27 17 35 0 17 -26 32 -41 23 -4 -3 -22 1 -38 10 -17
8 -34 14 -38 14 -4 -1 -28 -5 -53 -10z m-124 -206 c-7 -7 -30 18 -34 37 -2 9
5 6 18 -8 12 -13 20 -26 16 -29z m-496 -93 c-6 -11 -20 -20 -31 -20 -31 0 -1
30 39 39 1 1 -2 -8 -8 -19z m510 6 c0 -3 -4 -8 -10 -11 -5 -3 -10 -1 -10 4 0
6 5 11 10 11 6 0 10 -2 10 -4z m56 -44 c-7 -7 -21 -9 -88 -18 -36 -4 -48 -2
-48 8 0 9 20 13 71 15 39 1 68 -1 65 -5z m-481 -182 c-3 -5 -12 -10 -18 -10
-7 0 -6 4 3 10 19 12 23 12 15 0z m1057 -23 c-2 -10 -7 -15 -10 -13 -3 3 -10
-2 -17 -11 -15 -20 -25 -5 -15 22 10 27 49 29 42 2z m-982 -17 c0 -5 -2 -10
-4 -10 -3 0 -8 5 -11 10 -3 6 -1 10 4 10 6 0 11 -4 11 -10z"/>
<path d="M4420 601 c0 -5 -3 -16 -6 -25 -3 -9 -1 -16 5 -16 6 0 11 7 11 15 0
8 5 15 11 15 5 0 7 5 4 10 -8 13 -25 13 -25 1z"/>
<path d="M7356 596 c3 -9 18 -16 32 -16 29 0 20 14 -15 25 -18 5 -22 3 -17 -9z"/>
<path d="M6685 594 c11 -3 33 -10 50 -15 21 -7 26 -6 19 1 -6 6 -28 13 -50 15
-21 2 -30 2 -19 -1z"/>
<path d="M7172 568 c3 -7 24 -23 49 -36 39 -21 41 -21 19 -3 -14 11 -32 28
-41 36 -19 18 -32 20 -27 3z"/>
<path d="M6737 547 c17 -7 40 -22 50 -34 14 -15 23 -19 34 -12 12 8 11 12 -5
24 -10 7 -15 18 -11 24 4 7 -12 11 -47 10 -52 -1 -53 -1 -21 -12z"/>
<path d="M7432 533 c-1 -45 -14 -97 -25 -105 -6 -4 -24 -4 -39 -1 -15 3 -28 1
-28 -4 0 -12 152 -23 328 -23 l132 0 0 39 c0 43 -11 56 -55 66 -65 15 -69 17
-54 27 15 10 7 9 -68 -13 -35 -10 -47 -9 -77 5 -19 9 -38 21 -41 26 -3 6 -21
10 -39 10 -29 0 -33 -3 -34 -27z m177 -54 c-10 -6 -3 -9 21 -10 25 -1 28 -3
12 -6 -33 -6 -53 3 -46 22 3 8 11 12 16 9 6 -4 5 -10 -3 -15z m-52 -5 c-3 -3
-12 -4 -19 -1 -8 3 -5 6 6 6 11 1 17 -2 13 -5z"/>
<path d="M6968 538 c8 -8 20 -8 44 -1 l33 11 -44 1 c-34 1 -42 -2 -33 -11z"/>
<path d="M7070 531 c0 -9 24 -21 41 -21 5 0 9 7 9 15 0 9 -9 15 -25 15 -14 0
-25 -4 -25 -9z"/>
<path d="M2937 513 c-4 -3 -7 -11 -7 -17 0 -6 5 -5 12 2 6 6 9 14 7 17 -3 3
-9 2 -12 -2z"/>
<path d="M895 500 c-3 -5 1 -10 9 -10 9 0 16 5 16 10 0 6 -4 10 -9 10 -6 0
-13 -4 -16 -10z"/>
<path d="M1585 499 c-11 -17 1 -21 15 -4 8 9 8 15 2 15 -6 0 -14 -5 -17 -11z"/>
<path d="M4357 497 c-3 -8 -1 -20 4 -28 6 -10 9 -7 9 14 0 29 -5 35 -13 14z"/>
<path d="M6915 501 c-10 -17 16 -24 94 -28 49 -2 81 -9 91 -18 12 -13 12 -15
-8 -15 -12 0 -31 5 -41 12 -15 9 -36 9 -93 -1 -91 -15 -171 -20 -179 -9 -7 10
-43 11 -94 3 -31 -5 -44 -3 -54 9 -15 17 -46 21 -55 7 -3 -5 1 -12 9 -15 8 -3
14 -11 13 -18 -2 -10 71 -14 355 -16 l359 -2 -24 28 c-43 54 -77 69 -128 59
-29 -6 -68 -5 -112 2 -82 13 -125 14 -133 2z m-168 -67 c-3 -3 -12 -4 -19 -1
-8 3 -5 6 6 6 11 1 17 -2 13 -5z m483 -3 c-8 -5 -33 -5 -55 -1 -40 8 -40 8 15
9 35 0 50 -3 40 -8z"/>
<path d="M948 493 c6 -2 18 -2 25 0 6 3 1 5 -13 5 -14 0 -19 -2 -12 -5z"/>
<path d="M5835 490 c-3 -5 -1 -10 4 -10 6 0 11 5 11 10 0 6 -2 10 -4 10 -3 0
-8 -4 -11 -10z"/>
<path d="M1643 483 c15 -2 37 -2 50 0 12 2 0 4 -28 4 -27 0 -38 -2 -22 -4z"/>
<path d="M4410 470 c0 -13 7 -20 20 -20 19 0 19 1 3 20 -10 11 -19 20 -20 20
-2 0 -3 -9 -3 -20z"/>
<path d="M6737 476 c12 -9 29 -13 38 -10 9 4 27 1 41 -6 19 -10 27 -11 36 -2
17 17 9 20 -67 28 -66 6 -69 5 -48 -10z"/>
<path d="M2567 473 c18 -2 50 -2 70 0 21 2 7 4 -32 4 -38 0 -55 -2 -38 -4z"/>
<path d="M2688 473 c7 -3 16 -2 19 1 4 3 -2 6 -13 5 -11 0 -14 -3 -6 -6z"/>
<path d="M2898 473 c6 -2 18 -2 25 0 6 3 1 5 -13 5 -14 0 -19 -2 -12 -5z"/>
<path d="M2998 473 c7 -3 16 -2 19 1 4 3 -2 6 -13 5 -11 0 -14 -3 -6 -6z"/>
<path d="M3065 470 c3 -5 12 -7 20 -3 21 7 19 13 -6 13 -11 0 -18 -4 -14 -10z"/>
<path d="M124 454 c-17 -14 -17 -15 -1 -10 10 3 23 6 28 6 5 0 9 5 9 10 0 14
-13 12 -36 -6z"/>
<path d="M3728 463 c7 -3 16 -2 19 1 4 3 -2 6 -13 5 -11 0 -14 -3 -6 -6z"/>
<path d="M7308 463 c7 -3 16 -2 19 1 4 3 -2 6 -13 5 -11 0 -14 -3 -6 -6z"/>
<path d="M1403 453 c9 -2 25 -2 35 0 9 3 1 5 -18 5 -19 0 -27 -2 -17 -5z"/>
<path d="M1452 433 c-33 -39 -17 -42 21 -5 19 20 26 32 17 31 -8 0 -25 -12
-38 -26z"/>
<path d="M4473 453 c9 -2 25 -2 35 0 9 3 1 5 -18 5 -19 0 -27 -2 -17 -5z"/>
<path d="M5790 446 c0 -17 14 -29 23 -20 8 8 -3 34 -14 34 -5 0 -9 -6 -9 -14z"/>
<path d="M2395 440 c3 -5 12 -7 20 -3 21 7 19 13 -6 13 -11 0 -18 -4 -14 -10z"/>
<path d="M5058 443 c6 -2 18 -2 25 0 6 3 1 5 -13 5 -14 0 -19 -2 -12 -5z"/>
<path d="M3680 430 c0 -5 7 -7 15 -4 8 4 15 8 15 10 0 2 -7 4 -15 4 -8 0 -15
-4 -15 -10z"/>
<path d="M5855 430 c3 -5 10 -10 16 -10 5 0 9 5 9 10 0 6 -7 10 -16 10 -8 0
-12 -4 -9 -10z"/>
<path d="M6520 430 c0 -5 9 -10 21 -10 11 0 17 5 14 10 -3 6 -13 10 -21 10 -8
0 -14 -4 -14 -10z"/>
<path d="M65 420 c-3 -5 3 -10 14 -10 11 0 23 5 26 10 3 6 -3 10 -14 10 -11 0
-23 -4 -26 -10z"/>
<path d="M4249 421 c7 -5 30 -6 51 -4 31 4 40 1 54 -18 l16 -23 0 27 c0 27 -1
27 -67 27 -43 0 -63 -4 -54 -9z"/>
<path d="M4407 415 c-3 -11 -9 -84 -12 -162 -7 -128 -6 -143 9 -143 19 0 20 7
5 48 -9 25 -7 37 11 72 21 42 21 43 3 78 -13 26 -15 36 -5 39 13 5 15 37 3 68
l-8 20 -6 -20z"/>
<path d="M5913 423 c15 -2 39 -2 55 0 15 2 2 4 -28 4 -30 0 -43 -2 -27 -4z"/>
<path d="M5000 416 c0 -8 61 -12 66 -4 3 4 -11 8 -30 8 -20 0 -36 -2 -36 -4z"/>
<path d="M5140 400 c0 -5 5 -10 10 -10 6 0 10 5 10 10 0 6 -4 10 -10 10 -5 0
-10 -4 -10 -10z"/>
<path d="M5413 403 c15 -2 37 -2 50 0 12 2 0 4 -28 4 -27 0 -38 -2 -22 -4z"/>
<path d="M6560 390 c0 -5 7 -10 16 -10 8 0 12 5 9 10 -3 6 -10 10 -16 10 -5 0
-9 -4 -9 -10z"/>
<path d="M6860 391 l-35 -7 50 -7 c28 -3 55 -6 60 -6 87 2 146 7 151 12 4 4
-22 7 -57 7 -35 0 -80 2 -99 4 -19 2 -51 1 -70 -3z"/>
<path d="M1336 375 c-11 -8 -20 -24 -21 -36 -1 -11 -7 -24 -14 -28 -13 -8 -43
-61 -35 -61 6 0 24 14 62 50 15 14 45 40 67 58 l40 32 -40 0 c-22 0 -49 -7
-59 -15z"/>
<path d="M7260 380 c20 -13 60 -13 60 0 0 6 -17 10 -37 10 -28 0 -34 -3 -23
-10z"/>
<path d="M7385 363 c6 -24 5 -24 -27 -7 l-33 16 23 -22 c14 -13 30 -19 39 -16
9 4 26 0 38 -8 22 -15 23 -14 19 13 -4 26 -1 30 33 39 35 10 33 10 -30 9 -66
-1 -68 -2 -62 -24z"/>
<path d="M7575 375 c40 -18 228 -20 223 -2 -3 8 -40 13 -129 14 -111 2 -121 0
-94 -12z"/>
<path d="M290 370 c0 -13 40 -13 60 0 11 7 5 10 -22 10 -21 0 -38 -4 -38 -10z"/>
<path d="M2624 348 c-3 -5 -1 -15 6 -22 12 -16 61 -7 67 11 5 13 -66 23 -73
11z"/>
<path d="M2815 350 c-4 -6 -11 -8 -16 -4 -6 3 -8 -5 -5 -20 4 -23 2 -25 -19
-20 -12 3 -26 1 -29 -5 -4 -6 0 -11 8 -11 8 0 20 -9 26 -21 9 -17 8 -24 -9
-38 -12 -10 -21 -25 -21 -32 0 -11 -2 -11 -10 1 -8 12 -10 12 -11 -5 0 -11 -2
-28 -4 -38 -2 -10 1 -17 7 -15 14 5 127 188 128 206 0 14 -36 16 -45 2z"/>
<path d="M7524 344 c3 -9 6 -18 6 -20 0 -11 29 -2 33 10 7 18 -1 26 -26 26
-13 0 -17 -5 -13 -16z"/>
<path d="M5538 333 c6 -2 18 -2 25 0 6 3 1 5 -13 5 -14 0 -19 -2 -12 -5z"/>
<path d="M6088 333 c6 -2 18 -2 25 0 6 3 1 5 -13 5 -14 0 -19 -2 -12 -5z"/>
<path d="M7165 332 c-15 -11 -18 -33 -7 -56 6 -12 13 -29 16 -39 7 -22 32 -17
28 5 -3 17 44 38 82 38 20 0 19 1 -4 15 -14 8 -33 18 -42 21 -10 3 -18 10 -18
15 0 11 -41 12 -55 1z"/>
<path d="M5096 322 c-3 -6 -1 -14 5 -17 15 -10 25 3 12 16 -7 7 -13 7 -17 1z"/>
<path d="M6580 320 c0 -5 14 -10 31 -10 17 0 28 4 24 10 -3 6 -17 10 -31 10
-13 0 -24 -4 -24 -10z"/>
<path d="M4332 288 c1 -17 7 -43 15 -57 12 -24 13 -23 13 32 0 43 -4 57 -14
57 -10 0 -14 -10 -14 -32z"/>
<path d="M5161 278 c0 -13 7 -39 14 -58 13 -33 14 -33 21 -12 7 25 34 30 34 7
0 -15 19 -14 68 1 23 7 2 24 -26 22 -33 -2 -92 22 -92 39 0 6 -4 15 -10 18 -6
3 -10 -4 -9 -17z"/>
<path d="M2655 269 c-10 -15 3 -25 16 -12 7 7 7 13 1 17 -6 3 -14 1 -17 -5z"/>
<path d="M1195 204 c-39 -36 -25 -40 16 -4 19 16 29 30 23 30 -6 0 -23 -11
-39 -26z"/>
<path d="M7280 226 c0 -2 7 -6 15 -10 8 -3 15 -1 15 4 0 6 -7 10 -15 10 -8 0
-15 -2 -15 -4z"/>
<path d="M7235 200 c3 -5 8 -10 11 -10 2 0 4 5 4 10 0 6 -5 10 -11 10 -5 0 -7
-4 -4 -10z"/>
<path d="M2599 177 c-10 -28 -5 -37 19 -36 15 0 21 3 14 6 -6 2 -10 8 -7 13 3
4 -2 10 -10 14 -8 3 -15 4 -16 3z"/>
<path d="M3537 174 c-3 -3 -3 -12 0 -20 4 -10 -3 -14 -25 -14 -17 0 -34 -4
-37 -10 -9 -14 36 -12 60 3 11 7 21 20 23 30 3 17 -9 23 -21 11z"/>
<path d="M4336 145 c4 -8 10 -15 15 -15 4 0 6 7 3 15 -4 8 -10 15 -15 15 -4 0
-6 -7 -3 -15z"/>
<path d="M175 140 c-18 -8 -19 -9 -1 -9 13 -1 16 -6 12 -17 -5 -13 -4 -14 7
-6 17 15 75 20 78 7 1 -5 -7 -14 -17 -20 -11 -5 -21 -12 -24 -15 -16 -16 -55
-31 -57 -23 -2 5 -17 7 -34 5 -19 -3 -34 0 -39 8 -6 10 -13 9 -31 -4 -13 -9
-34 -16 -46 -16 -18 0 -23 -6 -23 -25 0 -25 1 -25 79 -25 79 0 80 1 126 40 25
22 53 40 61 40 8 0 14 3 14 8 0 4 14 16 30 27 16 11 30 23 30 28 0 10 -140 8
-165 -3z"/>
<path d="M2790 139 c0 -5 10 -9 23 -10 21 0 21 -1 2 -8 -11 -5 -28 -7 -37 -5
-11 2 -15 -2 -11 -12 3 -8 -1 -14 -9 -14 -12 0 -58 -66 -58 -84 0 -3 11 -6 23
-6 16 0 28 9 35 25 6 14 16 25 22 25 7 0 9 8 5 20 -6 18 -2 20 42 21 59 1 108
17 55 18 -19 1 -31 5 -27 11 3 6 45 10 92 10 48 0 84 2 81 5 -9 9 -238 14
-238 4z"/>
<path d="M3090 140 c-71 -11 -2 -16 115 -10 66 4 109 8 95 9 -49 6 -175 6
-210 1z"/>
<path d="M5127 144 c-4 -4 -7 -18 -7 -31 0 -17 6 -23 21 -23 16 0 20 5 17 27
-3 26 -18 39 -31 27z"/>
<path d="M4461 121 c-9 -6 -1 -10 25 -13 22 -3 41 -4 43 -2 13 12 -50 25 -68
15z"/>
<path d="M365 110 c-3 -5 -1 -10 4 -10 6 0 11 5 11 10 0 6 -2 10 -4 10 -3 0
-8 -4 -11 -10z"/>
<path d="M4578 113 c12 -2 30 -2 40 0 9 3 -1 5 -23 4 -22 0 -30 -2 -17 -4z"/>
<path d="M2980 100 c25 -7 25 -7 -5 -11 -36 -5 -31 -25 5 -22 14 2 73 4 132 7
58 2 112 7 118 11 7 4 55 7 108 7 91 0 93 1 37 8 -78 10 -428 10 -395 0z"/>
<path d="M4960 100 c0 -5 7 -10 15 -10 8 0 15 5 15 10 0 6 -7 10 -15 10 -8 0
-15 -4 -15 -10z"/>
<path d="M1137 92 c-9 -4 -27 -22 -38 -41 -15 -24 -25 -32 -39 -28 -11 3 -20
1 -20 -4 0 -5 -7 -9 -17 -9 -9 0 -14 -2 -11 -5 7 -8 90 12 97 23 3 4 23 20 43
34 47 31 37 50 -15 30z"/>
<path d="M3448 93 c6 -2 18 -2 25 0 6 3 1 5 -13 5 -14 0 -19 -2 -12 -5z"/>
<path d="M3588 93 c7 -3 16 -2 19 1 4 3 -2 6 -13 5 -11 0 -14 -3 -6 -6z"/>
<path d="M4283 83 c9 -2 23 -2 30 0 6 3 -1 5 -18 5 -16 0 -22 -2 -12 -5z"/>
<path d="M4386 68 c-3 -13 -6 -33 -6 -45 0 -21 4 -23 53 -22 44 1 48 2 22 9
-27 7 -18 15 12 11 6 -1 14 3 18 9 4 6 -4 10 -18 10 -14 0 -30 7 -37 15 -11
13 -5 15 44 15 31 0 56 5 56 10 0 6 -30 10 -69 10 -63 0 -69 -2 -75 -22z"/>
<path d="M3566 56 c-3 -13 -9 -31 -12 -40 -4 -10 -1 -16 8 -16 9 0 14 13 14
40 2 46 -1 50 -10 16z"/>
<path d="M2808 53 c7 -3 16 -2 19 1 4 3 -2 6 -13 5 -11 0 -14 -3 -6 -6z"/>
<path d="M2823 33 c-13 -2 -23 -9 -23 -15 0 -6 9 -8 20 -5 11 3 23 1 26 -4 7
-13 194 -12 194 1 0 11 -7 13 -70 15 -25 0 -63 4 -85 7 -22 3 -50 4 -62 1z"/>
<path d="M463 20 c-34 -14 -28 -20 17 -20 29 0 40 4 40 15 0 17 -23 19 -57 5z"/>
<path d="M1341 15 c-23 -13 -22 -13 23 -13 31 0 46 4 43 11 -5 17 -38 18 -66
2z"/>
<path d="M4540 15 c0 -9 9 -15 21 -15 18 0 19 2 5 15 -8 8 -17 15 -20 15 -3 0
-6 -7 -6 -15z"/>
<path d="M3210 10 c0 -5 14 -10 31 -10 17 0 28 4 24 10 -8 13 -55 13 -55 0z"/>
<path d="M1288 3 c7 -3 16 -2 19 1 4 3 -2 6 -13 5 -11 0 -14 -3 -6 -6z"/>
<path d="M4668 3 c6 -2 18 -2 25 0 6 3 1 5 -13 5 -14 0 -19 -2 -12 -5z"/>
</g>
</svg>
