<?xml version="1.0" standalone="no"?>
<!DOCTYPE svg PUBLIC "-//W3C//DTD SVG 20010904//EN"
 "http://www.w3.org/TR/2001/REC-SVG-20010904/DTD/svg10.dtd">
<svg version="1.0" xmlns="http://www.w3.org/2000/svg"
 width="750.000000pt" height="422.000000pt" viewBox="0 0 750.000000 422.000000"
 preserveAspectRatio="xMidYMid meet">

<g transform="translate(0.000000,422.000000) scale(0.100000,-0.100000)"
fill="#000000" stroke="none">
<path d="M1 3558 c1 -365 4 -654 6 -643 13 51 100 102 156 91 17 -4 66 -11
108 -15 80 -9 104 -19 153 -63 26 -23 37 -27 68 -22 58 10 86 -31 73 -107 -9
-52 -72 -123 -86 -97 -5 9 -23 19 -40 23 -17 4 -33 13 -36 21 -2 7 -13 16 -24
19 -11 4 -17 10 -14 15 7 11 -25 25 -62 29 -7 0 -13 8 -13 16 0 12 -14 15 -64
15 -77 0 -98 16 -72 55 15 23 15 24 -1 18 -10 -4 -21 -11 -25 -17 -3 -5 -34
-10 -67 -10 l-61 -1 0 -130 c0 -94 4 -138 15 -158 11 -21 12 -33 3 -52 -12
-26 -4 -60 12 -50 5 3 10 15 10 26 0 34 31 20 50 -23 10 -24 35 -59 54 -77 20
-19 36 -40 36 -47 0 -22 -40 -27 -61 -8 -11 10 -19 12 -19 6 0 -7 5 -12 10
-12 16 0 12 -14 -15 -42 -55 -59 -16 -80 42 -23 34 33 40 35 80 29 35 -5 44
-3 49 11 10 25 -10 39 -36 25 -16 -9 -25 -9 -33 -1 -8 8 3 24 41 57 l52 46 0
68 c0 104 25 104 49 0 18 -72 21 -76 35 -48 8 14 20 22 33 21 16 -2 22 5 27
27 3 17 9 30 14 30 4 0 25 -16 46 -35 27 -25 48 -35 70 -35 18 0 54 -11 82
-23 27 -13 63 -30 80 -37 17 -7 35 -22 40 -33 8 -17 23 -20 119 -24 156 -7
169 -8 182 -16 18 -11 68 45 128 146 89 149 167 221 276 255 58 18 61 20 29
21 -20 1 -41 -4 -48 -11 -9 -9 -12 -9 -12 0 0 15 73 62 125 80 22 7 70 29 108
48 37 19 69 34 71 34 8 0 -22 -53 -36 -62 -9 -7 -8 -8 5 -4 10 3 15 2 12 -4
-3 -5 3 -19 14 -32 11 -13 27 -32 35 -43 13 -18 14 -17 9 23 l-6 43 64 -6 c67
-6 91 -20 115 -67 22 -43 37 -35 30 16 -4 27 -3 47 4 51 6 4 10 -7 10 -29 0
-36 13 -55 25 -35 4 5 13 8 21 5 8 -3 14 -2 14 3 0 4 11 13 25 19 30 14 105
-4 105 -25 0 -15 -31 -72 -52 -97 -10 -11 -18 -23 -18 -27 0 -4 -8 -15 -17
-25 -13 -13 -14 -16 -3 -12 27 8 129 163 131 197 0 10 2 12 6 4 7 -19 26 -16
46 7 18 22 24 55 7 45 -15 -9 -12 15 4 31 8 8 19 14 25 14 23 0 9 17 -24 30
-19 7 -36 19 -39 26 -5 14 96 -19 122 -39 8 -6 17 -6 26 2 8 7 17 8 20 3 8
-13 -4 -22 -26 -22 -25 0 -42 -41 -34 -84 4 -20 10 -36 13 -36 3 0 21 9 39 21
30 18 34 25 34 67 0 77 1 86 9 97 5 5 11 36 14 68 3 32 12 66 19 74 20 24 129
73 164 73 16 0 67 18 112 40 45 21 100 45 123 51 52 16 59 7 59 -81 0 -99 12
-105 50 -24 18 38 39 86 47 107 18 43 25 46 40 15 6 -13 32 -66 57 -119 38
-79 55 -102 92 -129 25 -17 43 -34 40 -37 -7 -8 -78 38 -101 65 l-20 24 -55
-23 c-30 -12 -71 -25 -90 -29 l-35 -7 30 -7 c43 -11 70 -24 152 -74 40 -24 80
-45 90 -46 13 -2 18 -12 18 -32 0 -26 4 -29 30 -29 22 0 34 8 50 32 24 38 34
40 63 13 31 -29 56 -25 88 18 30 40 54 61 68 62 5 0 3 -7 -4 -15 -7 -8 -8 -15
-3 -15 17 0 115 109 108 120 -8 14 -101 61 -107 54 -14 -13 7 -56 31 -66 l26
-10 -24 -9 c-31 -12 -54 6 -45 34 6 20 5 20 -17 6 -57 -37 -68 -43 -75 -37 -3
4 10 26 30 49 19 23 33 46 30 51 -3 4 4 45 15 91 32 132 34 172 15 212 -30 64
-6 49 44 -28 45 -69 112 -210 112 -236 0 -6 5 -11 11 -11 7 0 9 9 5 23 -3 12
-6 37 -6 55 0 20 -4 31 -10 27 -6 -3 -10 4 -10 16 0 13 -8 32 -19 43 -10 12
-27 35 -37 51 l-18 30 30 -25 c44 -38 89 -60 123 -60 17 0 56 -12 88 -26 79
-35 162 -64 186 -64 29 0 106 -67 113 -98 8 -36 54 -103 66 -96 5 3 20 -1 33
-10 32 -21 33 -21 27 10 -4 23 -2 25 15 20 17 -5 26 4 53 48 19 32 48 62 69
74 20 12 52 37 71 56 19 19 42 36 51 36 22 0 139 -117 139 -140 0 -6 11 -10
24 -10 40 0 40 -42 -1 -82 -51 -48 -64 -80 -57 -129 4 -22 13 -46 21 -52 8 -7
25 -23 38 -37 36 -36 48 -18 34 53 -11 64 -9 142 5 142 5 0 11 -11 13 -23 4
-30 18 -50 85 -120 61 -63 96 -112 80 -112 -11 0 -72 60 -72 72 0 15 -20 8
-41 -13 -15 -15 -19 -28 -14 -46 4 -17 2 -22 -5 -18 -19 11 -58 -4 -85 -33
-31 -33 -31 -38 -2 -47 14 -4 17 -8 9 -12 -7 -3 -21 2 -31 11 -15 14 -23 15
-44 5 -15 -7 -24 -16 -21 -20 2 -5 -13 -17 -36 -29 -22 -11 -40 -24 -40 -29 0
-5 -16 -15 -35 -21 -19 -6 -44 -23 -55 -37 -23 -30 -27 -65 -6 -57 8 3 17 1
21 -5 3 -6 15 -11 25 -11 10 0 22 -9 25 -20 8 -26 25 -26 25 0 0 11 5 20 10
20 6 0 10 4 10 8 0 16 135 148 163 160 38 16 72 15 108 -4 29 -15 32 -14 66
12 20 15 46 28 58 30 13 1 32 5 43 8 11 4 24 0 32 -9 15 -18 59 -20 95 -3 32
14 31 21 -2 48 -24 19 -26 24 -14 42 10 17 10 23 -5 39 -16 18 -18 18 -50 -16
-42 -45 -60 -45 -29 0 13 20 29 53 36 73 6 20 15 42 19 47 17 23 19 62 5 81
-14 18 -14 18 -15 -6 0 -36 -30 -108 -47 -114 -23 -9 -35 4 -29 30 7 25 5 27
-48 39 l-28 6 32 29 32 29 -42 3 -43 3 52 22 c51 21 53 21 71 3 18 -18 18 -18
24 3 9 33 7 44 -4 27 -6 -9 -10 -10 -10 -3 0 6 4 15 10 18 6 3 10 14 9 23 0
14 -2 13 -9 -3 -7 -15 -9 -16 -9 -4 -1 17 -81 76 -81 61 0 -5 10 -25 23 -43
29 -43 25 -59 -15 -59 -25 0 -29 3 -25 19 4 16 -2 21 -34 26 -38 7 -51 26 -28
40 6 4 8 22 5 44 -9 51 7 71 29 38 9 -14 26 -27 38 -29 26 -5 77 21 77 39 0 7
6 13 13 13 9 0 9 2 -1 9 -8 4 -13 11 -13 15 4 32 -13 34 -90 8 -47 -15 -60
-16 -97 -5 -29 8 -51 9 -68 3 -30 -12 -44 -13 -44 -2 0 4 11 8 24 8 14 1 41
18 61 38 31 31 33 36 15 36 -11 0 -20 5 -20 10 0 6 11 10 24 10 13 0 39 6 57
14 19 8 60 17 91 21 52 7 58 6 58 -11 0 -11 8 -32 18 -49 10 -16 22 -42 25
-57 4 -16 14 -28 22 -28 8 0 15 -4 15 -10 0 -5 9 -10 20 -10 30 0 25 -37 -9
-69 -23 -21 -31 -40 -36 -84 -7 -54 -6 -59 19 -78 23 -18 26 -28 26 -79 0 -44
4 -59 16 -64 25 -10 27 -8 20 29 l-7 34 42 -14 c58 -21 66 -19 67 13 0 15 4
54 9 87 l8 60 50 16 c43 15 55 24 82 70 45 75 58 79 83 27 11 -23 18 -50 15
-59 -7 -21 9 -32 35 -24 36 12 36 75 0 75 -28 0 -32 15 -15 55 14 34 17 36 47
30 18 -4 44 -15 58 -25 14 -9 42 -23 63 -30 21 -6 49 -22 62 -33 53 -49 61
-57 79 -80 16 -20 24 -23 48 -16 23 6 28 5 28 -10 0 -23 -17 -37 -53 -46 -19
-5 -27 -13 -27 -30 0 -31 -20 -45 -63 -43 -40 1 -63 19 -54 42 4 9 -8 25 -28
41 -29 22 -38 24 -56 14 -12 -6 -36 -9 -54 -6 -18 3 -44 -1 -59 -8 -24 -13
-26 -12 -32 11 -8 30 -26 31 -63 3 -16 -12 -34 -18 -41 -14 -9 5 -10 1 -5 -14
7 -24 -4 -27 -25 -8 -12 10 -12 9 0 -6 10 -14 10 -21 2 -29 -7 -7 -12 -25 -12
-41 0 -21 -6 -30 -20 -34 -17 -4 -9 -11 37 -36 66 -35 85 -55 114 -118 l20
-46 74 -6 c41 -4 98 -2 128 4 l54 11 0 39 c0 21 -4 39 -8 39 -18 0 -8 22 26
56 19 19 35 44 35 54 0 24 35 27 48 5 6 -12 14 -7 35 26 15 22 27 45 27 50 0
21 30 6 55 -27 21 -27 30 -33 36 -23 13 21 11 49 -3 44 -12 -5 -48 45 -48 66
0 23 86 -16 93 -42 3 -11 37 -33 88 -57 89 -41 133 -81 170 -152 19 -36 25
-40 48 -36 39 8 62 -14 55 -52 -4 -18 -10 -29 -14 -27 -5 3 -6 -4 -3 -15 6
-22 82 -90 101 -90 6 0 13 -6 16 -12 5 -10 7 -10 12 0 3 6 10 10 15 7 21 -14
80 8 101 38 13 19 18 32 11 34 -14 5 -5 42 15 66 10 11 30 17 59 17 48 0 55
12 19 32 -43 24 -111 71 -118 82 -4 6 -8 23 -8 39 0 30 -17 36 -27 10 -11 -29
-25 -33 -53 -13 -38 27 -55 63 -41 89 14 26 38 27 46 2 6 -20 48 -36 65 -26 6
4 10 22 10 42 0 39 26 69 68 80 31 7 43 -11 40 -62 -2 -32 0 -40 14 -39 9 1
33 -14 55 -32 38 -34 38 -43 -2 -57 -6 -2 -5 -14 3 -32 11 -23 11 -30 0 -36
-7 -4 -9 -11 -5 -15 13 -14 71 -12 94 3 21 14 25 14 43 -2 16 -15 22 -16 35
-5 22 18 45 76 45 111 0 19 5 29 14 29 15 0 47 -40 60 -75 7 -19 8 -19 20 -2
7 9 24 17 37 17 27 0 151 -60 176 -85 34 -34 43 -119 42 -390 -1 -143 2 -272
6 -288 6 -23 1 -33 -36 -70 l-42 -42 -9 35 c-13 47 -24 57 -45 38 -10 -8 -26
-15 -36 -15 -17 0 -18 7 -12 56 6 54 4 58 -29 93 -18 20 -37 34 -40 31 -3 -4
-6 0 -6 7 0 7 -10 22 -22 34 -35 34 -60 84 -60 122 0 40 -2 40 -45 15 -57 -35
-137 -151 -104 -151 15 0 5 -62 -18 -114 -16 -33 -27 -46 -39 -44 -13 3 -16
12 -13 43 9 86 7 100 -14 103 -11 1 -30 -6 -42 -17 -11 -11 -37 -23 -57 -26
-35 -7 -36 -6 -36 23 0 17 -6 32 -15 36 -8 3 -12 12 -9 19 3 9 -8 20 -31 32
-28 13 -36 21 -32 36 5 17 -4 24 -26 20 -5 -1 -41 27 -80 61 -40 35 -88 72
-107 82 -19 11 -37 22 -40 26 -3 3 -29 12 -57 19 -65 16 -113 0 -113 -36 0
-12 -13 -36 -30 -53 -16 -17 -30 -36 -30 -43 0 -20 44 -97 56 -97 15 0 81 73
96 106 6 13 16 24 22 24 17 0 110 -65 157 -110 23 -22 45 -40 49 -40 4 0 15
-9 26 -21 10 -12 32 -28 49 -36 43 -22 47 -35 22 -58 -12 -11 -28 -31 -35 -45
-7 -14 -10 -17 -7 -7 5 17 1 18 -45 12 -45 -6 -57 -14 -122 -78 -40 -40 -85
-80 -100 -90 -16 -10 -28 -22 -28 -27 0 -12 -30 -43 -56 -59 -15 -10 -10 -11
26 -5 39 6 43 5 32 -9 -10 -12 -7 -17 21 -30 19 -9 43 -13 57 -10 24 6 60 37
60 51 0 17 -37 42 -63 42 -17 0 -27 5 -27 15 0 8 5 15 10 15 6 0 26 16 46 35
38 38 73 45 99 18 12 -11 15 -25 11 -45 -7 -37 16 -34 24 3 7 30 34 32 38 2 2
-12 -5 -27 -17 -35 -12 -8 -18 -18 -14 -22 4 -4 3 -10 -2 -14 -13 -9 -46 -80
-51 -111 -6 -30 -25 -48 -57 -56 -14 -4 -28 -13 -31 -21 -3 -8 -19 -14 -36
-14 -27 0 -30 -2 -20 -19 5 -11 23 -26 39 -34 23 -11 33 -12 52 -2 12 7 29 11
36 8 12 -5 17 3 43 74 7 18 21 42 31 54 10 12 19 30 19 40 0 9 14 29 30 42 17
14 30 29 31 34 1 4 25 30 55 57 l53 48 -6 -53 c-3 -30 -9 -58 -14 -64 -5 -5
-9 -17 -9 -27 0 -10 -4 -18 -10 -18 -5 0 -10 -9 -10 -20 0 -11 5 -20 10 -20
19 0 10 -28 -15 -44 -14 -9 -25 -22 -25 -29 0 -6 -12 -23 -25 -36 -14 -13 -25
-29 -25 -35 0 -7 -16 -31 -35 -54 -28 -32 -34 -46 -29 -66 4 -17 -1 -37 -15
-59 -12 -19 -21 -47 -21 -63 0 -16 -9 -54 -19 -84 -16 -48 -19 -52 -24 -30 -3
14 -3 -2 0 -35 3 -36 12 -69 24 -84 16 -20 17 -25 5 -35 -12 -8 -15 -44 -17
-158 -2 -82 0 -148 4 -149 5 -1 22 5 39 12 30 12 33 11 59 -20 19 -23 33 -32
50 -29 13 2 23 9 21 16 -3 17 15 15 49 -5 25 -15 31 -15 56 -2 15 7 35 21 43
30 15 16 22 18 138 40 55 10 65 10 79 -4 14 -14 8 -16 -62 -28 -42 -6 -83 -18
-91 -26 -15 -15 -19 -43 -6 -43 4 0 45 -2 92 -4 101 -4 126 3 132 39 4 20 0
29 -20 39 l-25 13 23 21 c26 24 25 62 -5 198 -15 71 -20 81 -36 77 -13 -4 -19
0 -19 11 0 26 -57 20 -106 -11 -47 -30 -52 -38 -29 -47 19 -7 20 -36 0 -36 -8
0 -26 -18 -40 -40 -14 -22 -29 -40 -33 -40 -17 1 -28 17 -37 55 -9 36 -13 40
-40 38 -45 -3 -156 -20 -188 -28 -26 -7 -28 -5 -25 16 2 13 9 23 16 22 6 -2
38 4 69 13 32 9 77 20 100 25 24 4 64 18 90 29 124 55 190 80 207 80 12 0 15
10 12 47 -8 105 -18 182 -34 272 -15 90 -15 94 2 107 11 7 23 11 27 8 5 -3 9
-1 9 4 0 12 -49 22 -107 22 -25 0 -42 4 -38 9 3 6 -1 13 -9 18 -8 4 -14 17
-13 28 2 16 -4 20 -25 20 -14 -1 -24 3 -22 7 3 4 12 8 21 8 10 0 14 6 10 20
-3 11 -1 23 4 26 15 9 10 34 -6 34 -8 0 -15 -4 -15 -10 0 -15 -40 -12 -46 4
-3 7 3 31 12 52 9 22 25 59 34 84 10 28 23 45 32 45 9 0 20 4 24 8 14 14 35 7
59 -20 22 -26 22 -29 7 -46 -11 -12 -24 -16 -42 -12 -14 3 -33 0 -44 -8 -19
-14 -19 -15 3 -27 18 -9 22 -18 18 -38 -4 -21 3 -36 32 -69 36 -42 71 -56 71
-30 0 18 53 67 72 67 9 0 20 -9 23 -21 6 -19 10 -17 48 24 39 41 87 67 87 46
0 -5 -4 -9 -10 -9 -5 0 -10 -9 -10 -20 0 -11 -5 -20 -11 -20 -6 0 -9 -6 -6
-14 3 -8 -1 -20 -9 -26 -22 -19 -17 -40 8 -37 12 1 23 -4 24 -10 1 -7 2 -21 3
-30 2 -15 4 -14 11 5 5 12 14 22 20 22 5 0 9 3 8 8 -6 18 70 115 83 106 14 -8
10 -24 -6 -24 -10 0 -15 -11 -15 -35 0 -19 -4 -35 -10 -35 -5 0 -10 -4 -10 -9
0 -6 15 -7 33 -4 28 4 35 1 46 -21 18 -33 31 -24 31 24 0 25 5 40 16 44 32 12
74 6 95 -15 l21 -21 -23 -24 c-20 -21 -21 -28 -11 -44 11 -18 9 -20 -15 -20
l-27 0 21 -15 c16 -11 28 -13 40 -6 10 5 33 15 51 21 l32 12 0 1234 0 1234
-1206 0 c-876 0 -1205 -3 -1202 -11 2 -6 21 -17 43 -25 49 -16 65 -37 65 -83
-1 -30 -7 -40 -40 -63 -32 -23 -40 -34 -41 -60 0 -18 -4 -42 -8 -53 -10 -25 0
-35 78 -75 34 -18 65 -39 68 -46 3 -8 -21 -38 -57 -71 l-61 -58 26 -57 c14
-31 28 -79 32 -107 5 -45 -10 -162 -25 -185 -8 -13 -20 23 -21 60 -1 17 -8 37
-16 44 -8 7 -15 19 -15 26 0 8 -4 14 -10 14 -5 0 -10 6 -10 13 0 30 -105 87
-185 101 -22 4 -66 11 -97 17 -37 6 -64 6 -75 0 -10 -6 -36 -18 -58 -28 -40
-17 -61 -32 -96 -65 -13 -12 -19 -13 -23 -5 -2 7 -4 -8 -2 -33 1 -25 8 -56 15
-69 10 -18 10 -22 1 -19 -14 4 -45 84 -55 141 -4 28 -11 37 -25 37 -11 0 -20
5 -20 11 0 14 -84 98 -145 145 -53 40 -194 114 -218 114 -8 0 -29 5 -47 12
-31 10 -32 12 -15 25 18 13 18 13 -1 13 -14 0 -16 2 -5 9 9 6 4 10 -19 13 -39
6 -76 -21 -44 -32 13 -5 7 -9 -21 -13 -84 -14 -206 -5 -194 14 1 2 -1 14 -5
27 -5 14 -15 22 -30 22 -25 0 -31 -12 -57 -100 -18 -64 -20 -65 -40 -39 l-19
24 11 -33 c9 -26 9 -36 -1 -45 -10 -9 -14 -9 -17 0 -10 29 -45 62 -58 56 -10
-3 -15 1 -15 11 0 12 -6 15 -25 10 -14 -3 -25 -2 -25 4 0 5 -11 7 -24 5 -13
-3 -33 0 -44 6 -14 7 -29 8 -46 1 -25 -9 -40 0 -41 25 0 5 -8 11 -17 13 -11 2
-18 -5 -20 -20 -3 -22 -7 -23 -88 -25 -47 -1 -78 0 -70 3 8 3 22 8 30 12 8 3
36 6 62 7 26 0 48 5 47 10 0 6 -18 9 -39 7 l-40 -3 4 40 c4 45 -11 54 -31 21
-8 -12 -9 -21 -3 -25 13 -8 13 -35 0 -35 -5 0 -10 7 -10 15 0 15 -16 19 -52
16 -12 -2 -18 5 -18 20 0 18 5 21 30 17 25 -4 40 6 40 26 0 1 -10 2 -22 3 -42
2 -73 -17 -91 -56 -16 -34 -21 -38 -51 -35 -27 2 -35 -2 -39 -18 -5 -17 -2
-19 18 -14 39 10 37 -9 -2 -23 -41 -15 -53 -6 -45 36 4 19 1 24 -9 21 -8 -2
-15 -16 -17 -31 -2 -14 -9 -31 -17 -37 -19 -16 -55 -3 -55 20 0 10 -4 22 -10
25 -5 3 -10 15 -10 25 0 15 7 18 42 17 50 -2 60 14 18 30 -23 9 -30 8 -30 -1
0 -8 -14 -12 -35 -12 -41 1 -44 10 -10 32 25 16 25 29 2 29 -7 0 -12 7 -12 15
0 16 48 27 138 33 42 3 51 8 64 33 15 30 107 95 158 110 17 6 74 7 127 4 85
-4 95 -3 85 10 -7 8 -16 18 -20 21 -5 3 -8 9 -8 13 1 3 1 11 1 16 0 7 -256 10
-747 10 l-747 0 23 -21 c13 -12 27 -34 33 -50 7 -21 20 -31 46 -39 21 -5 42
-10 48 -10 20 0 62 -55 65 -85 4 -58 -1 -73 -45 -117 -42 -43 -132 -98 -158
-98 -9 0 -9 3 2 10 8 5 12 11 9 14 -7 7 -89 -15 -89 -24 0 -7 -70 -19 -143
-25 -31 -2 -47 -11 -81 -49 -56 -60 -92 -63 -142 -10 l-35 35 -182 -11 c-125
-8 -192 -17 -213 -27 -38 -19 -107 -13 -135 12 -16 15 -23 16 -49 5 -20 -8
-50 -10 -85 -6 -47 5 -59 3 -90 -19 -28 -18 -44 -23 -68 -18 -47 9 -67 21 -67
42 0 30 -26 44 -68 37 -32 -5 -43 -1 -71 22 -27 22 -34 37 -38 76 -5 40 -11
51 -34 65 -38 21 -64 74 -49 100 20 39 41 51 88 51 31 0 53 6 66 19 40 35 83
43 146 25 54 -15 60 -15 83 1 23 14 34 15 78 6 47 -10 54 -9 73 8 27 24 79 35
105 22 16 -9 27 -7 53 9 39 23 111 26 148 5 38 -21 120 4 120 37 0 4 -265 8
-590 8 l-590 0 1 -662z m3131 290 c-13 -13 -64 -15 -69 -1 -2 7 8 13 24 15 36
5 57 -2 45 -14z m-47 -38 c26 -1 28 -2 12 -11 -25 -14 -67 -3 -67 18 0 13 3
14 12 5 7 -7 26 -12 43 -12z m-48 -26 c-3 -3 -12 -4 -19 -1 -8 3 -5 6 6 6 11
1 17 -2 13 -5z m-154 -38 c4 -10 1 -13 -8 -9 -8 3 -12 9 -9 14 7 12 11 11 17
-5z m-507 -80 c42 -48 56 -138 28 -181 -15 -23 -14 -28 9 -77 34 -72 38 -91
27 -108 -9 -13 -12 -13 -21 3 -6 10 -22 17 -39 17 -18 0 -34 7 -42 19 -11 18
-12 18 -50 -1 -38 -20 -98 -86 -98 -107 0 -7 -12 -5 -32 6 -18 9 -49 18 -68
20 -46 5 -54 15 -52 62 3 44 -14 63 -33 38 -33 -46 -105 12 -112 90 -4 36 -1
52 10 62 18 14 59 11 64 -5 2 -7 -8 -9 -27 -6 -26 4 -30 1 -29 -19 0 -13 3
-18 6 -11 10 24 25 12 18 -16 -4 -22 0 -33 25 -57 30 -29 54 -29 30 0 -7 9
-11 18 -8 21 7 7 61 -15 71 -29 7 -9 10 -9 14 1 2 7 11 18 18 26 7 7 15 33 18
59 6 57 8 60 62 97 29 20 42 36 39 45 -7 17 11 37 57 63 45 25 87 21 115 -12z
m3562 -33 c27 -54 34 -120 16 -161 -16 -38 -33 -38 -52 1 -9 18 -21 27 -38 27
-17 0 -24 5 -24 20 0 24 -9 25 -58 4 -38 -16 -287 -43 -298 -32 -15 16 58 103
108 129 54 28 150 26 191 -3 18 -12 34 -26 35 -30 11 -24 72 31 72 65 0 30 29
18 48 -20z m-2333 -53 c-3 -5 -11 -10 -16 -10 -6 0 -7 5 -4 10 3 6 11 10 16
10 6 0 7 -4 4 -10z m1820 -67 c18 -13 17 -13 -15 -11 -31 3 -35 0 -36 -22 -2
-55 -4 -61 -15 -54 -9 5 -10 -1 -5 -22 l7 -29 -18 25 c-22 31 -25 126 -4 139
14 9 48 -1 86 -26z m-3712 -18 c8 -18 -11 -31 -25 -17 -11 11 -3 32 12 32 4 0
10 -7 13 -15z m3707 -31 c0 -8 -7 -14 -15 -14 -15 0 -21 21 -9 33 10 9 24 -2
24 -19z m-1891 -49 c0 -5 -4 -3 -9 5 -5 8 -9 22 -9 30 0 16 17 -16 18 -35z
m-259 20 c0 -8 -4 -15 -10 -15 -5 0 -10 7 -10 15 0 8 5 15 10 15 6 0 10 -7 10
-15z m3733 4 c21 -6 53 -25 70 -43 38 -39 74 -102 64 -112 -4 -4 -42 -2 -85 6
-42 7 -101 15 -131 18 -48 4 -56 1 -72 -19 -16 -21 -21 -22 -39 -11 -17 10
-21 10 -19 0 5 -29 -14 -110 -28 -115 -8 -3 -24 3 -36 14 -12 11 -33 23 -47
27 -14 3 -40 19 -59 36 -32 28 -33 31 -18 48 15 16 15 20 1 34 -14 13 -9 17
44 36 68 25 94 27 122 10 14 -9 23 -10 28 -3 4 6 25 25 47 42 54 41 95 50 158
32z m-5309 -44 c-4 -17 -2 -25 7 -26 16 0 -19 -17 -38 -18 -18 -1 -16 15 3 44
21 32 36 32 28 0z m1616 -18 c0 -8 -7 -14 -15 -14 -11 0 -12 4 -4 14 6 7 13
13 15 13 2 0 4 -6 4 -13z m3139 -59 c19 -7 22 -11 12 -21 -9 -9 -4 -14 21 -24
26 -9 28 -12 11 -12 -14 -1 -23 -8 -25 -23 -2 -12 -18 -30 -38 -41 -53 -29
-81 -77 -45 -77 22 0 18 -27 -5 -33 -11 -3 -20 0 -20 6 0 8 -3 8 -11 0 -13
-13 -3 -36 12 -28 5 4 9 -15 9 -42 0 -42 -3 -49 -20 -50 -29 -2 -39 25 -46
125 -8 105 7 170 48 214 28 30 32 31 97 6z m-4735 -13 c-16 -24 -15 -25 9 -34
35 -13 43 -31 15 -31 -13 0 -28 4 -33 8 -15 10 -17 53 -3 69 19 23 29 14 12
-12z m634 -43 c-8 -2 -27 2 -43 8 -26 10 -27 11 -10 30 17 18 18 18 42 -8 19
-20 21 -28 11 -30z m4970 36 c4 -22 -46 -31 -113 -19 -27 5 -42 9 -32 10 9 0
17 5 17 10 0 12 34 19 85 17 29 -1 41 -6 43 -18z m-5065 -85 c4 -7 23 -13 40
-13 18 0 38 -5 45 -12 7 -7 12 -8 12 -4 0 15 -34 35 -57 36 -13 0 -23 5 -23
10 0 14 53 13 85 -2 25 -11 28 -24 16 -68 -5 -17 -9 -21 -15 -12 -4 6 -14 12
-21 12 -12 0 -12 -4 2 -19 9 -11 20 -18 25 -15 4 3 8 -13 8 -35 0 -46 -3 -48
-57 -23 -66 29 -90 63 -99 138 -5 45 -4 47 13 33 10 -8 22 -20 26 -26z m2464
-30 c-3 -10 -5 -4 -5 12 0 17 2 24 5 18 2 -7 2 -21 0 -30z m-2964 -23 c-17
-30 -33 -39 -33 -19 0 20 21 49 36 49 13 0 13 -4 -3 -30z m-3 -133 c0 -18 -4
-37 -8 -44 -4 -6 -7 10 -7 37 0 26 3 46 8 43 4 -2 7 -19 7 -36z m3916 -2 c-5
-19 -1 -28 20 -41 20 -14 24 -22 19 -43 -11 -42 -24 -51 -77 -51 -27 0 -59 -7
-73 -16 -13 -8 -34 -14 -47 -12 -18 2 -24 10 -26 39 -6 66 36 122 53 70 3 -10
14 -26 25 -36 18 -16 23 -17 48 -4 l27 13 -32 4 c-27 3 -33 7 -33 28 0 17 8
27 24 33 13 5 26 17 29 25 4 9 16 16 28 16 18 0 20 -4 15 -25z m-2221 5 c3 -5
1 -10 -4 -10 -6 0 -11 5 -11 10 0 6 2 10 4 10 3 0 8 -4 11 -10z m1702 -62 c-3
-8 -6 -5 -6 6 -1 11 2 17 5 13 3 -3 4 -12 1 -19z m-3501 -10 c-3 -13 -6 -31
-6 -40 0 -10 -7 -18 -15 -18 -15 0 -14 19 1 68 7 23 27 13 20 -10z m159 -8
c-10 -11 -20 -18 -23 -15 -7 6 18 35 31 35 5 0 2 -9 -8 -20z m4580 -20 c-3 -5
-10 -10 -16 -10 -5 0 -9 5 -9 10 0 6 7 10 16 10 8 0 12 -4 9 -10z m-4805 -15
c0 -16 -27 -32 -37 -21 -7 7 16 36 28 36 5 0 9 -7 9 -15z m5340 -18 c0 -8 -3
-17 -7 -20 -9 -9 -34 13 -27 24 8 14 34 11 34 -4z m-485 -42 c8 -51 8 -55 -2
-55 -5 1 -7 10 -5 20 2 11 -1 20 -6 20 -11 0 -22 46 -14 55 13 13 21 2 27 -40z
m-4495 -1 c0 -8 -4 -14 -10 -14 -5 0 -10 9 -10 21 0 11 5 17 10 14 6 -3 10
-13 10 -21z m65 16 c3 -5 1 -10 -4 -10 -6 0 -11 5 -11 10 0 6 2 10 4 10 3 0 8
-4 11 -10z m2833 -143 c14 -16 0 -40 -27 -44 -24 -3 -34 10 -26 37 7 23 37 27
53 7z m-4434 -72 c-4 -8 -11 -15 -16 -15 -6 0 -5 6 2 15 7 8 14 15 16 15 2 0
1 -7 -2 -15z m346 -200 c0 -8 -4 -15 -10 -15 -5 0 -10 7 -10 15 0 8 5 15 10
15 6 0 10 -7 10 -15z m6240 -220 c9 -11 10 -19 3 -26 -13 -13 -53 9 -53 28 0
18 35 16 50 -2z m78 -75 c42 -39 41 -54 -7 -69 -54 -16 -75 -6 -67 32 3 16 6
38 6 48 0 28 30 23 68 -11z m-95 -17 c4 -3 1 -13 -5 -21 -10 -11 -9 -16 5 -23
9 -5 14 -16 11 -24 -5 -12 2 -15 30 -15 20 0 36 5 36 10 0 6 5 10 11 10 13 0
4 -47 -13 -68 -6 -6 -28 -15 -49 -18 -32 -5 -39 -11 -39 -29 0 -48 -60 -43
-81 7 -11 27 -10 32 4 43 11 8 15 19 11 29 -4 11 2 29 15 46 11 16 21 36 21
45 0 15 31 21 43 8z m197 -127 c0 -3 -4 -8 -10 -11 -5 -3 -10 -1 -10 4 0 6 5
11 10 11 6 0 10 -2 10 -4z m-340 -422 c0 -14 7 -32 15 -41 17 -17 8 -35 -27
-54 -16 -9 -17 -7 -8 16 7 19 6 32 -5 49 -17 25 -11 56 11 56 8 0 14 -10 14
-26z m-39 -89 c-1 -17 -9 -42 -17 -57 -8 -15 -14 -35 -14 -45 -1 -25 -30 44
-30 71 0 30 29 68 48 64 12 -2 16 -12 13 -33z m-57 -184 c3 -5 -1 -14 -8 -20
-16 -13 -32 2 -21 19 8 12 22 13 29 1z m-264 -408 c0 -24 -7 -28 -28 -15 -10
7 -10 15 -2 37 9 23 13 26 20 15 6 -8 10 -25 10 -37z"/>
<path d="M2240 3550 c-27 -9 -25 -10 33 -14 22 -2 43 -9 48 -17 7 -11 -1 -15
-36 -19 -55 -7 -65 -17 -31 -29 14 -6 26 -17 26 -25 0 -9 8 -20 19 -25 20 -11
33 0 62 54 20 37 16 51 -21 70 -31 16 -61 18 -100 5z"/>
<path d="M2184 3315 c-9 -14 -13 -29 -9 -33 7 -7 45 34 45 49 0 18 -20 9 -36
-16z"/>
<path d="M1360 4207 c0 -7 9 -18 20 -25 17 -10 25 -9 45 4 37 24 31 34 -20 34
-30 0 -45 -4 -45 -13z"/>
<path d="M1635 4210 c3 -5 15 -10 26 -10 10 0 19 -4 19 -10 0 -17 40 -11 62
10 l22 20 -68 0 c-42 0 -65 -4 -61 -10z"/>
<path d="M4741 4179 c-19 -31 -19 -32 -1 -51 10 -11 26 -18 37 -16 14 3 18 13
18 48 0 57 -25 66 -54 19z"/>
<path d="M3424 4115 c8 -8 20 -15 27 -15 7 0 4 6 -7 15 -25 19 -40 19 -20 0z"/>
<path d="M4280 4036 c0 -14 -5 -28 -11 -32 -6 -3 -8 -17 -4 -31 6 -24 4 -25
-27 -19 -40 7 -78 -15 -78 -46 0 -19 4 -20 78 -13 56 5 82 12 97 26 16 16 17
19 3 19 -16 0 -28 38 -28 91 0 19 -5 29 -15 29 -9 0 -15 -9 -15 -24z"/>
<path d="M3680 4022 c6 -13 14 -21 18 -18 3 4 -2 14 -12 24 -18 16 -18 16 -6
-6z"/>
<path d="M3224 4000 c-41 -9 -56 -19 -48 -32 5 -7 11 -5 20 6 8 12 19 16 32
12 11 -4 23 -2 27 4 10 16 4 18 -31 10z"/>
<path d="M3057 3984 c-3 -3 -11 -6 -19 -8 -7 -1 -22 -7 -33 -14 -20 -12 -20
-12 -1 -27 19 -15 19 -15 -2 -15 -15 0 -22 -6 -22 -20 0 -23 -2 -23 39 -9 19
7 31 18 31 29 0 10 6 21 13 23 7 3 5 6 -5 6 -29 1 -21 19 10 23 20 2 23 5 10
10 -9 4 -18 4 -21 2z"/>
<path d="M2921 3964 c-7 -8 -10 -18 -7 -21 7 -7 36 16 36 28 0 13 -13 10 -29
-7z"/>
<path d="M3296 3965 c4 -8 10 -12 15 -9 11 6 2 24 -11 24 -5 0 -7 -7 -4 -15z"/>
<path d="M2837 3953 c-13 -12 -7 -20 16 -19 14 1 21 -4 19 -14 -1 -10 3 -9 13
5 14 18 14 20 -2 27 -24 9 -38 9 -46 1z"/>
<path d="M2955 3940 c-3 -6 1 -7 9 -4 18 7 21 14 7 14 -6 0 -13 -4 -16 -10z"/>
<path d="M3230 3930 c0 -5 5 -10 10 -10 6 0 10 5 10 10 0 6 -4 10 -10 10 -5 0
-10 -4 -10 -10z"/>
<path d="M2914 3909 c-7 -12 15 -31 28 -23 4 3 8 12 8 20 0 17 -26 19 -36 3z"/>
<path d="M4720 3910 c-22 -7 -21 -8 13 -9 23 -1 36 3 32 9 -7 11 -10 11 -45 0z"/>
<path d="M3357 3894 c-8 -8 1 -24 14 -24 5 0 9 7 9 15 0 15 -12 20 -23 9z"/>
<path d="M3400 3870 c0 -5 5 -10 10 -10 6 0 10 5 10 10 0 6 -4 10 -10 10 -5 0
-10 -4 -10 -10z"/>
<path d="M4125 3870 c-3 -5 3 -10 15 -10 12 0 18 5 15 10 -3 6 -10 10 -15 10
-5 0 -12 -4 -15 -10z"/>
<path d="M2848 3829 c11 -28 26 -29 30 -1 3 17 -2 22 -17 22 -16 0 -19 -4 -13
-21z"/>
<path d="M3436 3835 c-3 -9 0 -15 9 -15 8 0 15 7 15 15 0 8 -4 15 -9 15 -5 0
-11 -7 -15 -15z"/>
<path d="M3500 3836 c0 -9 7 -16 16 -16 17 0 14 22 -4 28 -7 2 -12 -3 -12 -12z"/>
<path d="M3550 3830 c0 -5 5 -10 10 -10 6 0 10 5 10 10 0 6 -4 10 -10 10 -5 0
-10 -4 -10 -10z"/>
<path d="M3580 3831 c0 -6 5 -13 10 -16 6 -3 10 1 10 9 0 9 -4 16 -10 16 -5 0
-10 -4 -10 -9z"/>
<path d="M1586 3805 c4 -8 8 -15 10 -15 2 0 4 7 4 15 0 8 -4 15 -10 15 -5 0
-7 -7 -4 -15z"/>
<path d="M4690 3670 c0 -5 5 -10 11 -10 5 0 7 5 4 10 -3 6 -8 10 -11 10 -2 0
-4 -4 -4 -10z"/>
<path d="M4635 3650 c-3 -5 -1 -10 4 -10 6 0 11 5 11 10 0 6 -2 10 -4 10 -3 0
-8 -4 -11 -10z"/>
<path d="M4560 3584 c0 -8 5 -12 10 -9 6 4 8 11 5 16 -9 14 -15 11 -15 -7z"/>
<path d="M4608 3579 c-10 -5 -23 -19 -28 -30 -11 -19 -9 -19 24 3 46 30 49 54
4 27z"/>
<path d="M5610 3195 c-8 -9 -8 -15 -2 -15 6 0 12 -10 14 -22 4 -29 36 -34 78
-13 35 18 32 35 -7 35 -18 0 -24 4 -19 15 4 11 -2 15 -23 15 -16 0 -34 -7 -41
-15z"/>
<path d="M4550 3163 c0 -5 4 -13 10 -19 6 -6 -7 -8 -35 -6 -55 5 -59 -11 -10
-34 35 -16 36 -16 56 7 11 12 18 30 17 38 -3 17 -38 29 -38 14z"/>
<path d="M4620 3106 c0 -14 5 -28 10 -31 6 -4 10 7 10 24 0 17 -4 31 -10 31
-5 0 -10 -11 -10 -24z"/>
<path d="M5455 3120 c-3 -5 -15 -10 -27 -10 -18 0 -19 -2 -7 -16 8 -10 15 -12
17 -5 2 6 12 11 23 11 10 0 19 4 19 9 0 15 -18 23 -25 11z"/>
<path d="M2554 3000 c-1 -19 3 -29 10 -27 14 5 15 49 1 54 -5 1 -10 -11 -11
-27z"/>
<path d="M4210 3018 c1 -7 9 -28 19 -47 15 -29 19 -31 25 -15 6 16 9 16 16 4
15 -23 12 -30 -10 -30 -24 0 -26 -21 -6 -58 8 -15 20 -41 27 -59 7 -17 20 -31
29 -31 29 1 44 -7 57 -31 16 -29 17 -27 -7 -27 -11 0 -21 5 -21 11 -1 5 -4 -3
-8 -20 -7 -29 2 -56 27 -83 10 -11 12 -10 12 8 0 19 1 20 16 6 8 -9 18 -16 20
-16 10 0 49 23 55 33 4 5 12 6 18 2 9 -5 9 -10 1 -20 -7 -8 -7 -15 -1 -19 13
-8 18 1 26 47 6 29 3 42 -10 57 -17 19 -17 20 19 35 40 17 48 35 14 35 -33 0
-106 39 -113 61 -4 11 -15 19 -29 19 -25 0 -76 48 -76 72 0 9 -4 19 -10 23 -5
3 -6 13 -3 21 5 14 3 14 -15 3 -19 -12 -24 -11 -42 9 -24 25 -30 27 -30 10z"/>
<path d="M4560 2991 c0 -5 7 -11 15 -15 20 -7 19 -24 -2 -29 -17 -4 -17 -5 0
-6 9 0 17 -9 17 -18 1 -32 30 17 30 49 0 24 -4 28 -30 28 -16 0 -30 -4 -30 -9z"/>
<path d="M4484 2965 c-7 -30 -1 -40 19 -32 10 3 13 15 10 31 -7 33 -21 33 -29
1z"/>
<path d="M2583 2966 c-13 -6 -23 -14 -23 -17 0 -15 -51 -59 -70 -59 -25 0 -25
-2 5 -51 24 -37 45 -44 45 -15 0 21 36 56 57 56 33 0 85 -26 128 -64 22 -19
42 -33 44 -31 11 11 -49 78 -86 96 -29 14 -41 26 -40 40 1 10 7 19 14 19 7 0
10 -6 7 -14 -4 -10 1 -14 15 -13 25 2 26 6 3 34 -20 25 -69 35 -99 19z"/>
<path d="M4548 2903 c6 -2 18 -2 25 0 6 3 1 5 -13 5 -14 0 -19 -2 -12 -5z"/>
<path d="M4550 2864 c0 -9 5 -14 12 -12 18 6 21 28 4 28 -9 0 -16 -7 -16 -16z"/>
<path d="M5932 2868 c2 -6 10 -14 16 -16 7 -2 10 2 6 12 -7 18 -28 22 -22 4z"/>
<path d="M6060 2844 c-43 -14 -49 -38 -18 -64 32 -27 38 -25 32 10 -5 23 -3
30 9 30 9 0 19 5 23 11 12 19 -10 26 -46 13z"/>
<path d="M2407 2802 c-10 -10 -14 -22 -10 -26 4 -4 -5 -3 -20 3 -19 7 -27 7
-27 0 0 -6 -7 -35 -16 -65 -10 -37 -21 -54 -32 -55 -14 0 -14 -2 -2 -6 8 -3
17 -9 20 -14 3 -4 18 -11 34 -15 25 -6 27 -5 19 12 -5 11 -8 42 -5 71 3 39 7
50 18 46 8 -3 14 -11 14 -19 0 -19 19 -18 26 1 4 8 12 15 19 15 20 0 26 16 19
45 -7 30 -34 33 -57 7z"/>
<path d="M4648 2775 c-27 -20 -48 -37 -48 -39 0 -9 76 17 93 32 17 15 23 42
10 42 -5 0 -29 -16 -55 -35z"/>
<path d="M4290 2760 c0 -5 5 -10 10 -10 6 0 10 5 10 10 0 6 -4 10 -10 10 -5 0
-10 -4 -10 -10z"/>
<path d="M6940 2761 c0 -11 69 -35 77 -27 3 3 0 12 -7 21 -13 16 -70 21 -70 6z"/>
<path d="M1808 2733 c24 -34 90 -71 146 -80 20 -3 39 -10 42 -14 7 -12 24 -12
24 0 0 10 -41 27 -90 37 -43 8 -65 21 -109 59 l-34 30 21 -32z"/>
<path d="M3990 2751 c0 -7 -14 -29 -31 -49 -29 -33 -31 -39 -24 -86 7 -57 12
-69 27 -60 5 4 7 21 4 39 -5 24 0 46 19 84 20 38 24 55 16 68 -7 12 -10 14
-11 4z"/>
<path d="M5976 2734 c-10 -27 -7 -44 9 -44 10 0 15 10 15 30 0 32 -14 40 -24
14z"/>
<path d="M2450 2705 c-8 -14 -21 -25 -29 -24 -29 3 -34 -1 -21 -16 18 -22 43
-18 70 10 13 14 29 25 37 25 7 0 13 7 13 15 0 27 -55 19 -70 -10z"/>
<path d="M2570 2694 c-7 -20 -10 -58 -7 -84 4 -32 2 -47 -6 -48 -113 -11 -121
-14 -87 -32 11 -6 25 -22 30 -36 9 -21 13 -23 31 -14 l21 12 -23 24 c-18 19
-19 24 -6 24 25 0 34 -27 29 -82 -4 -43 -2 -50 15 -54 21 -6 46 -47 36 -58
-13 -12 -32 -5 -38 14 -8 26 -28 14 -21 -12 4 -19 -13 -57 -41 -86 -7 -7 -41
-17 -75 -21 -67 -9 -170 -36 -196 -50 -9 -5 -40 -7 -69 -4 -29 3 -58 1 -65 -4
-16 -13 -100 -39 -153 -48 -43 -7 -107 -38 -142 -68 -11 -10 -41 -21 -65 -24
-23 -3 -58 -12 -77 -20 -23 -10 -50 -14 -81 -10 -70 8 -88 0 -111 -51 -15 -31
-23 -41 -29 -32 -4 7 -15 10 -24 7 -18 -7 -66 29 -66 49 0 6 7 17 15 24 12 10
21 8 50 -14 19 -15 36 -23 36 -19 2 8 7 61 12 123 1 19 10 46 19 60 21 33 40
94 36 116 -2 9 3 19 10 21 6 3 12 -1 12 -7 0 -7 6 -5 16 4 8 9 12 21 8 28 -5
8 -10 6 -15 -8 -7 -18 -7 -18 -14 0 -8 18 11 40 27 30 4 -3 33 16 65 41 32 25
68 45 80 45 20 0 40 16 31 25 -2 2 -20 0 -41 -5 -42 -9 -87 -2 -66 11 19 11
-7 39 -37 39 -24 0 -32 14 -14 25 15 9 12 22 -7 29 -10 3 -25 10 -33 15 -24
15 -88 42 -97 40 -26 -5 -63 2 -58 11 7 12 -8 14 -19 3 -4 -5 -11 -8 -14 -8
-15 -1 -72 -60 -72 -75 0 -13 -1 -13 -10 0 -8 13 -10 13 -10 -1 0 -9 -7 -19
-15 -23 -16 -6 -105 -139 -105 -156 0 -6 -7 -13 -15 -16 -8 -4 -15 -11 -15
-18 0 -6 -16 -27 -35 -46 -19 -19 -35 -40 -35 -47 0 -7 -4 -13 -10 -13 -5 0
-10 -6 -10 -12 0 -7 -14 -27 -30 -45 -17 -18 -30 -35 -30 -39 0 -4 -7 -15 -16
-25 -9 -10 -16 -33 -16 -52 0 -30 -3 -34 -24 -31 -13 1 -21 -2 -18 -7 3 -6 1
-15 -4 -22 -5 -7 -12 -52 -16 -102 -3 -49 -11 -94 -16 -99 -14 -14 -12 -50 2
-65 11 -10 8 -16 -11 -32 -14 -11 -37 -23 -53 -26 -30 -6 -34 -13 -17 -30 10
-10 25 -64 54 -193 8 -36 15 -93 15 -128 0 -63 8 -85 48 -135 23 -30 29 -62
12 -72 -6 -3 -10 -22 -10 -41 0 -21 -6 -37 -15 -40 -8 -4 -12 -10 -9 -15 3 -5
-1 -9 -8 -9 -8 0 -20 -28 -30 -70 -15 -59 -16 -82 -7 -147 6 -43 17 -100 25
-127 8 -26 14 -59 14 -71 0 -19 4 -22 23 -18 12 2 32 9 43 15 15 7 28 7 42 -1
11 -6 47 -11 79 -11 32 0 83 -6 113 -14 70 -18 299 -13 312 6 11 18 10 40 -2
33 -5 -3 -10 1 -10 9 0 9 -5 16 -11 16 -5 0 -8 -4 -5 -8 2 -4 -3 -8 -12 -9 -9
-1 -29 -5 -43 -8 -22 -6 -27 -3 -32 16 -15 55 38 85 79 44 14 -14 33 -24 40
-21 8 3 17 -1 20 -9 4 -8 12 -15 20 -15 20 0 17 -10 -8 -32 -19 -16 -20 -22
-10 -38 19 -31 15 -50 -10 -47 -17 1 -22 -3 -20 -15 2 -10 -9 -38 -24 -63 -21
-36 -24 -48 -14 -60 14 -17 28 -7 52 40 8 17 27 52 41 79 25 45 38 89 17 56
-5 -8 -12 -11 -17 -7 -6 7 37 52 96 100 32 26 15 41 -19 17 -48 -34 -47 -22 3
24 26 24 47 50 47 58 0 8 9 23 20 33 11 10 20 23 20 28 0 5 8 16 18 23 14 11
15 16 5 33 -18 28 -17 34 12 67 14 16 25 34 25 40 0 19 38 97 64 133 32 42 34
71 6 71 -11 0 -20 5 -20 11 0 7 10 9 25 7 14 -3 25 -2 25 3 0 4 3 14 6 23 4
12 -3 20 -27 30 -19 8 -33 17 -31 20 7 18 -2 25 -40 31 -65 10 -75 14 -75 30
0 32 68 11 149 -46 14 -11 31 -19 37 -19 16 0 24 65 12 89 -15 27 8 29 32 3
14 -15 15 -30 7 -112 -6 -52 -15 -118 -20 -146 -6 -28 -10 -55 -9 -60 1 -5 0
-16 -4 -24 -21 -53 -37 -214 -18 -180 5 8 12 33 16 55 4 22 24 70 46 107 46
79 51 106 9 58 l-29 -35 -1 42 c0 23 5 45 10 48 6 3 10 19 10 35 0 15 5 30 12
32 7 3 12 21 12 41 0 31 3 36 25 39 31 4 40 35 50 160 3 47 8 89 11 92 8 7 3
-171 -5 -184 -6 -10 4 -51 40 -165 18 -55 29 -115 21 -115 -8 0 -56 108 -56
126 0 8 -5 14 -11 14 -8 0 -9 -11 -4 -32 4 -18 9 -49 10 -69 2 -20 6 -51 10
-70 7 -33 7 -34 -12 -17 -26 24 -33 23 -33 -7 0 -14 -7 -28 -15 -31 -8 -4 -15
-12 -15 -19 0 -8 -8 -22 -17 -31 -17 -17 -17 -18 1 -11 18 7 46 -7 46 -24 0
-14 -28 -11 -34 4 -3 6 -3 2 0 -10 3 -13 2 -23 -3 -23 -4 0 -23 -14 -41 -31
-25 -24 -30 -34 -22 -48 5 -10 7 -21 4 -24 -8 -7 -37 4 -46 17 -4 6 -8 -5 -9
-24 -1 -31 -2 -32 -8 -10 l-7 25 -6 -30 c-4 -16 -9 -40 -13 -52 -7 -22 -6 -22
114 -21 100 0 121 3 121 15 0 12 9 14 44 9 30 -5 56 -2 84 9 22 9 46 15 53 14
16 -3 61 8 102 23 23 9 27 16 27 47 l-1 36 -20 -27 c-12 -17 -30 -28 -44 -28
-32 0 -56 -10 -49 -21 3 -5 -5 -9 -18 -9 -20 1 -21 2 -5 11 9 5 17 18 17 28 0
31 24 78 38 74 15 -6 15 2 2 28 -9 15 -7 21 5 25 8 3 15 12 15 20 0 8 5 14 11
14 6 0 8 7 5 15 -3 10 14 42 43 83 56 77 75 111 67 119 -7 7 -43 -35 -51 -59
-6 -16 -83 -53 -92 -44 -3 3 -2 13 2 23 4 10 7 28 6 40 -1 13 5 30 13 39 20
20 20 33 0 41 -11 4 -22 -1 -30 -12 -10 -14 -17 -16 -25 -8 -6 6 -8 16 -5 22
9 14 76 15 76 1 0 -5 8 -6 17 -3 11 4 12 8 5 11 -22 7 -12 28 21 45 17 9 40
22 49 29 14 10 22 10 38 0 24 -15 40 -16 40 -2 0 6 -7 10 -15 10 -23 0 -18 20
10 42 14 11 25 29 25 40 0 20 -1 20 -18 5 -20 -19 -32 -13 -32 13 0 13 11 19
43 22 27 3 53 14 70 30 15 14 40 28 55 31 29 6 70 32 62 40 -8 7 -122 -17
-147 -31 -55 -31 -59 4 -5 47 34 27 47 30 109 32 39 1 76 -2 83 -6 10 -6 12
-2 7 16 -4 13 -7 27 -7 32 0 13 -23 7 -36 -10 -11 -15 -15 -16 -23 -4 -5 7
-14 10 -21 6 -16 -10 -70 -13 -70 -4 0 4 -7 15 -16 23 -21 22 -8 38 26 31 18
-4 33 -1 43 10 20 19 13 38 -19 55 -23 13 -27 11 -67 -28 -41 -40 -67 -53 -67
-33 0 5 11 18 25 29 14 11 25 22 25 25 0 9 -49 14 -52 5 -4 -11 -38 0 -38 12
0 8 37 15 125 23 44 4 118 38 97 45 -7 2 -24 -4 -38 -13 -14 -9 -32 -14 -40
-11 -16 6 -19 46 -4 46 6 0 10 8 10 18 -1 15 -2 15 -16 -3 -15 -20 -15 -20
-30 0 -8 11 -12 25 -10 32 3 7 0 13 -6 13 -9 0 -9 3 0 12 7 7 12 17 12 22 0 6
-5 5 -11 -1 -22 -22 -40 -3 -33 34 5 25 3 33 -7 31 -8 -2 -15 7 -17 19 -3 17
0 21 12 17 9 -3 16 -10 16 -15 0 -21 19 -7 29 21 10 31 6 34 -36 33 -16 -1
-17 19 -3 33 15 15 21 116 10 154 -5 17 -6 38 -3 46 4 12 8 12 20 -3 13 -17
13 -17 4 2 -6 14 -6 27 1 39 9 17 12 14 24 -20 8 -21 14 -57 15 -79 1 -22 4
-31 6 -20 3 11 10 26 15 33 7 7 7 17 1 25 -12 16 -11 39 3 44 16 5 35 -81 37
-162 1 -36 5 -65 10 -65 4 0 7 -24 7 -52 1 -52 18 -138 38 -189 5 -14 8 -38 6
-55 -2 -16 -1 -22 2 -14 25 66 25 67 24 160 -2 180 45 500 71 484 5 -3 9 2 9
10 0 9 -4 16 -10 16 -5 0 -10 4 -10 10 0 30 88 -41 250 -202 80 -80 110 -116
110 -134 0 -13 -14 -63 -31 -112 -17 -48 -34 -99 -36 -115 -3 -15 -9 -30 -14
-33 -5 -3 -9 -16 -9 -30 0 -13 -4 -24 -10 -24 -5 0 -10 -8 -10 -18 0 -10 -5
-23 -11 -29 -7 -7 -12 -20 -14 -30 -2 -27 -21 -69 -50 -111 -30 -44 -33 -62
-5 -37 11 10 20 25 20 34 0 9 9 25 21 34 11 10 25 31 31 47 5 17 14 30 20 30
5 0 6 5 3 10 -3 6 3 23 14 39 12 16 21 36 21 45 0 9 7 16 15 16 8 0 19 17 26
40 7 22 16 40 21 40 4 0 8 11 8 25 0 14 4 25 9 25 5 0 11 13 14 29 3 16 12 35
20 43 10 10 14 35 12 88 -2 41 2 81 7 88 8 9 0 24 -30 55 -83 85 -132 142
-132 153 0 3 -14 23 -30 43 -107 129 -228 221 -291 221 -18 0 -28 4 -24 10 4
6 11 8 16 5 5 -4 9 -1 9 4 0 6 -7 11 -15 11 -9 0 -27 12 -40 26 -14 15 -25 24
-25 20 0 -4 -13 2 -29 13 l-29 21 -12 -36z m96 -381 c-8 -16 -24 -39 -35 -52
l-21 -24 0 36 c0 25 5 37 14 37 7 0 19 7 26 15 21 25 31 17 16 -12z m-192
-219 c-4 -13 -2 -24 4 -24 6 0 8 -9 5 -20 -5 -19 -22 -28 -24 -12 0 4 -2 21
-5 37 -5 36 2 58 16 50 6 -3 7 -17 4 -31z m-1030 -6 c-4 -13 -7 -33 -5 -45 3
-28 -9 -34 -37 -19 l-23 12 31 43 c33 45 47 49 34 9z m832 3 c29 -23 47 -20
37 6 -5 11 -3 14 6 9 7 -5 11 -16 8 -26 -3 -11 1 -27 8 -37 21 -32 27 -73 10
-73 -8 0 -15 5 -15 12 0 6 -3 8 -7 4 -4 -4 -6 -23 -4 -43 1 -20 -1 -38 -6 -42
-19 -13 -42 -93 -33 -112 7 -13 6 -22 -6 -33 -8 -9 -13 -16 -9 -16 3 0 3 -5 0
-10 -11 -18 -36 17 -39 55 -2 19 -11 44 -21 55 -10 12 -13 20 -7 20 7 0 12 7
12 16 0 10 -6 14 -14 11 -22 -9 -40 21 -39 63 2 33 -1 39 -24 45 -14 3 -28 4
-31 1 -3 -3 9 -35 26 -71 18 -35 32 -69 32 -75 0 -5 5 -10 10 -10 6 0 10 -5
10 -10 0 -6 11 -33 24 -60 14 -28 27 -64 31 -80 3 -15 13 -31 21 -34 12 -4 11
-11 -6 -38 -11 -18 -20 -40 -19 -48 0 -12 2 -12 6 -1 18 46 75 85 143 96 45 8
57 -9 13 -18 -16 -3 -37 -13 -48 -22 -19 -15 -19 -15 10 -9 l30 7 -25 -23 -25
-23 27 7 c16 4 30 1 34 -6 5 -8 2 -9 -9 -5 -12 5 -17 1 -17 -14 0 -11 7 -22
15 -25 8 -4 15 -12 15 -20 0 -8 5 -14 10 -14 6 0 10 -9 10 -21 0 -11 4 -18 9
-15 5 3 14 -8 20 -26 15 -42 14 -51 -5 -44 -13 5 -15 1 -12 -24 6 -38 -7 -48
-22 -20 -6 12 -21 31 -32 42 -16 16 -22 18 -29 7 -13 -22 -22 -2 -15 36 8 40
26 47 26 10 0 -16 6 -25 15 -25 8 0 15 -7 15 -15 0 -8 5 -15 10 -15 15 0 12
19 -5 36 -8 8 -19 33 -25 54 -11 39 -40 57 -40 24 0 -14 -3 -14 -15 -4 -12 10
-15 10 -15 0 0 -18 -31 -38 -51 -33 -9 3 -20 15 -24 26 -7 21 -7 21 -12 2 -3
-10 0 -21 6 -23 15 -5 14 -21 -3 -38 -20 -20 -24 -18 -31 16 -4 17 -11 30 -16
30 -12 0 -11 -113 1 -165 6 -26 5 -44 -1 -50 -13 -13 -29 12 -29 48 0 17 -5
27 -15 27 -10 0 -15 9 -14 28 0 24 1 25 9 7 7 -17 9 -14 9 13 1 18 -3 31 -8
28 -20 -13 -21 28 -1 49 11 12 20 27 20 33 0 7 5 12 10 12 6 0 10 9 10 20 0
24 -7 25 -48 4 -18 -8 -40 -14 -49 -12 -24 5 -38 54 -23 86 11 25 12 25 22 8
8 -14 8 -24 -1 -37 -6 -11 -11 -21 -11 -25 0 -6 56 5 80 16 72 34 110 60 110
75 0 14 -29 35 -35 25 -3 -5 0 -10 7 -10 7 0 0 -12 -17 -26 -19 -16 -31 -21
-34 -13 -2 6 2 15 9 19 8 5 3 7 -13 7 -28 -2 -35 -11 -17 -22 16 -10 12 -21
-15 -33 -19 -9 -23 -9 -19 2 3 8 1 17 -5 21 -6 3 -11 15 -11 26 0 14 -7 19
-27 20 -27 0 -27 0 -5 9 20 9 22 14 17 52 -3 24 -9 62 -12 86 -6 43 -18 55
-26 25 -3 -12 -5 -9 -6 7 0 15 3 30 9 36 6 6 6 29 -1 64 -17 89 -16 124 3 128
10 2 23 -8 32 -25 l15 -28 1 26 c0 21 10 32 48 52 54 30 98 29 138 -2z m104
-26 c0 -8 -4 -15 -10 -15 -5 0 -7 7 -4 15 4 8 8 15 10 15 2 0 4 -7 4 -15z
m-1433 -17 c-3 -8 -6 -5 -6 6 -1 11 2 17 5 13 3 -3 4 -12 1 -19z m-29 -78 c-7
-11 -15 -15 -17 -9 -2 6 3 15 10 20 20 12 21 11 7 -11z m1477 -55 c11 -19 16
-37 12 -41 -4 -4 -7 -1 -7 7 0 8 -9 21 -20 29 -11 8 -20 20 -20 27 0 24 17 13
35 -22z m-973 -8 c30 -15 48 -30 51 -44 5 -29 -5 -29 -80 -1 -73 27 -77 31
-63 58 13 23 15 23 92 -13z m-225 -19 c30 -35 115 -160 110 -164 -4 -4 -86 96
-124 153 -26 38 -17 44 14 11z m1153 -48 c0 -11 -4 -20 -9 -20 -5 0 -7 9 -4
20 3 11 7 20 9 20 2 0 4 -9 4 -20z m-800 -40 c0 -5 -7 -10 -15 -10 -8 0 -15 5
-15 10 0 6 7 10 15 10 8 0 15 -4 15 -10z m-306 -45 c4 -10 -1 -15 -14 -15 -13
0 -18 5 -14 15 4 8 10 15 14 15 4 0 10 -7 14 -15z m1250 0 c3 -8 1 -15 -4 -15
-6 0 -10 7 -10 15 0 8 2 15 4 15 2 0 6 -7 10 -15z m-1053 -36 c25 -13 41 -53
33 -85 -8 -31 -13 -30 -52 4 -17 15 -39 33 -49 40 -16 11 -16 11 3 3 27 -13
35 -5 28 25 -7 26 5 31 37 13z m-191 -25 c0 -8 -4 -14 -10 -14 -5 0 -10 9 -10
21 0 11 5 17 10 14 6 -3 10 -13 10 -21z m90 16 c0 -5 -4 -10 -10 -10 -5 0 -10
5 -10 10 0 6 5 10 10 10 6 0 10 -4 10 -10z m427 -22 c-3 -8 -6 -5 -6 6 -1 11
2 17 5 13 3 -3 4 -12 1 -19z m-67 -3 c0 -8 5 -15 10 -15 6 0 10 -9 10 -20 0
-11 7 -23 15 -26 17 -7 21 -45 4 -41 -6 1 -14 -4 -16 -11 -3 -7 1 -10 11 -6 8
3 32 -4 52 -17 21 -12 53 -26 73 -30 32 -6 30 -7 -21 -8 -31 0 -60 4 -63 9 -3
6 -19 10 -36 10 -24 0 -29 4 -29 25 0 14 -6 28 -14 31 -24 9 -38 57 -27 87 11
29 31 37 31 12z m-383 -12 c6 -16 -34 -35 -58 -28 -20 7 -20 7 2 26 24 21 50
22 56 2z m-190 -35 c28 -24 76 -62 107 -86 31 -24 56 -46 56 -50 -1 -12 -77
-62 -84 -55 -4 4 -19 9 -34 10 -21 3 -24 1 -12 -7 8 -5 20 -10 26 -10 7 0 26
-13 43 -29 41 -38 28 -48 -69 -54 -41 -2 -85 -7 -97 -12 -17 -5 -23 -4 -23 8
0 8 10 22 23 30 19 14 20 16 4 16 -41 2 -63 54 -27 64 20 5 29 37 10 37 -5 0
-10 9 -10 19 0 11 -5 21 -10 23 -13 4 10 58 25 58 6 0 3 5 -5 10 -10 6 -11 10
-2 10 6 0 12 5 12 11 0 5 -4 7 -10 4 -11 -7 -14 28 -3 38 13 14 30 6 80 -35z
m413 -68 c0 -22 -4 -40 -10 -40 -5 0 -10 18 -10 40 0 22 5 40 10 40 6 0 10
-18 10 -40z m273 18 c26 -14 52 -38 40 -38 -14 0 -89 49 -75 50 7 0 23 -5 35
-12z m-390 -56 c15 -32 8 -66 -17 -75 -24 -10 -39 0 -58 37 -16 32 -16 35 0
49 20 17 44 26 54 20 4 -2 13 -16 21 -31z m94 -66 c-1 -26 -6 -42 -13 -39 -6
2 -15 -13 -20 -33 -9 -38 -34 -59 -34 -30 0 9 -4 16 -9 16 -13 0 7 57 31 92
19 27 17 55 -3 43 -5 -4 -9 1 -9 10 0 14 3 14 30 0 26 -13 29 -20 27 -59z
m614 41 c-13 -13 -26 -3 -16 12 3 6 11 8 17 5 6 -4 6 -10 -1 -17z m-444 -23
c-3 -3 -12 -4 -19 -1 -8 3 -5 6 6 6 11 1 17 -2 13 -5z m-351 -32 c-22 -5 -30
3 -21 18 5 8 11 7 22 -2 15 -12 14 -13 -1 -16z m254 -11 c0 -5 -7 -12 -16 -15
-14 -5 -13 -10 4 -38 20 -33 20 -88 1 -88 -13 0 -11 38 1 42 7 2 5 11 -4 23
-12 17 -17 18 -40 7 -15 -7 -24 -17 -21 -22 4 -6 10 -8 15 -5 5 3 11 1 15 -5
4 -6 -5 -10 -21 -10 -15 0 -24 3 -21 7 4 3 2 12 -4 19 -14 17 9 53 31 47 12
-3 19 3 24 21 6 24 36 38 36 17z m218 -11 c11 -17 10 -20 -7 -20 -21 0 -45 23
-34 33 12 13 28 7 41 -13z m-368 0 c0 -5 -5 -10 -11 -10 -5 0 -7 5 -4 10 3 6
8 10 11 10 2 0 4 -4 4 -10z m245 0 c3 -5 -1 -10 -9 -10 -9 0 -16 5 -16 10 0 6
4 10 9 10 6 0 13 -4 16 -10z m615 -5 c17 -20 5 -32 -15 -15 -13 11 -15 7 -15
-29 0 -46 -15 -48 -22 -4 -3 16 -9 36 -13 46 -6 14 -2 17 23 17 16 0 35 -7 42
-15z m-692 -9 c-7 -8 -15 -12 -17 -11 -5 6 10 25 20 25 5 0 4 -6 -3 -14z m892
-14 c0 -13 -12 -22 -22 -16 -10 6 -1 24 13 24 5 0 9 -4 9 -8z m-840 -21 c0
-13 -29 -35 -37 -28 -7 8 15 37 28 37 5 0 9 -4 9 -9z m136 -16 c16 -8 23 -15
15 -15 -9 0 -6 -7 9 -20 13 -11 19 -20 14 -20 -6 0 -14 4 -19 9 -6 5 -21 11
-35 13 -17 2 -26 10 -28 26 -4 26 5 27 44 7z m-821 -15 c3 -5 1 -10 -4 -10 -6
0 -11 5 -11 10 0 6 2 10 4 10 3 0 8 -4 11 -10z m585 -40 c0 -5 -5 -10 -11 -10
-5 0 -7 5 -4 10 3 6 8 10 11 10 2 0 4 -4 4 -10z m-41 -34 c7 -8 27 -18 44 -22
37 -8 109 -42 118 -57 4 -5 5 -28 3 -51 -2 -22 -1 -35 2 -28 8 18 24 15 24 -5
0 -14 2 -15 9 -4 5 8 11 9 15 3 3 -6 2 -14 -4 -17 -8 -5 -7 -11 1 -21 10 -12
8 -19 -9 -37 -11 -12 -26 -41 -34 -64 -18 -58 -38 -64 -38 -12 l0 40 -102 -6
c-94 -5 -191 -16 -228 -26 -10 -3 -16 8 -20 37 -3 23 -14 53 -23 67 -9 15 -17
30 -17 35 0 5 22 34 49 65 27 31 51 61 52 66 4 12 103 50 130 51 9 0 22 -6 28
-14z m471 -7 c0 -5 -4 -9 -10 -9 -5 0 -10 7 -10 16 0 8 5 12 10 9 6 -3 10 -10
10 -16z m-1008 -105 c-4 -119 -8 -135 -29 -127 -13 5 -15 21 -10 109 5 106 11
128 30 121 8 -3 11 -34 9 -103z m778 96 c0 -5 -2 -10 -4 -10 -3 0 -8 5 -11 10
-3 6 -1 10 4 10 6 0 11 -4 11 -10z m-18 -67 c67 -67 82 -93 53 -93 -8 0 -15 7
-15 16 0 20 -24 44 -44 44 -9 0 -16 6 -16 14 0 7 -16 26 -35 40 -31 24 -39 46
-17 46 4 0 37 -30 74 -67z m392 53 c22 -11 24 -15 11 -20 -18 -7 -14 -33 4
-28 15 3 14 -15 -1 -24 -6 -4 -24 -8 -40 -9 -27 -2 -28 0 -28 47 0 53 8 58 54
34z m66 -31 c7 -25 10 -48 7 -51 -8 -8 -37 51 -37 76 0 36 17 22 30 -25z
m-989 -106 c25 -35 17 -50 -28 -55 -45 -5 -63 5 -63 35 0 57 55 70 91 20z
m936 6 c-4 -8 -11 -15 -17 -15 -7 0 -7 6 0 21 13 23 26 19 17 -6z m20 -7 c-3
-8 -6 -5 -6 6 -1 11 2 17 5 13 3 -3 4 -12 1 -19z m43 7 c0 -8 -4 -15 -10 -15
-5 0 -10 7 -10 15 0 8 5 15 10 15 6 0 10 -7 10 -15z m-420 -34 c0 -10 -30 -24
-37 -17 -3 3 -2 9 2 15 8 13 35 15 35 2z m350 -21 c0 -5 -2 -10 -4 -10 -3 0
-8 5 -11 10 -3 6 -1 10 4 10 6 0 11 -4 11 -10z m100 -3 c0 -8 -9 -22 -20 -32
-11 -10 -20 -24 -20 -32 0 -7 -4 -13 -10 -13 -14 0 -13 13 2 28 9 9 7 12 -11
12 -21 0 -21 1 6 25 31 27 53 32 53 12z m-1320 -37 c0 -5 -4 -10 -10 -10 -5 0
-10 5 -10 10 0 6 5 10 10 10 6 0 10 -4 10 -10z m52 -162 c2 -48 0 -84 -4 -80
-6 7 -12 201 -7 232 3 19 8 -43 11 -152z m1203 78 c30 -46 55 -88 55 -95 0
-26 -20 -6 -60 59 -23 39 -46 73 -51 76 -9 5 -13 44 -4 44 3 0 30 -38 60 -84z
m85 24 c0 -5 -4 -10 -10 -10 -5 0 -10 5 -10 10 0 6 5 10 10 10 6 0 10 -4 10
-10z m-938 -27 c38 -34 15 -73 -43 -73 -32 0 -38 -4 -47 -29 -13 -36 -43 -47
-79 -29 -29 14 -39 42 -29 82 6 23 28 33 121 55 56 13 56 13 77 -6z m928 -23
c0 -5 -4 -10 -10 -10 -5 0 -10 5 -10 10 0 6 5 10 10 10 6 0 10 -4 10 -10z
m-607 -52 c8 -63 -1 -72 -69 -69 -67 3 -90 13 -99 42 -10 29 20 48 75 49 25 0
52 5 60 10 24 15 27 12 33 -32z m322 -162 c16 -8 22 -17 15 -21 -6 -3 -25 3
-43 14 -37 24 -15 29 28 7z m99 -11 c19 -14 19 -15 -7 -15 -17 0 -27 5 -27 15
0 19 9 19 34 0z"/>
<path d="M2075 1940 c-3 -5 -1 -10 4 -10 6 0 11 5 11 10 0 6 -2 10 -4 10 -3 0
-8 -4 -11 -10z"/>
<path d="M2290 1939 c0 -5 5 -7 10 -4 6 3 10 8 10 11 0 2 -4 4 -10 4 -5 0 -10
-5 -10 -11z"/>
<path d="M2230 1900 c0 -5 5 -10 11 -10 5 0 7 5 4 10 -3 6 -8 10 -11 10 -2 0
-4 -4 -4 -10z"/>
<path d="M2302 1588 c0 -13 -1 -29 -3 -37 -2 -7 2 -16 10 -19 9 -3 11 0 7 7
-4 7 -2 18 4 26 13 16 7 45 -10 45 -5 0 -9 -10 -8 -22z"/>
<path d="M2190 1545 c-17 -21 -5 -31 15 -12 8 9 15 18 15 21 0 11 -18 6 -30
-9z"/>
<path d="M2243 1543 c-16 -6 -17 -29 -1 -39 7 -4 8 -3 4 5 -4 6 0 14 8 17 9 3
16 10 16 15 0 10 -8 10 -27 2z"/>
<path d="M1470 1195 c-11 -13 -8 -15 14 -15 16 0 26 5 26 15 0 8 -6 15 -14 15
-7 0 -19 -7 -26 -15z"/>
<path d="M1420 1170 c0 -5 4 -10 9 -10 6 0 13 5 16 10 3 6 -1 10 -9 10 -9 0
-16 -4 -16 -10z"/>
<path d="M1677 1060 c-3 -11 -1 -20 4 -20 4 0 13 9 19 20 8 16 8 20 -3 20 -8
0 -17 -9 -20 -20z"/>
<path d="M5946 2665 c-9 -24 -8 -45 3 -45 14 0 22 30 13 47 -8 13 -10 13 -16
-2z"/>
<path d="M6029 2648 c-18 -33 -42 -55 -63 -59 -11 -2 -21 -9 -23 -15 -6 -19
26 -25 55 -11 15 8 35 12 45 9 29 -6 47 17 47 59 0 35 -3 39 -25 39 -15 0 -29
-8 -36 -22z"/>
<path d="M2260 2620 c-9 -16 -6 -21 14 -26 13 -3 36 -19 52 -35 15 -16 33 -29
41 -29 7 0 17 -9 23 -20 12 -22 1 -27 -17 -9 -6 6 -17 9 -25 7 -7 -3 5 -15 30
-29 35 -20 72 -68 72 -93 0 -3 -15 -7 -32 -7 l-33 -2 30 -4 c27 -4 75 -42 75
-58 0 -4 -15 -4 -32 -1 -31 6 -31 5 -9 -6 18 -10 28 -9 49 3 33 18 43 44 13
34 -12 -4 -21 -2 -21 4 0 6 7 11 15 11 20 0 19 5 -7 33 -37 40 -86 110 -97
140 -7 19 -18 27 -35 27 -17 0 -26 7 -30 24 -3 14 -20 31 -36 40 -28 13 -31
13 -40 -4z"/>
<path d="M5880 2591 c0 -16 5 -33 10 -36 6 -4 10 6 10 24 0 16 -4 33 -10 36
-6 4 -10 -6 -10 -24z"/>
<path d="M2193 2588 c2 -7 10 -12 16 -10 6 1 11 -5 11 -13 0 -17 16 -20 25 -5
3 6 0 17 -9 25 -18 18 -49 20 -43 3z"/>
<path d="M3986 2559 c-14 -14 -17 -25 -11 -46 8 -28 8 -27 21 16 8 25 13 45
11 46 -1 2 -10 -6 -21 -16z"/>
<path d="M4971 2561 c16 -24 52 -30 43 -6 -4 8 -10 15 -14 15 -5 0 -16 3 -25
6 -15 6 -15 4 -4 -15z"/>
<path d="M2045 2540 c-3 -5 3 -11 14 -11 12 -1 26 -2 33 -3 6 -1 13 5 16 12 5
15 -54 17 -63 2z"/>
<path d="M2157 2543 c-4 -3 -7 -11 -7 -17 0 -6 5 -5 12 2 6 6 9 14 7 17 -3 3
-9 2 -12 -2z"/>
<path d="M5510 2536 c0 -18 17 -29 30 -21 8 5 7 11 -1 21 -15 18 -29 18 -29 0z"/>
<path d="M5550 2546 c0 -2 7 -9 15 -16 9 -7 15 -8 15 -2 0 5 -7 12 -15 16 -8
3 -15 4 -15 2z"/>
<path d="M1895 2519 c-11 -17 1 -21 15 -4 8 9 8 15 2 15 -6 0 -14 -5 -17 -11z"/>
<path d="M1994 2519 c-10 -17 13 -36 27 -22 12 12 4 33 -11 33 -5 0 -12 -5
-16 -11z"/>
<path d="M2230 2515 c0 -8 4 -15 10 -15 5 0 7 7 4 15 -4 8 -8 15 -10 15 -2 0
-4 -7 -4 -15z"/>
<path d="M5890 2515 c0 -9 9 -15 21 -15 18 0 19 2 9 15 -7 8 -16 15 -21 15 -5
0 -9 -7 -9 -15z"/>
<path d="M6747 2496 l-34 -31 28 -23 c15 -12 44 -29 63 -37 l36 -15 0 38 c0
46 -19 89 -42 95 -9 3 -31 -9 -51 -27z"/>
<path d="M1858 2503 c7 -3 16 -2 19 1 4 3 -2 6 -13 5 -11 0 -14 -3 -6 -6z"/>
<path d="M4045 2500 c-3 -5 -1 -10 4 -10 6 0 11 5 11 10 0 6 -2 10 -4 10 -3 0
-8 -4 -11 -10z"/>
<path d="M1914 2489 c-3 -6 -1 -16 5 -22 6 -6 11 -22 12 -36 l0 -26 12 24 c9
18 9 25 0 28 -6 2 -9 13 -6 23 6 21 -11 28 -23 9z"/>
<path d="M4594 2439 c-33 -29 -66 -61 -75 -71 -9 -10 -21 -18 -28 -18 -6 0
-11 -7 -11 -15 0 -8 -5 -15 -11 -15 -5 0 -7 -4 -4 -10 3 -5 1 -10 -4 -10 -6 0
-11 -4 -11 -10 0 -16 24 -12 42 8 51 52 75 73 84 71 23 -4 34 3 34 21 0 11 5
21 10 21 6 1 16 2 23 3 6 1 11 8 9 15 -1 7 3 20 9 27 9 10 9 18 2 25 -8 8 -29
-5 -69 -42z"/>
<path d="M1852 2466 c1 -10 8 -17 13 -17 15 1 12 24 -3 29 -9 3 -13 -2 -10
-12z"/>
<path d="M2090 2448 c0 -14 7 -31 16 -39 13 -11 14 -9 8 17 -9 40 -24 54 -24
22z"/>
<path d="M5915 2460 c-8 -13 25 -13 45 0 12 8 9 10 -12 10 -15 0 -30 -4 -33
-10z"/>
<path d="M6013 2446 c-47 -24 -87 -62 -74 -70 13 -8 62 19 107 58 44 39 30 44
-33 12z"/>
<path d="M4720 2432 c0 -6 7 -15 17 -20 23 -14 37 -119 18 -146 -13 -17 -13
-22 1 -37 14 -16 14 -19 0 -36 -9 -10 -28 -31 -41 -48 -23 -28 -24 -29 -25 -7
0 26 3 26 -49 7 -22 -8 -41 -10 -41 -5 0 5 9 11 19 15 11 3 25 13 33 22 12 15
10 16 -21 10 -19 -4 -48 -14 -65 -23 -36 -19 -96 -29 -96 -17 0 4 16 25 35 45
19 20 35 47 35 59 0 22 -1 22 -30 -6 -18 -18 -41 -29 -58 -29 -23 0 -27 4 -27
31 0 16 -7 42 -15 58 -14 27 -16 27 -83 22 -37 -2 -70 -1 -72 3 -7 12 -87 -1
-110 -16 -23 -16 -39 -18 -30 -4 7 12 -5 13 -23 2 -7 -5 -10 -16 -6 -25 8 -23
-22 -23 -35 0 -7 14 -13 15 -33 6 -26 -12 -78 -6 -78 8 0 5 -4 9 -10 9 -5 0
-10 -6 -10 -14 0 -7 -7 -26 -15 -42 -20 -39 -4 -51 33 -24 32 24 62 20 42 -5
-13 -16 -40 -110 -40 -141 0 -13 10 -25 26 -33 28 -12 44 -7 44 15 0 8 6 14
13 14 25 0 98 76 108 114 6 20 14 34 20 30 14 -8 69 54 62 72 -4 10 3 14 26
14 23 0 29 -4 25 -15 -4 -8 -10 -15 -15 -15 -4 0 0 -15 11 -33 19 -31 19 -34
2 -50 -9 -9 -33 -32 -52 -52 -19 -19 -39 -35 -44 -35 -5 0 -3 -7 4 -15 13 -16
6 -35 -15 -35 -8 0 -26 -12 -41 -27 -22 -22 -24 -28 -13 -37 8 -6 15 -17 17
-24 2 -10 -2 -10 -18 -2 l-21 11 21 -38 c31 -58 26 -96 -16 -143 -20 -22 -43
-40 -51 -40 -13 0 -13 3 -2 16 11 14 10 19 -9 34 -12 10 -22 23 -22 29 0 6 -7
11 -15 11 -8 0 -17 12 -20 28 -10 46 -21 57 -60 60 -24 2 -35 0 -30 -7 3 -6
17 -11 29 -11 16 0 27 -8 34 -27 22 -57 18 -95 -10 -108 -13 -6 -23 -17 -24
-25 -1 -40 -16 -60 -43 -60 -35 0 -43 8 -31 30 8 16 4 17 -45 15 -30 -2 -55
-1 -55 2 0 3 6 17 13 31 8 15 21 41 29 59 20 39 -1 36 -27 -4 -9 -13 -19 -22
-22 -19 -8 8 -43 -24 -43 -38 0 -5 -12 -27 -26 -47 -39 -57 -5 -85 42 -34 25
27 44 32 44 12 0 -20 -85 -78 -104 -71 -9 3 -16 1 -16 -5 0 -6 9 -11 20 -11
27 0 26 -3 -20 -50 -46 -47 -51 -65 -15 -56 14 4 25 3 25 -2 0 -19 -49 -53
-83 -59 -20 -3 -42 -12 -48 -19 -6 -8 -29 -14 -49 -14 -37 0 -39 -2 -45 -40
-4 -22 -11 -40 -16 -40 -5 0 -9 -5 -9 -11 0 -15 101 -4 110 12 4 6 12 9 18 5
6 -4 26 3 44 14 18 11 49 20 69 20 20 0 42 7 49 15 7 8 16 12 22 9 5 -3 14 -1
21 4 18 14 57 21 57 11 0 -5 12 -9 26 -9 14 0 23 4 19 10 -3 6 -3 20 0 31 6
16 9 18 15 8 7 -10 14 -10 35 -1 14 7 35 12 45 12 11 0 20 5 20 10 0 6 -18 10
-40 10 -22 0 -40 2 -40 5 0 3 10 16 23 29 12 13 32 36 45 52 20 25 25 27 43
16 11 -7 24 -10 29 -7 6 4 10 -1 10 -9 0 -9 6 -17 13 -17 6 -1 17 -2 22 -4 6
-1 23 -3 38 -3 16 -1 25 -6 22 -12 -3 -5 3 -10 15 -10 12 0 28 -7 36 -15 9 -8
27 -15 42 -15 15 -1 52 -14 82 -30 30 -17 60 -30 66 -30 6 0 17 -7 24 -15 10
-12 9 -15 -8 -15 -11 0 -25 7 -32 15 -7 8 -22 15 -34 15 -18 0 -76 19 -137 44
-9 4 -21 0 -29 -9 -16 -19 -30 -19 -30 0 0 8 6 15 14 15 8 0 16 7 20 15 4 11
-1 15 -19 15 -18 0 -23 -4 -18 -16 4 -10 -1 -17 -16 -21 -11 -3 -21 -9 -21
-14 0 -5 7 -5 17 -2 9 4 14 2 10 -3 -3 -6 12 -11 36 -13 22 -1 71 -17 107 -35
64 -33 123 -59 128 -57 1 1 2 3 3 6 1 14 60 65 69 60 14 -9 12 -25 -3 -25 -8
0 -20 -12 -27 -27 -8 -16 -21 -36 -29 -45 -9 -12 -10 -18 -3 -18 7 0 12 -4 12
-10 0 -5 -7 -10 -15 -10 -8 0 -15 -4 -15 -10 0 -5 7 -10 15 -10 8 0 15 5 15
10 0 6 6 10 13 10 7 0 20 9 30 20 19 23 37 26 37 8 -1 -24 -38 -58 -64 -58
-20 0 -29 -8 -41 -36 -11 -27 -12 -40 -4 -50 6 -7 8 -22 4 -33 -3 -10 -1 -23
6 -26 16 -10 -10 -25 -36 -21 -11 2 -14 1 -7 -1 8 -3 11 -11 8 -18 -3 -8 0
-16 7 -19 9 -3 8 -8 -3 -15 -22 -16 -43 -13 -36 4 6 17 -9 21 -19 4 -4 -6 -13
-8 -21 -5 -8 3 -17 -1 -20 -9 -6 -15 -25 -21 -23 -7 3 19 -3 21 -24 7 -13 -8
-27 -12 -30 -9 -4 4 -13 1 -21 -5 -8 -7 -20 -10 -26 -6 -16 10 -12 -20 11 -72
23 -49 32 -91 51 -226 13 -90 -1 -84 164 -62 135 18 300 69 312 98 2 4 10 7
18 7 8 0 31 8 52 19 42 21 113 38 218 51 80 10 124 27 124 47 0 14 -12 17 -23
6 -4 -3 -24 -7 -45 -9 -20 -1 -83 -11 -139 -21 -57 -11 -108 -16 -114 -12 -15
9 -63 -46 -54 -61 3 -5 2 -10 -4 -10 -5 0 -13 4 -16 10 -4 6 -21 0 -43 -15
-76 -52 -60 -21 41 77 77 75 107 112 112 135 7 37 -2 41 -31 15 -10 -9 -32
-24 -49 -32 -16 -8 -33 -19 -37 -25 -5 -6 -8 -2 -8 8 0 11 -8 17 -24 17 -13 0
-26 -4 -28 -9 -1 -5 -22 -12 -45 -16 -35 -5 -43 -4 -43 8 0 8 11 18 24 21 14
3 38 18 55 32 27 22 36 24 77 18 37 -5 45 -4 39 6 -6 10 -4 12 8 7 10 -3 17
-3 17 2 0 5 14 11 32 15 17 3 28 9 25 12 -3 4 -20 2 -36 -4 -25 -9 -32 -8 -39
4 -7 13 -12 13 -37 0 -37 -19 -47 -10 -16 15 27 22 47 24 54 7 3 -9 16 -2 37
19 31 33 26 42 -11 23 -13 -7 -19 -7 -19 0 0 5 6 10 13 10 14 0 39 35 31 43
-10 10 -64 -28 -64 -45 0 -20 -16 -24 -22 -6 -3 7 -12 9 -22 5 -10 -4 -14 -12
-10 -18 4 -7 1 -10 -6 -7 -8 2 -18 11 -24 20 -7 12 -2 24 27 51 42 39 47 52
17 44 -29 -8 -24 9 10 35 17 12 42 40 55 63 40 65 59 82 101 89 27 4 45 1 59
-9 19 -15 19 -17 -20 -50 -22 -19 -46 -32 -52 -30 -16 5 -16 -3 -2 -44 6 -17
15 -31 20 -31 12 0 11 14 -2 27 -13 13 -3 36 12 28 15 -10 10 -57 -8 -77 -20
-23 -12 -33 16 -19 16 9 19 18 15 40 -7 33 13 78 52 116 26 26 26 26 41 6 8
-12 19 -21 25 -21 6 0 17 -8 24 -17 11 -15 13 -16 14 -2 0 8 -7 24 -15 35 -20
26 -19 34 4 34 15 0 21 8 23 32 2 24 9 34 23 36 42 6 94 25 89 34 -3 4 -12 4
-20 0 -9 -5 -37 -5 -62 0 -107 21 -127 21 -180 -4 -29 -12 -52 -29 -52 -35 0
-8 -12 -13 -28 -13 -28 0 -62 -26 -62 -47 0 -6 -26 -33 -57 -60 -72 -61 -115
-103 -128 -127 -7 -12 -24 -20 -48 -21 -33 -3 -36 -1 -26 11 7 8 18 13 25 10
7 -3 20 7 30 21 13 21 14 30 5 45 -6 10 -11 26 -11 36 0 23 44 62 70 62 25 0
99 38 126 64 11 12 30 27 41 35 12 8 27 24 33 37 7 12 23 27 36 33 32 14 33
45 2 36 -39 -10 -157 -70 -157 -79 -1 -5 15 -6 34 -3 l35 6 -27 -23 c-21 -17
-45 -24 -100 -29 -70 -6 -104 5 -66 21 12 5 0 9 -37 12 -62 6 -71 20 -22 35
44 13 40 25 -8 25 -22 0 -40 5 -40 10 0 6 -4 10 -10 10 -5 0 -35 12 -67 26
-84 38 -119 74 -73 74 12 0 20 7 20 16 0 9 13 30 30 45 16 16 26 29 20 29 -5
0 -11 -4 -14 -8 -7 -12 -61 -13 -87 -3 -17 7 -19 10 -7 10 10 1 61 21 113 46
53 25 116 50 141 54 25 5 68 23 95 40 28 17 56 31 63 31 24 0 25 -12 4 -30
l-21 -17 24 -22 c20 -20 22 -25 9 -32 -8 -6 -43 -27 -78 -48 l-63 -38 36 -32
c20 -17 43 -32 53 -32 50 -4 64 -7 75 -18 6 -6 20 -11 31 -11 11 0 34 -5 52
-12 17 -6 40 -8 50 -4 17 7 16 9 -8 22 -15 8 -54 17 -88 21 -41 4 -60 10 -60
19 0 9 12 14 33 14 18 0 38 5 44 11 9 9 57 17 116 18 10 1 15 6 12 11 -3 6 -2
10 4 10 19 0 53 59 46 80 -4 11 -11 18 -16 14 -5 -3 -7 -9 -4 -14 8 -13 -24
-40 -40 -34 -8 4 -15 14 -15 24 0 11 -4 21 -8 24 -5 3 -12 53 -15 110 -3 58
-13 133 -23 166 -18 64 -11 90 25 90 9 0 23 4 31 10 12 7 12 12 -4 29 -27 29
-10 26 75 -13 80 -37 168 -96 243 -163 42 -37 46 -44 36 -63 -7 -13 -18 -19
-28 -16 -9 2 -33 7 -53 10 -35 6 -38 4 -48 -25 -6 -18 -11 -33 -11 -35 0 -1 9
0 21 3 17 5 19 2 13 -21 -9 -36 -1 -33 45 16 22 24 41 41 44 38 5 -5 -24 -130
-38 -165 -6 -14 -2 -13 13 7 12 14 22 35 22 45 0 10 4 23 9 29 11 10 29 95 36
170 l5 51 -39 19 c-22 10 -37 22 -35 26 2 3 -4 9 -15 13 -10 3 -29 14 -41 25
-13 11 -31 20 -41 20 -9 0 -19 3 -21 8 -4 10 -84 72 -93 72 -4 0 -27 21 -52
46 l-45 45 -25 -22 -24 -23 -22 25 c-36 41 -77 73 -77 61z m-650 -224 c-1 -7
-7 -24 -15 -38 -8 -14 -14 -35 -15 -47 0 -26 -18 -31 -26 -8 -7 17 33 105 47
105 5 0 9 -6 9 -12z m390 -15 c0 -5 -5 -15 -10 -23 -7 -11 -12 -12 -21 -3 -6
6 -8 16 -5 22 8 12 36 15 36 4z m-82 -76 c-1 -1 -13 -8 -26 -15 -37 -21 -49
-2 -16 24 25 20 30 21 37 8 5 -9 7 -16 5 -17z m42 13 c0 -5 -5 -10 -11 -10 -5
0 -7 5 -4 10 3 6 8 10 11 10 2 0 4 -4 4 -10z m-35 -86 c-17 -14 -41 -24 -59
-24 -17 0 -41 -3 -53 -6 -29 -8 -30 9 -2 35 17 15 31 19 63 15 32 -4 46 -1 56
11 10 12 15 14 18 5 3 -7 -8 -23 -23 -36z m214 -18 c-75 -69 -207 -165 -236
-171 -15 -3 -22 -2 -15 1 6 3 10 10 6 15 -3 5 0 9 5 9 12 0 28 12 120 94 80
71 155 119 160 104 2 -6 -16 -29 -40 -52z m180 -225 c33 -31 38 -41 19 -41
-16 0 -58 41 -58 57 0 18 4 17 39 -16z m-1073 -69 c-9 -26 -36 -37 -36 -15 0
15 31 45 38 38 2 -2 1 -12 -2 -23z m51 -39 c-3 -10 -5 -4 -5 12 0 17 2 24 5
18 2 -7 2 -21 0 -30z m183 22 c0 -3 -5 -14 -12 -25 -17 -26 -2 -37 21 -16 19
17 19 17 14 -6 -11 -50 -13 -54 -23 -38 -5 8 -17 15 -27 15 -17 0 -21 27 -8
63 4 11 35 18 35 7z m325 -155 c4 -6 -7 -10 -27 -9 -27 0 -30 2 -13 9 27 12
33 12 40 0z m-65 -10 c0 -5 -17 -10 -37 -9 -31 0 -34 2 -18 9 28 12 55 12 55
0z m-575 -110 c-3 -5 -13 -10 -21 -10 -8 0 -14 5 -14 10 0 6 9 10 21 10 11 0
17 -4 14 -10z m895 -190 c0 -5 -9 -10 -20 -10 -11 0 -20 5 -20 10 0 6 9 10 20
10 11 0 20 -4 20 -10z m40 -230 c0 -5 -5 -10 -11 -10 -7 0 -28 -16 -47 -36
-25 -25 -38 -32 -45 -25 -8 8 -8 11 1 11 7 0 12 6 12 13 0 8 17 23 38 34 43
25 52 27 52 13z m-110 -115 c-7 -9 -15 -13 -17 -11 -7 7 7 26 19 26 6 0 6 -6
-2 -15z m-260 -4 c0 -12 -20 -25 -27 -18 -7 7 6 27 18 27 5 0 9 -4 9 -9z m230
-15 c0 -3 -4 -8 -10 -11 -5 -3 -10 -1 -10 4 0 6 5 11 10 11 6 0 10 -2 10 -4z
m64 -22 c9 -3 14 -10 11 -15 -7 -10 -35 0 -35 12 0 11 3 11 24 3z m-166 -16
c-5 -16 -48 -24 -48 -10 0 11 17 20 38 21 8 1 12 -5 10 -11z m-117 -74 c5 -6
1 -17 -11 -27 -19 -16 -20 -16 -20 21 0 42 13 66 19 35 2 -10 7 -23 12 -29z
m59 -4 c0 -5 -4 -10 -10 -10 -5 0 -10 5 -10 10 0 6 5 10 10 10 6 0 10 -4 10
-10z m240 -6 c0 -10 -28 -34 -40 -34 -8 0 -8 6 0 20 10 18 40 29 40 14z m15
-44 c-3 -5 -14 -10 -23 -10 -15 0 -15 2 -2 10 20 13 33 13 25 0z m-310 -30 c3
-5 1 -10 -4 -10 -6 0 -11 5 -11 10 0 6 2 10 4 10 3 0 8 -4 11 -10z m158 3 c-7
-2 -21 -2 -30 0 -10 3 -4 5 12 5 17 0 24 -2 18 -5z"/>
<path d="M4451 2414 c0 -11 3 -14 6 -6 3 7 2 16 -1 19 -3 4 -6 -2 -5 -13z"/>
<path d="M4198 2383 c7 -3 16 -2 19 1 4 3 -2 6 -13 5 -11 0 -14 -3 -6 -6z"/>
<path d="M4138 2368 c9 -9 15 -9 24 0 9 9 7 12 -12 12 -19 0 -21 -3 -12 -12z"/>
<path d="M5908 2356 c-26 -19 -22 -27 7 -14 14 6 25 15 25 20 0 12 -12 9 -32
-6z"/>
<path d="M1882 2338 c-14 -14 -16 -38 -4 -38 5 0 14 11 20 25 12 26 4 33 -16
13z"/>
<path d="M5980 2322 c-46 -28 -91 -48 -235 -105 -107 -43 -181 -116 -209 -205
-11 -34 -23 -62 -28 -62 -5 0 -8 -12 -7 -27 2 -16 -5 -41 -15 -58 -9 -16 -15
-22 -12 -12 7 23 -3 47 -20 47 -18 0 -38 37 -24 45 5 3 10 16 9 28 0 22 -48
-64 -78 -143 -24 -60 -64 -145 -71 -150 -17 -12 -70 -109 -70 -128 0 -12 7
-39 16 -61 l15 -39 28 27 c16 14 31 40 34 56 3 17 13 51 22 77 l17 47 39 -19
c21 -11 45 -20 54 -20 20 0 89 70 115 117 34 63 40 71 105 148 19 22 35 46 35
53 0 7 21 33 48 58 43 42 46 47 30 58 -21 15 -24 30 -6 24 12 -4 48 31 48 46
0 14 38 49 68 61 17 8 32 19 32 24 0 6 11 11 25 11 29 0 33 -24 10 -54 -8 -11
-15 -37 -15 -58 0 -21 -4 -38 -9 -38 -8 0 -8 -47 0 -75 4 -14 -11 -55 -21 -55
-4 0 -10 9 -13 20 -3 11 -12 20 -20 20 -18 0 -57 -46 -57 -66 0 -8 -4 -14 -8
-14 -5 0 -45 -74 -90 -163 -45 -90 -91 -172 -102 -182 -11 -10 -20 -26 -20
-37 0 -10 -3 -18 -7 -18 -5 0 -16 -13 -25 -30 l-17 -29 37 -7 c20 -4 45 -14
55 -22 16 -14 19 -14 27 -2 6 8 10 21 10 28 0 6 4 12 10 12 5 0 12 11 16 25 3
14 10 25 15 25 8 0 11 -11 24 -73 2 -12 -1 -17 -10 -14 -16 7 -53 -32 -58 -59
-1 -12 -10 -33 -20 -47 -9 -15 -17 -30 -17 -36 0 -11 -24 -21 -51 -21 -17 0
-18 3 -8 21 12 23 -3 51 -15 30 -10 -16 -46 -14 -46 3 0 19 -26 40 -34 27 -4
-5 -1 -13 5 -17 9 -5 8 -10 -2 -18 -8 -6 -14 -29 -14 -53 l0 -43 70 0 c73 0
314 58 423 101 52 21 96 24 254 17 34 -2 58 1 58 7 1 6 -8 11 -19 13 -13 2
-21 12 -23 30 -3 26 -6 27 -69 32 -44 3 -74 11 -86 23 -30 26 -70 20 -158 -23
-44 -22 -85 -40 -91 -40 -5 0 -20 -9 -32 -20 l-22 -21 0 25 c0 17 12 34 37 53
60 46 83 69 83 87 0 9 -5 16 -11 16 -8 0 -7 5 1 15 10 12 10 21 2 40 -11 24
-11 25 31 25 38 0 44 4 60 36 25 51 22 64 -13 64 -39 0 -43 36 -5 46 27 7 70
-20 59 -37 -10 -17 52 -38 94 -32 33 4 42 2 42 -9 0 -9 6 -21 14 -28 12 -9 16
-6 21 23 10 52 0 75 -30 69 -14 -2 -28 -8 -31 -13 -7 -12 -34 -12 -34 0 0 5
16 19 35 31 19 12 33 26 29 31 -7 12 -47 12 -59 0 -15 -14 -72 -23 -79 -13 -8
14 23 38 69 52 71 23 1 33 -93 14 -19 -4 -23 -9 -18 -28 11 -44 -30 -42 -53 2
-13 24 -12 25 42 36 31 7 37 36 8 36 -11 0 -33 12 -48 26 l-28 26 35 -6 c18
-4 36 -10 40 -15 8 -13 113 -31 129 -21 19 10 2 19 -48 22 -30 2 -41 7 -39 18
2 11 20 16 65 18 39 2 66 8 74 18 18 21 7 25 -25 9 -34 -18 -36 -18 -36 -2 0
7 14 21 30 30 29 17 41 47 20 47 -5 0 -10 7 -10 15 0 10 -10 15 -27 15 -17 0
-23 3 -16 8 21 13 35 65 39 145 3 64 1 77 -11 77 -9 0 -18 12 -21 30 -7 30
-35 42 -49 20 -5 -7 -11 -8 -19 -1 -8 7 -25 1 -56 -17z m20 -40 c0 -13 -38
-45 -48 -41 -18 7 7 49 28 49 11 0 20 -4 20 -8z m86 -250 c15 -10 24 -51 13
-57 -14 -10 -49 14 -49 34 0 28 15 38 36 23z m-61 -78 c0 -19 -49 -44 -62 -31
-9 9 38 58 51 54 6 -2 11 -12 11 -23z m-117 -66 c7 -7 12 -24 12 -39 0 -23 -3
-26 -22 -21 -18 4 -20 2 -14 -13 7 -19 -23 -105 -36 -105 -5 0 -8 -11 -8 -25
0 -16 -6 -25 -15 -25 -11 0 -15 11 -15 41 0 57 20 119 38 119 12 0 12 3 2 15
-19 23 -4 65 23 65 13 0 28 -5 35 -12z m128 -490 c7 -11 -41 -58 -59 -58 -4 0
-20 -8 -34 -17 -27 -18 -115 -45 -122 -37 -8 8 22 34 39 34 10 0 31 11 47 24
37 31 95 66 110 66 6 0 15 -5 19 -12z m95 -38 c21 -17 21 -19 6 -20 -10 0 -27
9 -39 20 -30 27 0 28 33 0z m-364 -46 c18 -18 17 -21 -14 -36 -16 -8 -38 -20
-49 -28 -12 -7 -29 -10 -38 -7 -15 6 -13 11 15 36 27 25 30 32 19 45 -11 14
-8 15 21 9 19 -3 40 -12 46 -19z"/>
<path d="M4555 2331 c-3 -5 -1 -12 5 -16 5 -3 10 1 10 9 0 18 -6 21 -15 7z"/>
<path d="M1970 2290 c0 -12 28 -25 36 -17 3 3 -4 10 -15 17 -15 7 -21 7 -21 0z"/>
<path d="M2378 2293 c7 -3 16 -2 19 1 4 3 -2 6 -13 5 -11 0 -14 -3 -6 -6z"/>
<path d="M6205 2224 c-6 -54 -11 -67 -29 -75 -17 -8 -21 -17 -18 -39 3 -20 8
-27 18 -23 22 8 94 84 94 99 0 21 38 51 73 58 17 4 27 10 21 14 -14 13 -88 32
-121 32 -30 0 -31 -1 -38 -66z"/>
<path d="M4220 2250 c0 -5 5 -10 10 -10 6 0 10 5 10 10 0 6 -4 10 -10 10 -5 0
-10 -4 -10 -10z"/>
<path d="M6405 2250 c-18 -8 -17 -9 8 -9 16 -1 26 3 22 9 -3 6 -7 10 -8 9 -1
0 -11 -4 -22 -9z"/>
<path d="M5548 2243 c7 -3 16 -2 19 1 4 3 -2 6 -13 5 -11 0 -14 -3 -6 -6z"/>
<path d="M1675 2220 c-4 -6 5 -10 19 -10 14 0 26 5 26 10 0 6 -9 10 -19 10
-11 0 -23 -4 -26 -10z"/>
<path d="M2896 2217 c3 -10 9 -15 12 -12 3 3 0 11 -7 18 -10 9 -11 8 -5 -6z"/>
<path d="M4190 2220 c-9 -6 -10 -10 -3 -10 6 0 15 5 18 10 8 12 4 12 -15 0z"/>
<path d="M2531 2184 c0 -11 3 -14 6 -6 3 7 2 16 -1 19 -3 4 -6 -2 -5 -13z"/>
<path d="M1712 2169 c-7 -12 -11 -24 -8 -27 6 -6 35 27 36 41 0 14 -15 7 -28
-14z"/>
<path d="M1520 2171 c0 -5 -3 -18 -6 -28 -6 -16 -5 -16 9 2 19 23 21 35 7 35
-5 0 -10 -4 -10 -9z"/>
<path d="M916 2152 c-5 -8 -19 -12 -32 -9 -27 5 -29 -6 -16 -78 l8 -40 27 54
c15 30 26 61 25 70 -3 13 -5 13 -12 3z"/>
<path d="M1545 2140 c-3 -5 -2 -10 4 -10 5 0 13 5 16 10 3 6 2 10 -4 10 -5 0
-13 -4 -16 -10z"/>
<path d="M2924 2119 c-8 -14 11 -33 25 -25 6 4 11 14 11 22 0 16 -26 19 -36 3z"/>
<path d="M5442 2109 c2 -6 8 -10 13 -10 5 0 11 4 13 10 2 6 -4 11 -13 11 -9 0
-15 -5 -13 -11z"/>
<path d="M2920 2040 c0 -12 -10 -25 -25 -32 -29 -13 -32 -26 -9 -35 10 -4 22
1 30 11 21 30 35 9 30 -47 -2 -29 -7 -60 -11 -69 -5 -13 -2 -18 9 -18 12 0 16
10 16 46 0 51 14 84 34 84 9 0 12 7 9 20 -3 11 -14 20 -23 20 -10 0 -22 9 -25
20 -8 26 -35 26 -35 0z"/>
<path d="M2590 2010 c0 -5 5 -10 10 -10 6 0 10 5 10 10 0 6 -4 10 -10 10 -5 0
-10 -4 -10 -10z"/>
<path d="M5880 2006 c0 -17 14 -29 23 -20 8 8 -3 34 -14 34 -5 0 -9 -6 -9 -14z"/>
<path d="M3870 1978 l0 -32 23 22 c19 19 20 24 7 32 -25 16 -30 12 -30 -22z"/>
<path d="M4911 2001 c-10 -7 -10 -12 0 -30 18 -28 29 -27 29 3 0 29 -10 38
-29 27z"/>
<path d="M3318 1941 c-10 -20 -23 -52 -29 -71 -7 -19 -19 -46 -28 -60 -9 -14
-26 -43 -36 -64 -11 -22 -30 -50 -42 -64 -22 -24 -31 -62 -15 -62 11 0 63 84
96 155 15 33 32 68 37 77 5 10 9 23 9 29 0 6 7 26 16 45 9 18 14 37 12 43 -1
5 -11 -8 -20 -28z"/>
<path d="M6180 1970 c0 -5 5 -10 10 -10 6 0 10 5 10 10 0 6 -4 10 -10 10 -5 0
-10 -4 -10 -10z"/>
<path d="M3000 1938 c0 -7 5 -20 10 -28 8 -12 10 -11 10 7 0 12 -4 25 -10 28
-5 3 -10 0 -10 -7z"/>
<path d="M2880 1926 c0 -2 8 -10 18 -17 15 -13 16 -12 3 4 -13 16 -21 21 -21
13z"/>
<path d="M0 1873 c0 -18 5 -35 10 -38 6 -3 10 -20 10 -36 0 -19 4 -28 11 -24
6 4 8 14 5 22 -3 8 -1 24 5 35 9 17 7 25 -15 47 l-26 26 0 -32z"/>
<path d="M2540 1890 c0 -5 5 -10 10 -10 6 0 10 5 10 10 0 6 -4 10 -10 10 -5 0
-10 -4 -10 -10z"/>
<path d="M2847 1882 c3 -12 9 -25 14 -28 5 -3 9 -13 9 -23 0 -10 10 -26 22
-37 l22 -19 -17 25 c-9 13 -17 31 -17 40 0 8 -9 26 -20 40 -19 24 -19 24 -13
2z"/>
<path d="M2980 1890 c0 -5 5 -10 10 -10 6 0 10 5 10 10 0 6 -4 10 -10 10 -5 0
-10 -4 -10 -10z"/>
<path d="M5020 1860 c0 -5 5 -10 10 -10 6 0 10 5 10 10 0 6 -4 10 -10 10 -5 0
-10 -4 -10 -10z"/>
<path d="M6960 1839 c0 -5 5 -7 10 -4 6 3 10 8 10 11 0 2 -4 4 -10 4 -5 0 -10
-5 -10 -11z"/>
<path d="M255 1824 c-18 -14 -18 -14 2 -14 23 0 39 15 26 23 -5 3 -17 -1 -28
-9z"/>
<path d="M658 1813 c6 -2 18 -2 25 0 6 3 1 5 -13 5 -14 0 -19 -2 -12 -5z"/>
<path d="M373 1791 c-20 -20 -125 -71 -148 -71 -7 0 -16 -4 -19 -9 -3 -5 -23
-7 -45 -4 -31 4 -42 1 -60 -18 -11 -12 -21 -19 -21 -13 0 5 -4 2 -10 -6 -6 -9
-5 -17 3 -22 8 -5 5 -13 -10 -25 -12 -10 -23 -27 -25 -38 -2 -15 4 -21 32 -25
19 -4 45 -10 57 -14 16 -5 25 -2 33 13 9 18 6 22 -26 36 -21 8 -35 18 -32 21
3 2 30 9 59 15 30 5 67 13 83 16 16 3 44 16 63 29 40 27 91 40 104 27 6 -6 6
-25 1 -50 -11 -46 1 -79 18 -53 5 8 10 27 10 42 0 15 6 31 14 35 19 11 22 32
8 66 -7 16 -12 32 -12 37 0 10 -33 30 -49 30 -6 0 -18 -8 -28 -19z"/>
<path d="M676 1778 c-8 -30 -51 -60 -94 -67 -27 -5 -36 -11 -39 -30 -2 -14
-10 -32 -18 -41 -17 -19 -11 -30 17 -30 10 0 18 6 18 14 0 25 20 28 38 6 16
-20 19 -20 46 -6 16 8 46 18 68 21 46 8 49 23 8 38 -16 6 -30 15 -30 18 0 4
18 15 40 25 48 21 51 38 10 59 -40 21 -57 19 -64 -7z"/>
<path d="M6365 1790 c3 -5 8 -10 11 -10 2 0 4 5 4 10 0 6 -5 10 -11 10 -5 0
-7 -4 -4 -10z"/>
<path d="M5105 1740 c-30 -32 -53 -38 -73 -18 -16 16 -29 1 -16 -20 24 -38 94
-20 114 29 17 41 9 44 -25 9z"/>
<path d="M2946 1734 c-4 -10 -1 -21 6 -25 16 -10 25 18 10 33 -6 6 -12 3 -16
-8z"/>
<path d="M4936 1733 c-4 -5 -18 -8 -29 -8 -17 0 -22 -6 -22 -24 0 -13 5 -26
12 -28 10 -4 73 49 73 62 0 8 -26 6 -34 -2z"/>
<path d="M7024 1688 c-4 -5 3 -20 15 -31 16 -16 24 -18 32 -10 7 7 9 18 6 26
-7 18 -45 29 -53 15z"/>
<path d="M2640 1680 c0 -5 5 -10 10 -10 6 0 10 5 10 10 0 6 -4 10 -10 10 -5 0
-10 -4 -10 -10z"/>
<path d="M4838 1683 c7 -3 16 -2 19 1 4 3 -2 6 -13 5 -11 0 -14 -3 -6 -6z"/>
<path d="M7370 1680 c-8 -5 -15 -17 -15 -27 0 -28 -35 -29 -36 -1 -1 13 -6 -8
-10 -47 -7 -60 -2 -271 7 -263 2 3 6 26 20 141 4 37 10 54 15 45 6 -9 9 -5 9
13 0 54 74 83 86 33 6 -24 -12 -102 -26 -114 -3 -3 -12 -25 -19 -50 -7 -25
-22 -60 -34 -79 -18 -30 -21 -32 -27 -15 -5 14 -11 2 -20 -41 -15 -71 -8 -417
9 -480 6 -22 16 -57 22 -77 l10 -38 69 0 70 0 0 38 c0 21 -5 43 -12 50 -7 7
-11 33 -9 63 1 28 -2 63 -7 78 -6 14 -18 53 -27 85 -10 33 -24 71 -31 85 -8
14 -14 33 -14 43 0 9 -13 27 -28 40 -64 53 -44 91 38 74 86 -17 85 -20 88 208
l2 197 -22 -15 c-37 -26 -57 -20 -76 24 -13 31 -20 37 -32 30z"/>
<path d="M4962 1673 c-28 -5 -40 -32 -21 -44 22 -14 76 -11 82 5 4 10 -27 50
-36 45 -1 -1 -12 -4 -25 -6z"/>
<path d="M2680 1646 c0 -9 5 -16 10 -16 6 0 10 4 10 9 0 6 -4 13 -10 16 -5 3
-10 -1 -10 -9z"/>
<path d="M5080 1620 c0 -5 5 -10 10 -10 6 0 10 5 10 10 0 6 -4 10 -10 10 -5 0
-10 -4 -10 -10z"/>
<path d="M4640 1590 c0 -5 -11 -12 -25 -16 -14 -3 -25 -12 -25 -20 0 -8 -7
-14 -15 -14 -19 0 -19 -7 -1 -26 16 -15 61 -20 52 -5 -3 5 4 12 17 15 12 3 36
17 52 31 l30 26 -28 -6 c-19 -4 -29 -1 -33 10 -7 17 -24 21 -24 5z"/>
<path d="M6340 1554 c0 -13 -4 -24 -10 -24 -5 0 -10 -11 -10 -25 0 -20 5 -25
28 -26 15 0 21 -3 15 -6 -19 -7 -16 -43 3 -43 9 0 28 13 43 29 20 22 28 41 30
76 2 41 0 45 -15 37 -9 -5 -32 -6 -50 -2 -31 7 -34 6 -34 -16z"/>
<path d="M3312 1525 c0 -16 2 -22 5 -12 2 9 2 23 0 30 -3 6 -5 -1 -5 -18z"/>
<path d="M5161 1514 c0 -11 3 -14 6 -6 3 7 2 16 -1 19 -3 4 -6 -2 -5 -13z"/>
<path d="M0 1415 c0 -47 4 -85 9 -85 5 0 23 13 40 29 36 34 43 76 11 68 -15
-4 -20 0 -20 16 -1 22 -21 57 -34 57 -3 0 -6 -38 -6 -85z"/>
<path d="M6150 1490 c0 -15 38 -50 55 -50 22 0 18 18 -5 25 -11 3 -20 13 -20
21 0 8 -7 14 -15 14 -8 0 -15 -4 -15 -10z"/>
<path d="M3420 1460 c0 -5 4 -10 9 -10 6 0 13 5 16 10 3 6 -1 10 -9 10 -9 0
-16 -4 -16 -10z"/>
<path d="M3982 1413 c-11 -19 -4 -109 11 -145 12 -28 27 -38 27 -17 0 5 5 7
10 4 6 -3 10 -1 10 5 0 14 53 4 58 -11 5 -11 59 -12 66 0 3 4 20 11 37 15 17
3 40 18 51 32 14 17 28 24 42 22 12 -3 27 1 34 8 9 10 2 17 -34 34 -26 11 -50
20 -55 20 -4 0 -24 9 -44 21 l-35 21 8 -23 c5 -13 12 -36 15 -50 7 -26 6 -26
-41 -18 -26 4 -49 5 -51 3 -2 -1 -10 4 -19 13 -13 12 -13 19 -3 35 12 20 12
20 -18 2 -35 -20 -51 -12 -33 16 16 25 16 25 -8 27 -11 1 -24 -5 -28 -14z
m258 -116 c0 -16 -35 -1 -38 16 -3 16 -1 17 17 5 12 -7 21 -17 21 -21z"/>
<path d="M2960 1405 c0 -4 7 -13 15 -22 40 -39 -11 -74 -117 -79 -79 -4 -119
-19 -80 -30 12 -3 22 -10 22 -15 0 -5 3 -8 8 -8 43 7 52 -1 52 -47 0 -50 61
-195 68 -161 4 21 -15 83 -32 100 -7 7 -15 38 -18 70 -4 49 -2 57 12 57 10 0
28 8 41 18 13 11 36 22 50 25 23 6 28 13 31 47 2 25 0 39 -7 36 -5 -2 -18 1
-27 6 -10 5 -18 6 -18 3z"/>
<path d="M2628 1364 c-32 -20 -58 -40 -58 -45 0 -6 -4 -8 -9 -5 -10 6 -41 -53
-41 -78 0 -9 7 -16 16 -16 9 0 14 -6 12 -12 -3 -7 -11 -13 -19 -13 -7 0 -15
-8 -17 -18 -6 -28 48 -11 76 24 31 38 41 37 36 -6 -4 -31 -2 -35 18 -35 13 0
37 11 53 25 17 13 35 28 40 33 15 12 65 21 65 12 0 -4 9 -10 20 -13 12 -3 20
0 20 7 0 12 -88 43 -105 37 -5 -2 -19 -3 -30 -3 -11 1 -23 -4 -27 -11 -4 -6
-11 -8 -15 -3 -4 4 19 32 51 62 38 34 53 54 42 54 -20 0 -117 -70 -163 -118
-36 -37 -41 -32 -19 19 18 42 57 84 96 104 17 9 30 20 30 25 0 16 -11 12 -72
-26z"/>
<path d="M4800 1360 c0 -5 4 -10 9 -10 6 0 13 5 16 10 3 6 -1 10 -9 10 -9 0
-16 -4 -16 -10z"/>
<path d="M5268 1319 c0 -24 -2 -57 -2 -73 -3 -47 12 -57 87 -57 83 0 118 15
61 26 -27 5 -50 19 -76 48 l-38 40 0 -27 c0 -17 -4 -25 -11 -21 -6 4 -9 27 -8
51 2 24 0 46 -4 50 -4 4 -8 -13 -9 -37z"/>
<path d="M5600 1350 c0 -5 5 -10 11 -10 5 0 7 5 4 10 -3 6 -8 10 -11 10 -2 0
-4 -4 -4 -10z"/>
<path d="M5412 1329 c2 -7 10 -15 17 -17 8 -3 12 1 9 9 -2 7 -10 15 -17 17 -8
3 -12 -1 -9 -9z"/>
<path d="M4726 1272 c-3 -6 -1 -14 5 -17 14 -9 20 -2 10 14 -6 8 -11 9 -15 3z"/>
<path d="M6033 1273 c-22 -8 -14 -23 12 -23 16 0 25 6 25 15 0 15 -14 18 -37
8z"/>
<path d="M4888 1253 c7 -3 16 -2 19 1 4 3 -2 6 -13 5 -11 0 -14 -3 -6 -6z"/>
<path d="M6211 1215 c-13 -14 -27 -40 -31 -58 -4 -19 -12 -31 -20 -29 -9 2
-11 -5 -5 -30 8 -34 9 -55 2 -123 -4 -45 5 -55 48 -55 28 0 32 4 43 45 15 58
15 129 0 173 -10 28 -10 36 0 39 6 3 12 18 12 34 0 36 -17 37 -49 4z m-1 -254
c0 -6 -4 -13 -10 -16 -5 -3 -10 1 -10 9 0 9 5 16 10 16 6 0 10 -4 10 -9z"/>
<path d="M4052 1200 c-7 -18 -6 -33 4 -51 7 -13 13 -38 14 -56 0 -30 20 -60
20 -31 0 7 14 24 30 37 17 13 30 28 30 35 0 6 12 29 26 49 28 42 25 59 -7 39
-11 -7 -29 -10 -41 -6 -49 15 -67 12 -76 -16z"/>
<path d="M5831 1223 c-13 -3 -39 -13 -58 -24 -18 -10 -48 -19 -66 -19 -44 0
-77 -25 -77 -58 0 -15 -7 -40 -15 -56 -8 -15 -15 -36 -15 -46 0 -10 -4 -20 -9
-22 -4 -2 -11 -20 -15 -40 -6 -34 -5 -38 14 -38 11 0 20 -5 20 -11 0 -7 10
-31 22 -55 20 -42 24 -44 64 -44 25 0 49 -6 58 -15 8 -8 19 -15 25 -15 14 0
14 -26 1 -51 -16 -30 -30 -23 -30 15 0 39 -15 48 -72 44 -19 -1 -40 2 -47 7
-25 15 -85 15 -108 0 -12 -8 -36 -15 -52 -15 -39 0 -49 -17 -18 -29 16 -6 37
-6 60 1 46 14 87 4 87 -22 0 -17 -7 -20 -52 -21 -29 -1 -64 -4 -78 -8 -25 -7
-25 -7 -22 -114 2 -74 -1 -107 -9 -107 -7 0 -9 -13 -4 -41 7 -42 -11 -164 -28
-187 -12 -15 -51 -16 -79 -1 -19 10 -25 7 -49 -22 -28 -34 -79 -170 -79 -209
0 -19 6 -20 99 -20 l98 0 9 32 c13 44 35 49 32 6 l-3 -33 348 -3 348 -2 -6 72
c-5 53 -12 77 -26 89 -16 15 -17 18 -4 29 21 17 19 31 -10 70 -24 33 -24 33
-5 50 15 13 20 30 20 67 0 57 -36 145 -50 123 -5 -8 -6 5 -3 31 5 40 33 92 33
61 0 -7 7 -12 15 -12 14 0 14 3 -1 24 -8 14 -14 35 -12 48 3 24 16 26 66 14
20 -4 22 -3 12 9 -8 10 -8 19 -1 33 7 13 7 23 -2 32 -9 10 -9 14 1 17 21 8 13
23 -13 23 -28 0 -31 -11 -13 -40 7 -10 9 -23 4 -27 -10 -11 -38 28 -31 44 3 7
8 20 11 28 9 21 -42 38 -93 31 -56 -7 -63 8 -16 33 21 11 32 20 25 21 -7 0
-10 4 -7 10 3 5 -6 12 -20 16 -24 6 -25 8 -11 30 10 14 14 34 10 53 -5 21 0
38 14 58 12 17 23 54 28 90 4 38 12 64 20 67 21 8 17 23 -8 30 -30 7 -57 -27
-58 -71 0 -17 -6 -38 -13 -45 -22 -23 -44 -94 -39 -128 4 -26 0 -36 -18 -50
l-23 -18 31 -7 c38 -8 40 -18 10 -39 -24 -17 -65 -20 -117 -10 -31 7 -44 24
-16 24 7 0 18 6 22 14 4 8 17 16 28 19 18 4 18 5 -2 6 -27 1 -30 27 -8 57 17
23 19 58 4 86 -9 16 -7 24 10 42 12 12 21 29 21 37 0 8 14 20 30 26 23 9 30
18 30 37 0 29 -9 33 -29 14 -11 -10 -14 -10 -18 0 -5 12 -26 13 -72 5z m-91
-328 c25 -14 24 -14 -17 -15 -32 0 -43 4 -43 15 0 19 27 19 60 0z m180 -75
c-13 -8 -13 -10 1 -10 25 0 31 -28 9 -40 -33 -18 -120 -11 -120 10 0 4 13 13
30 20 16 7 27 16 24 21 -3 5 12 9 33 9 28 0 34 -3 23 -10z m-140 -135 c10 -12
10 -18 0 -30 -17 -20 -40 -2 -33 25 6 24 16 25 33 5z m263 -278 c-9 -15 -21 4
-15 25 5 21 6 21 12 2 4 -10 5 -22 3 -27z m-257 -157 c19 0 34 -5 34 -11 0 -7
-11 -9 -27 -6 -15 3 -37 0 -50 -6 -29 -13 -58 7 -33 23 8 6 21 8 28 5 8 -3 29
-5 48 -5z m29 -110 c0 -11 -11 -14 -45 -12 -56 4 -80 11 -80 23 0 6 26 9 63 7
47 -2 62 -7 62 -18z"/>
<path d="M2780 1211 c0 -6 5 -13 10 -16 6 -3 10 1 10 9 0 9 -4 16 -10 16 -5 0
-10 -4 -10 -9z"/>
<path d="M4760 1210 c0 -5 5 -10 10 -10 6 0 10 5 10 10 0 6 -4 10 -10 10 -5 0
-10 -4 -10 -10z"/>
<path d="M2460 1150 c0 -19 3 -21 12 -12 9 9 9 15 0 24 -9 9 -12 7 -12 -12z"/>
<path d="M4830 1145 c-33 -13 -34 -14 -8 -14 32 -1 58 8 58 20 0 11 -7 11 -50
-6z"/>
<path d="M5340 1121 c0 -17 18 -21 24 -6 3 9 0 15 -9 15 -8 0 -15 -4 -15 -9z"/>
<path d="M6785 1120 c3 -5 8 -10 11 -10 2 0 4 5 4 10 0 6 -5 10 -11 10 -5 0
-7 -4 -4 -10z"/>
<path d="M2325 1100 c3 -5 10 -10 16 -10 5 0 9 5 9 10 0 6 -7 10 -16 10 -8 0
-12 -4 -9 -10z"/>
<path d="M2770 1096 c0 -8 4 -17 9 -20 5 -4 7 3 4 14 -6 23 -13 26 -13 6z"/>
<path d="M2835 1090 c-4 -12 -5 -24 -2 -27 3 -2 8 5 12 17 4 12 5 24 2 27 -3
2 -8 -5 -12 -17z"/>
<path d="M1831 1053 c-8 -26 -25 -72 -38 -101 -29 -61 -24 -77 11 -39 17 18
28 47 36 96 14 86 10 109 -9 44z"/>
<path d="M2313 1063 c9 -9 19 -14 23 -11 10 10 -6 28 -24 28 -15 0 -15 -1 1
-17z"/>
<path d="M5302 1040 c0 -19 2 -27 5 -17 2 9 2 25 0 35 -3 9 -5 1 -5 -18z"/>
<path d="M5017 1030 c-3 -11 -1 -23 4 -26 5 -3 9 6 9 20 0 31 -6 34 -13 6z"/>
<path d="M2310 1030 c0 -5 5 -10 11 -10 5 0 7 5 4 10 -3 6 -8 10 -11 10 -2 0
-4 -4 -4 -10z"/>
<path d="M2511 1024 c0 -11 3 -14 6 -6 3 7 2 16 -1 19 -3 4 -6 -2 -5 -13z"/>
<path d="M7091 1024 c0 -11 3 -14 6 -6 3 7 2 16 -1 19 -3 4 -6 -2 -5 -13z"/>
<path d="M4622 998 c-17 -17 -15 -24 8 -24 22 0 24 4 12 23 -6 10 -11 10 -20
1z"/>
<path d="M2492 970 c0 -14 2 -19 5 -12 2 6 2 18 0 25 -3 6 -5 1 -5 -13z"/>
<path d="M2797 968 c-2 -8 -22 -22 -43 -33 -22 -11 -43 -26 -47 -33 -4 -7 -23
-19 -42 -26 -19 -8 -44 -24 -55 -34 -13 -12 -29 -18 -42 -14 -11 2 -23 1 -27
-5 -7 -11 -68 -54 -96 -68 -11 -6 -21 -19 -23 -28 -3 -15 0 -16 15 -9 90 47
164 72 195 66 20 -5 21 -4 6 6 -27 16 -22 25 22 45 22 10 40 21 40 24 0 3 20
20 44 36 40 27 74 71 63 82 -3 2 -7 -2 -10 -9z"/>
<path d="M5880 950 c-9 -17 -8 -19 12 -11 26 9 36 31 14 31 -8 0 -20 -9 -26
-20z"/>
<path d="M2440 931 c-6 -12 -8 -27 -4 -33 5 -8 11 -1 16 17 9 36 3 44 -12 16z"/>
<path d="M2530 939 c0 -5 5 -7 10 -4 6 3 10 8 10 11 0 2 -4 4 -10 4 -5 0 -10
-5 -10 -11z"/>
<path d="M2908 918 c-2 -15 -11 -24 -25 -26 -13 -2 -23 -8 -23 -13 0 -6 -16
-8 -37 -4 -28 4 -33 3 -18 -4 17 -8 15 -10 -15 -10 -19 -1 -52 -10 -73 -21
-20 -11 -45 -20 -54 -20 -12 0 -14 -3 -7 -10 13 -13 126 -1 118 11 -3 5 11 9
30 9 20 0 36 5 36 10 0 6 6 10 14 10 7 0 24 11 38 23 28 26 46 67 29 67 -5 0
-11 -10 -13 -22z"/>
<path d="M5000 900 c0 -5 5 -10 10 -10 6 0 10 5 10 10 0 6 -4 10 -10 10 -5 0
-10 -4 -10 -10z"/>
<path d="M1805 887 c-4 -11 -21 -33 -36 -50 -16 -17 -41 -59 -56 -94 -20 -46
-33 -63 -46 -63 -16 0 -17 -2 -7 -15 7 -9 19 -14 26 -11 7 3 16 1 19 -4 10
-16 35 -11 35 6 0 9 -8 14 -17 13 -34 -3 -34 1 -4 39 16 21 35 50 42 65 15 33
32 25 19 -9 -6 -14 -10 -41 -10 -60 0 -19 -4 -34 -9 -34 -5 0 -11 -14 -13 -30
-3 -19 -1 -29 6 -27 14 5 24 42 25 95 1 23 5 42 9 42 11 0 35 113 30 136 -5
18 -5 18 -13 1z"/>
<path d="M5555 870 c-16 -7 -11 -9 20 -9 29 -1 36 2 25 9 -17 11 -19 11 -45 0z"/>
<path d="M2409 843 c-6 -15 -13 -41 -16 -58 l-5 -30 24 26 c14 14 30 35 37 47
9 18 8 23 -9 32 -17 9 -22 7 -31 -17z"/>
<path d="M2961 838 c0 -13 7 -54 14 -93 l13 -70 1 70 c1 75 -6 115 -20 115 -5
0 -9 -10 -8 -22z"/>
<path d="M5510 850 c-13 -8 -12 -10 3 -10 9 0 17 5 17 10 0 12 -1 12 -20 0z"/>
<path d="M6140 851 c0 -8 47 -21 76 -21 8 0 14 7 14 15 0 11 -12 15 -45 15
-25 0 -45 -4 -45 -9z"/>
<path d="M6456 806 l-38 -10 8 -86 c11 -107 11 -158 2 -238 l-8 -62 90 5 c49
2 106 11 127 20 43 18 63 14 63 -14 0 -29 -13 -33 -103 -34 -61 0 -90 -5 -112
-19 -16 -10 -38 -18 -47 -18 -12 0 -18 -8 -18 -25 0 -28 6 -30 47 -14 29 11
93 4 93 -10 0 -8 -57 -35 -100 -47 -44 -12 -47 -19 -47 -139 -1 -115 -1 -115
23 -115 14 0 24 6 24 14 0 18 63 39 101 34 26 -4 29 -2 29 22 0 35 8 42 31 27
24 -15 27 -77 4 -77 -8 0 -15 -4 -15 -10 0 -6 30 -10 70 -10 70 0 71 0 77 30
6 33 35 47 77 36 27 -7 35 12 42 94 6 77 78 300 96 300 5 0 8 17 8 38 0 26 -6
41 -20 50 -11 7 -20 23 -20 36 0 13 -6 27 -12 29 -8 3 -6 6 5 6 11 1 17 -7 18
-21 1 -22 1 -22 10 2 8 23 8 22 5 -7 -2 -32 7 -43 19 -23 12 20 23 9 30 -28 9
-55 25 -76 25 -34 0 40 -29 132 -41 132 -5 0 -9 9 -9 21 0 11 -4 18 -9 15 -5
-4 -7 2 -5 11 5 21 -12 45 -44 62 -28 15 -87 5 -123 -20 -32 -23 -104 -35
-113 -20 -10 16 12 51 33 51 10 0 24 6 30 14 10 12 8 16 -10 21 -12 4 -31 3
-43 -3 -44 -21 -134 -34 -156 -22 -11 6 -20 15 -20 20 0 18 -35 26 -74 16z
m66 -66 c10 -8 18 -20 18 -26 0 -25 25 -34 48 -18 24 17 98 16 95 -1 -1 -5
-21 -15 -45 -21 -47 -12 -60 -34 -34 -60 15 -15 21 -34 11 -34 -3 0 -25 20
-49 44 -47 48 -79 96 -91 136 -9 27 -10 28 47 -20z m398 -85 c0 -8 -4 -15 -10
-15 -5 0 -10 7 -10 15 0 8 5 15 10 15 6 0 10 -7 10 -15z m-206 -311 c9 -3 16
-14 16 -24 0 -29 -47 -38 -120 -24 l-32 7 33 15 c19 9 45 19 59 23 14 4 26 7
27 8 1 0 8 -2 17 -5z"/>
<path d="M2900 799 c0 -30 13 -59 26 -59 20 0 17 18 -6 47 -11 15 -20 20 -20
12z"/>
<path d="M5012 801 c-7 -4 -12 -14 -10 -22 2 -8 -7 -15 -20 -17 -18 -3 -21 -8
-16 -27 4 -17 0 -27 -15 -37 -12 -7 -21 -20 -22 -28 0 -16 -88 -85 -96 -76
-16 16 41 101 84 125 15 8 16 12 4 35 -11 20 -17 23 -28 15 -7 -6 -13 -21 -13
-34 0 -22 -41 -75 -57 -75 -5 0 -16 -13 -26 -29 -9 -16 -34 -38 -54 -48 -29
-14 -46 -33 -74 -88 -30 -58 -34 -72 -22 -83 7 -7 13 -20 13 -28 0 -17 20 -19
20 -1 1 7 6 5 14 -6 8 -10 44 -24 93 -34 l79 -17 23 23 c23 23 42 24 49 3 2
-7 -5 -12 -17 -12 -33 0 -33 -17 0 -22 21 -3 33 0 38 11 15 28 23 80 16 101
-6 20 -8 20 -19 4 -16 -21 -49 -11 -44 13 2 13 12 18 35 17 28 -1 32 2 37 31
4 18 4 39 1 46 -5 14 11 98 39 202 9 32 16 60 16 62 0 8 -14 6 -28 -4z m-52
-219 c0 -5 -6 -17 -14 -27 -13 -18 -14 -18 -9 8 5 24 23 39 23 19z"/>
<path d="M2860 770 c0 -5 5 -21 12 -35 9 -20 9 -37 -2 -78 -7 -29 -17 -57 -22
-64 -11 -14 39 -153 55 -153 5 0 6 8 2 18 -19 45 -26 87 -23 135 l3 52 12 -35
c11 -31 12 -25 7 50 -6 79 -18 120 -36 120 -5 0 -8 -4 -8 -10z"/>
<path d="M2822 733 c-9 -28 -8 -30 14 -30 27 0 31 14 11 42 -13 17 -15 16 -25
-12z"/>
<path d="M3511 723 c-11 -22 2 -43 27 -43 9 0 11 7 7 23 -11 34 -22 41 -34 20z"/>
<path d="M4728 695 c-25 -52 -18 -67 19 -39 28 21 47 54 23 39 -9 -5 -11 -4
-6 3 4 7 18 12 31 12 12 0 25 7 29 15 3 10 -1 15 -13 15 -11 0 -22 -6 -24 -12
-4 -10 -6 -10 -6 0 -2 28 -33 9 -53 -33z"/>
<path d="M5330 724 c0 -8 5 -12 10 -9 6 4 8 11 5 16 -9 14 -15 11 -15 -7z"/>
<path d="M226 719 c-2 -8 -7 -106 -10 -217 -4 -173 -3 -207 10 -227 9 -13 14
-34 12 -47 -3 -21 -9 -23 -60 -24 -65 -2 -155 -21 -164 -35 -3 -6 1 -33 10
-62 8 -29 17 -64 21 -79 5 -28 6 -28 85 -28 l80 0 0 31 c0 33 46 89 74 89 20
0 30 41 21 83 -4 17 -9 82 -12 142 -2 61 -9 114 -14 120 -5 5 -9 37 -9 71 0
53 -24 180 -36 193 -2 2 -6 -2 -8 -10z m-46 -634 c0 -14 -4 -25 -10 -25 -5 0
-10 11 -10 25 0 14 5 25 10 25 6 0 10 -11 10 -25z"/>
<path d="M2924 706 c-8 -33 11 -96 41 -131 22 -27 24 -28 25 -9 0 11 -6 40
-14 65 -8 24 -17 56 -20 72 -8 33 -24 35 -32 3z"/>
<path d="M2601 684 c0 -11 3 -14 6 -6 3 7 2 16 -1 19 -3 4 -6 -2 -5 -13z"/>
<path d="M2466 661 c-4 -6 -2 -11 3 -11 6 0 11 -8 11 -17 0 -13 3 -14 12 -5
10 10 9 16 -4 28 -11 11 -18 12 -22 5z"/>
<path d="M3487 657 c-3 -8 -1 -20 4 -28 6 -10 9 -7 9 14 0 29 -5 35 -13 14z"/>
<path d="M2406 628 c10 -44 6 -93 -11 -150 -7 -25 -11 -48 -9 -51 2 -2 -3 -35
-11 -72 -9 -37 -14 -84 -13 -104 4 -35 4 -36 15 -11 l12 25 0 -26 c1 -19 -5
-28 -19 -32 -11 -3 -20 -10 -20 -17 0 -6 5 -8 10 -5 6 3 10 2 10 -3 0 -6 11
-9 25 -8 27 1 41 24 25 40 -13 13 -14 273 0 281 6 3 10 21 10 40 0 18 8 47 17
63 14 25 15 32 4 46 -7 9 -22 16 -33 16 -17 0 -19 -4 -12 -32z"/>
<path d="M2370 629 c0 -5 5 -7 10 -4 6 3 10 8 10 11 0 2 -4 4 -10 4 -5 0 -10
-5 -10 -11z"/>
<path d="M2527 611 c-9 -44 -9 -51 2 -51 15 0 22 35 13 60 -8 23 -9 22 -15 -9z"/>
<path d="M4455 633 c-11 -3 -28 -12 -37 -20 -9 -8 -21 -13 -25 -10 -21 13 -38
-14 -39 -60 0 -26 -6 -58 -13 -70 -6 -13 -9 -23 -5 -23 4 0 -3 -11 -15 -24
-17 -18 -19 -25 -9 -29 18 -6 3 -20 -25 -23 -12 -1 -25 -3 -29 -3 -20 -2 -5
-21 16 -21 30 0 56 9 56 20 0 5 12 21 28 37 58 60 118 133 136 167 15 29 17
38 6 51 -7 8 -15 14 -19 14 -3 -1 -15 -4 -26 -6z"/>
<path d="M2276 614 c-12 -31 3 -34 22 -4 10 16 10 20 -2 20 -8 0 -17 -7 -20
-16z"/>
<path d="M2321 560 c-29 -42 -32 -52 -23 -77 9 -25 11 -26 11 -5 1 12 6 22 11
22 6 0 10 10 10 21 0 19 4 21 30 16 33 -7 36 -1 15 27 -8 10 -12 22 -10 27 3
4 2 10 -3 13 -4 2 -23 -17 -41 -44z"/>
<path d="M1592 568 c-11 -18 -40 -73 -64 -123 -77 -158 -90 -173 -119 -139
-23 28 -32 -9 -12 -49 24 -47 70 -75 111 -69 20 2 32 0 32 -7 0 -6 13 -11 29
-11 35 0 63 -24 54 -46 -5 -12 -15 -15 -42 -10 -20 3 -44 6 -53 6 -11 0 -18 8
-18 20 0 23 -12 25 -42 9 -17 -9 -23 -8 -30 5 -5 9 -15 16 -23 16 -7 0 -16 6
-18 13 -3 6 -6 3 -6 -9 -1 -26 49 -64 86 -64 15 0 37 -7 47 -15 11 -8 33 -15
49 -15 21 0 30 -6 34 -20 3 -11 16 -23 28 -26 13 -3 26 -12 29 -20 3 -8 13
-14 22 -14 12 0 14 4 7 13 -13 17 -16 124 -3 132 5 3 10 30 10 58 0 29 7 77
15 107 19 69 19 71 -2 63 -12 -5 -14 -3 -8 7 5 8 9 37 10 64 1 39 6 53 23 64
41 27 25 82 -25 82 -17 0 -43 -24 -43 -39 0 -19 17 -12 23 9 3 11 10 20 15 20
18 0 7 -55 -21 -102 -29 -50 -35 -74 -14 -62 9 6 9 4 -1 -8 -7 -8 -10 -22 -7
-30 4 -10 -1 -17 -14 -21 -23 -6 -44 -48 -35 -71 3 -8 -3 -16 -15 -19 -12 -3
-21 -13 -21 -24 -1 -22 -27 -59 -37 -50 -9 10 49 202 78 259 5 10 9 28 9 40 0
19 2 20 11 8 8 -12 9 -9 5 13 -4 15 -3 27 1 27 10 0 32 47 25 54 -3 3 -12 0
-20 -7 -12 -9 -16 -9 -19 1 -7 20 -20 14 -41 -20z m25 -52 c-18 -18 -39 -74
-51 -136 -5 -21 -43 -70 -56 -71 -10 0 -11 -2 -2 -6 20 -8 14 -24 -20 -54 -39
-34 -44 -35 -58 -10 -14 27 -14 28 20 35 17 3 30 12 30 19 0 7 8 22 19 33 10
11 22 31 26 45 4 13 28 65 53 114 35 68 47 85 50 67 2 -12 -3 -28 -11 -36z
m48 -423 c7 -40 6 -43 -14 -43 -12 0 -21 6 -21 15 0 8 7 15 15 15 8 0 15 5 15
10 0 6 -4 10 -8 10 -13 0 -18 77 -12 175 3 54 4 50 10 -40 4 -55 11 -119 15
-142z"/>
<path d="M2091 583 c-21 -4 -23 -9 -18 -44 5 -36 3 -39 -14 -34 -11 4 -19 2
-19 -4 0 -6 5 -11 10 -11 26 0 4 -33 -62 -91 -40 -35 -74 -67 -76 -71 -2 -5
-12 -8 -23 -8 -28 0 -35 -27 -14 -50 16 -18 20 -19 35 -5 9 8 22 15 30 15 7 0
34 24 61 53 32 35 51 49 58 42 15 -15 2 -52 -20 -58 -10 -3 -19 -13 -19 -22 0
-15 3 -15 15 -5 21 17 25 10 31 -46 2 -27 11 -55 19 -63 13 -14 15 -13 15 2 0
9 -5 17 -11 17 -5 0 -7 5 -4 10 4 6 6 59 6 118 -1 98 7 163 29 235 4 15 5 26
2 26 -4 -1 -18 -4 -31 -6z"/>
<path d="M2160 567 c0 -13 -5 -28 -12 -35 -7 -7 -14 -31 -15 -55 l-3 -42 19
30 c22 35 38 125 22 125 -6 0 -11 -10 -11 -23z"/>
<path d="M4198 579 c-14 -8 -16 -19 -11 -67 3 -31 7 -58 8 -60 7 -9 34 13 37
31 2 12 12 23 23 26 27 5 44 31 35 55 -8 22 -63 31 -92 15z"/>
<path d="M1810 571 c0 -6 5 -13 10 -16 6 -3 10 1 10 9 0 9 -4 16 -10 16 -5 0
-10 -4 -10 -9z"/>
<path d="M2821 533 c0 -28 -5 -55 -11 -58 -16 -10 -12 -55 4 -49 9 4 16 -7 21
-33 5 -24 10 -31 12 -20 3 10 -3 37 -12 59 -9 23 -12 44 -7 47 12 8 22 61 11
61 -4 0 -10 10 -12 23 -2 12 -5 -1 -6 -30z"/>
<path d="M1890 554 c0 -8 5 -12 10 -9 6 4 8 11 5 16 -9 14 -15 11 -15 -7z"/>
<path d="M2020 560 c0 -5 5 -10 10 -10 6 0 10 5 10 10 0 6 -4 10 -10 10 -5 0
-10 -4 -10 -10z"/>
<path d="M4593 529 c-24 -22 -43 -45 -43 -51 0 -22 -44 -48 -93 -54 l-49 -7
53 -33 c72 -46 92 -44 117 9 20 41 72 167 72 174 0 11 -20 -2 -57 -38z"/>
<path d="M1954 533 c-4 -15 -22 -60 -41 -99 -18 -40 -33 -75 -33 -79 0 -16 21
10 41 50 19 38 26 44 46 39 17 -5 28 -1 38 12 7 10 10 21 7 24 -4 3 -13 15
-20 28 -10 18 -10 27 -1 38 9 11 7 14 -10 14 -14 0 -23 -8 -27 -27z"/>
<path d="M2960 478 c0 -49 5 -47 13 5 3 20 2 37 -4 37 -5 0 -9 -19 -9 -42z"/>
<path d="M4315 510 c-3 -5 -2 -10 4 -10 5 0 13 5 16 10 3 6 2 10 -4 10 -5 0
-13 -4 -16 -10z"/>
<path d="M5388 463 c7 -3 16 -2 19 1 4 3 -2 6 -13 5 -11 0 -14 -3 -6 -6z"/>
<path d="M7041 448 c1 -13 5 -34 9 -48 7 -21 8 -19 9 17 1 23 -3 45 -9 48 -6
3 -10 -4 -9 -17z"/>
<path d="M1735 441 c-3 -10 -1 -29 4 -42 9 -21 10 -19 10 19 1 45 -4 54 -14
23z"/>
<path d="M1779 430 c-4 -49 -5 -55 -18 -85 -16 -38 -43 -166 -36 -173 7 -7 15
2 20 24 4 21 31 120 46 174 7 23 7 43 0 60 l-10 25 -2 -25z"/>
<path d="M3557 443 c-4 -3 -7 -11 -7 -17 0 -6 5 -5 12 2 6 6 9 14 7 17 -3 3
-9 2 -12 -2z"/>
<path d="M3582 410 c0 -14 2 -19 5 -12 2 6 2 18 0 25 -3 6 -5 1 -5 -13z"/>
<path d="M7010 403 c0 -13 5 -23 10 -23 13 0 13 11 0 30 -8 12 -10 11 -10 -7z"/>
<path d="M2892 398 c-18 -18 -15 -28 8 -28 13 0 20 7 20 20 0 23 -10 26 -28 8z"/>
<path d="M3594 372 c-6 -4 -14 -24 -18 -44 -8 -44 -20 -47 -46 -15 -22 26 -36
18 -20 -12 14 -27 107 -101 127 -101 17 0 17 1 -14 112 -12 42 -23 64 -29 60z
m16 -82 c0 -5 -4 -10 -10 -10 -5 0 -10 5 -10 10 0 6 5 10 10 10 6 0 10 -4 10
-10z"/>
<path d="M7072 360 c0 -14 2 -19 5 -12 2 6 2 18 0 25 -3 6 -5 1 -5 -13z"/>
<path d="M2199 327 c-32 -82 -48 -141 -40 -155 10 -18 40 49 46 103 2 22 7 52
11 68 9 40 1 33 -17 -16z"/>
<path d="M4390 345 c0 -6 100 -55 112 -55 23 0 2 22 -38 40 -45 19 -74 25 -74
15z"/>
<path d="M7040 339 c0 -5 5 -7 10 -4 6 3 10 8 10 11 0 2 -4 4 -10 4 -5 0 -10
-5 -10 -11z"/>
<path d="M2922 320 c-17 -14 -32 -18 -53 -13 -17 3 -29 1 -29 -5 0 -33 80 -21
97 14 6 13 10 24 10 24 -1 -1 -12 -9 -25 -20z"/>
<path d="M4195 321 c-3 -10 -5 -55 -4 -100 l2 -81 41 -1 c23 -1 65 -3 94 -4
35 -1 52 2 52 10 0 18 -25 36 -41 30 -10 -4 -14 3 -14 24 0 22 3 27 12 19 7
-5 18 -8 25 -6 31 11 53 -78 26 -99 -13 -11 -102 -26 -150 -26 -27 0 -40 -16
-15 -18 6 -1 19 -2 27 -3 8 -2 28 -3 44 -4 28 -2 29 -2 11 -22 -11 -12 -31
-20 -52 -20 -18 0 -33 -4 -33 -10 0 -6 38 -10 93 -10 l94 0 13 43 c7 23 15 71
18 107 2 36 9 73 14 83 8 15 -1 22 -54 47 -66 31 -93 37 -103 20 -12 -19 -42
-10 -53 15 -14 29 -38 33 -47 6z m63 -88 c-24 -49 -32 -63 -40 -63 -4 0 -8 3
-8 6 0 12 35 64 43 64 5 0 7 -3 5 -7z"/>
<path d="M4575 294 c-13 -5 -1 -204 15 -256 l11 -38 129 0 130 0 0 30 c0 21
-5 30 -16 30 -8 0 -12 5 -9 10 4 6 10 8 15 5 5 -3 12 7 16 22 3 15 10 43 16
60 11 39 5 53 -26 53 -33 0 -203 37 -226 50 -11 6 -20 15 -20 19 0 11 -21 19
-35 15z"/>
<path d="M4726 290 c12 -12 205 -53 212 -45 12 12 -18 24 -103 39 -107 19
-123 20 -109 6z"/>
<path d="M3460 274 c0 -3 17 -26 37 -51 36 -44 155 -114 170 -100 10 11 -6 37
-24 37 -35 0 -123 53 -144 87 -18 29 -39 44 -39 27z"/>
<path d="M2113 258 c-6 -7 -7 -22 -3 -33 7 -18 8 -17 15 8 8 32 3 43 -12 25z"/>
<path d="M2637 226 c-27 -6 -55 -20 -63 -31 -21 -29 -115 -58 -132 -41 -18 18
-70 8 -77 -15 -4 -10 -12 -19 -19 -19 -8 0 -19 -7 -26 -15 -16 -19 -12 -19 60
6 54 19 62 19 81 5 l22 -15 -24 -9 c-92 -35 -154 -52 -172 -50 -23 3 -27 -1
-27 -27 0 -13 23 -15 150 -15 83 0 150 4 150 8 0 5 13 21 29 38 16 16 30 37
32 47 2 10 8 17 14 17 5 -1 12 7 16 17 5 11 8 0 9 -32 l1 -50 14 35 c7 19 21
56 30 83 13 33 23 47 36 47 11 0 19 5 19 10 0 6 -8 10 -17 10 -10 0 -27 2 -38
4 -11 2 -42 -1 -68 -8z"/>
<path d="M1805 200 c-4 -6 -15 -8 -26 -5 -23 8 -26 -10 -3 -19 24 -9 28 -8 42
14 7 11 8 20 3 20 -6 0 -13 -5 -16 -10z"/>
<path d="M7104 195 c-3 -6 2 -25 11 -41 19 -37 19 -85 0 -110 -30 -39 -21 -44
85 -44 55 0 100 2 100 5 0 3 -4 13 -9 23 -10 19 -33 118 -35 151 -1 20 -7 22
-75 24 -46 2 -75 -1 -77 -8z"/>
<path d="M1903 148 c-2 -5 19 -8 48 -8 29 0 49 3 45 7 -10 10 -87 10 -93 1z"/>
<path d="M2120 140 c0 -5 4 -10 9 -10 6 0 13 5 16 10 3 6 -1 10 -9 10 -9 0
-16 -4 -16 -10z"/>
<path d="M1717 124 c-16 -16 -5 -24 33 -24 22 0 40 5 40 10 0 6 -9 10 -19 10
-11 0 -26 2 -33 5 -8 3 -17 2 -21 -1z"/>
<path d="M1808 93 c6 -2 18 -2 25 0 6 3 1 5 -13 5 -14 0 -19 -2 -12 -5z"/>
<path d="M2208 93 c6 -2 18 -2 25 0 6 3 1 5 -13 5 -14 0 -19 -2 -12 -5z"/>
<path d="M1860 80 c0 -13 11 -13 30 0 12 8 11 10 -7 10 -13 0 -23 -4 -23 -10z"/>
<path d="M1948 63 c7 -3 16 -2 19 1 4 3 -2 6 -13 5 -11 0 -14 -3 -6 -6z"/>
<path d="M2088 63 c7 -3 16 -2 19 1 4 3 -2 6 -13 5 -11 0 -14 -3 -6 -6z"/>
<path d="M1706 48 c11 -29 79 -48 165 -47 l84 1 -60 13 c-33 7 -84 20 -114 29
-66 19 -82 20 -75 4z"/>
<path d="M4912 38 c3 -7 17 -14 31 -16 21 -3 26 0 21 12 -7 19 -58 22 -52 4z"/>
<path d="M2169 30 c-9 -5 -45 -13 -80 -18 l-64 -10 91 -1 c89 -1 104 4 104 35
0 7 -35 4 -51 -6z"/>
<path d="M370 10 c0 -5 20 -10 45 -10 25 0 45 5 45 10 0 6 -20 10 -45 10 -25
0 -45 -4 -45 -10z"/>
<path d="M718 3 c7 -3 16 -2 19 1 4 3 -2 6 -13 5 -11 0 -14 -3 -6 -6z"/>
</g>
</svg>
