<?xml version="1.0" standalone="no"?>
<!DOCTYPE svg PUBLIC "-//W3C//DTD SVG 20010904//EN"
 "http://www.w3.org/TR/2001/REC-SVG-20010904/DTD/svg10.dtd">
<svg version="1.0" xmlns="http://www.w3.org/2000/svg"
 width="400.000000pt" height="250.000000pt" viewBox="0 0 400.000000 250.000000"
 preserveAspectRatio="xMidYMid meet">

<g transform="translate(0.000000,250.000000) scale(0.100000,-0.100000)"
fill="#000000" stroke="none">
<path d="M357 2493 c-3 -5 50 -8 116 -8 110 0 126 -2 165 -23 45 -26 48 -44 4
-36 -37 6 -520 54 -546 54 -17 -1 -18 -2 -6 -9 8 -5 58 -12 110 -16 103 -7
132 -17 128 -42 -2 -9 3 -18 10 -20 7 -3 12 5 12 22 0 17 4 24 11 19 7 -4 28
-7 48 -8 29 -1 37 -5 39 -23 5 -31 52 -33 52 -3 0 29 38 27 42 -2 2 -13 11
-24 22 -26 15 -3 18 1 14 23 -5 26 -4 27 26 21 17 -4 33 -11 34 -16 2 -6 13
-10 23 -10 11 0 17 5 14 10 -3 6 0 10 8 10 13 0 26 -10 99 -76 14 -13 37 -28
50 -33 21 -9 21 -10 -10 -10 -36 -1 -33 -9 18 -44 l24 -17 -22 0 c-13 0 -21
-4 -17 -9 6 -11 -11 -23 -40 -29 -39 -7 -99 -2 -105 9 -4 6 -11 10 -16 9 -5
-1 -10 3 -12 8 -2 6 3 10 10 9 7 0 40 1 73 3 51 3 54 4 20 7 -22 3 -45 9 -52
15 -22 18 -15 38 15 39 25 1 25 1 -6 9 -18 4 -42 6 -52 3 -21 -6 -33 -29 -24
-45 4 -7 -25 -8 -87 -4 -52 3 -177 11 -279 16 -102 6 -205 12 -230 15 -36 3
-40 3 -17 -5 15 -4 152 -16 305 -25 152 -9 283 -18 290 -20 25 -8 12 -27 -15
-22 -15 3 -37 0 -47 -5 -15 -8 -21 -8 -24 1 -5 15 -112 15 -112 0 0 -16 -141
-2 -154 16 -6 7 -23 15 -38 19 -24 5 -28 3 -28 -14 0 -18 -5 -21 -37 -18 -21
2 -40 -1 -43 -7 -3 -6 25 -12 70 -16 41 -3 82 -9 91 -13 10 -4 20 -3 24 3 13
23 46 11 60 -21 l14 -33 1 33 c0 59 34 36 43 -30 7 -48 -4 -62 -28 -39 -21 18
-63 21 -69 5 -8 -22 -29 -12 -36 17 -5 20 -13 24 -48 26 -24 2 -52 8 -62 13
-14 7 -20 7 -20 0 0 -5 -8 -10 -18 -10 -15 0 -18 -6 -14 -30 3 -23 0 -30 -12
-30 -12 0 -16 9 -16 35 0 34 -1 34 -32 28 -18 -3 -39 -10 -45 -15 -22 -18 -26
-81 -13 -188 15 -122 20 -201 23 -321 l2 -87 27 14 c15 8 33 14 40 14 7 -1 0
-7 -17 -14 -45 -20 -15 -27 106 -24 98 3 104 4 107 25 4 30 86 103 115 103 31
0 118 -29 138 -47 14 -11 18 -11 28 1 9 11 10 29 3 68 -6 29 -8 68 -5 85 5 34
14 38 98 45 l30 3 -3 70 c-4 67 -23 112 -43 100 -4 -3 -10 -1 -13 4 -4 5 4 11
16 13 25 3 25 0 12 123 -6 60 -5 68 7 58 8 -7 44 -13 79 -15 l65 -3 6 -42 c5
-39 3 -43 -16 -43 -14 0 -25 10 -32 28 l-12 27 4 -27 c3 -26 1 -28 -34 -28
-47 0 -50 -3 -42 -43 6 -29 11 -32 41 -32 31 0 35 -3 38 -27 3 -26 1 -28 -33
-28 l-36 0 7 -52 c4 -29 7 -59 7 -65 0 -9 18 -13 58 -13 l57 0 6 -42 c3 -24 6
-70 7 -103 1 -36 8 -66 16 -73 7 -7 13 -8 13 -3 0 5 7 17 16 25 8 9 11 16 5
16 -18 0 -1 28 20 33 15 4 19 1 17 -11 -2 -10 8 -24 24 -34 23 -15 28 -25 28
-57 0 -47 13 -59 36 -32 9 10 23 17 29 14 7 -2 16 0 20 6 3 6 -1 11 -10 11 -9
0 -28 12 -42 27 l-27 26 23 8 c12 5 20 13 16 18 -3 6 3 15 13 20 17 9 22 2 48
-61 41 -102 31 -151 -31 -161 -19 -3 -51 -3 -70 0 -30 5 -35 9 -35 34 0 15 -4
31 -10 34 -5 3 -7 18 -4 33 2 15 0 41 -5 57 -10 30 -10 30 -10 -10 1 -72 -4
-80 -34 -51 -12 12 -14 4 -13 -65 0 -74 2 -79 22 -79 12 0 28 -7 35 -17 17
-20 115 -93 149 -111 21 -11 26 -11 36 2 6 9 22 16 35 16 17 0 20 -3 12 -11
-7 -7 -8 -20 -4 -33 5 -11 11 -51 15 -87 8 -76 -1 -91 -55 -85 -34 3 -34 4
-35 57 -1 34 -6 53 -13 52 -14 -4 -14 10 0 24 6 6 7 13 2 16 -5 3 -16 -8 -25
-24 -16 -28 -16 -29 2 -29 17 0 19 -5 13 -32 -3 -18 -10 -36 -16 -39 -13 -9
-156 -21 -167 -14 -5 3 -9 22 -8 43 1 77 -2 122 -9 122 -5 0 -8 -42 -8 -92 l0
-93 -30 -6 -30 -7 28 -1 c33 -1 36 -18 5 -24 l-23 -4 23 -2 c34 -2 27 -29 -10
-36 -46 -8 -90 7 -99 33 -5 13 -4 22 1 22 6 0 10 5 10 10 0 6 -6 10 -13 10
-21 0 -56 43 -63 78 -6 28 -4 32 14 32 11 0 30 12 42 27 23 29 19 35 -31 47
-22 5 -28 2 -33 -18 -11 -44 -61 -40 -53 4 1 8 -8 23 -20 33 -28 22 -29 34 -5
40 11 3 8 5 -9 6 -14 0 -30 6 -37 13 -7 7 -12 9 -12 5 0 -12 59 -120 75 -137
8 -9 15 -27 15 -39 0 -12 5 -32 12 -44 12 -22 13 -373 1 -403 -5 -13 -46 -25
-98 -28 -14 0 -25 -5 -25 -10 0 -8 41 -4 103 10 35 8 29 -14 -11 -39 -15 -9
-22 -17 -15 -17 6 0 15 5 18 10 9 15 22 12 29 -5 12 -33 -13 -53 -87 -69 -19
-5 -29 -2 -33 9 -4 8 -17 15 -30 15 -21 0 -24 4 -21 27 2 15 12 30 23 34 17 7
17 8 2 8 -24 1 -24 38 0 44 12 3 10 5 -7 6 -22 1 -23 4 -17 40 7 43 -5 82 -55
188 -54 114 -62 140 -46 147 7 2 4 5 -5 5 -23 1 -24 52 -3 85 18 28 10 145 -8
127 -18 -18 -27 -13 -27 14 0 24 -3 25 -52 24 -29 0 -98 -6 -153 -12 l-100
-12 -3 -647 -2 -648 2000 0 2000 0 0 660 0 660 -77 0 c-43 0 -225 3 -405 7
-364 7 -339 12 -314 -62 8 -22 12 -43 10 -46 -4 -7 -70 -17 -174 -26 -96 -8
-101 -8 -127 1 -14 4 -23 3 -23 -3 0 -6 12 -14 26 -17 28 -7 184 2 252 15 23
5 44 5 46 2 3 -4 7 -31 11 -62 l6 -55 -48 -12 c-53 -13 -236 -18 -270 -7 -26
9 -39 45 -15 45 15 1 15 2 0 11 -10 5 -18 14 -18 19 0 5 8 11 18 13 9 3 -7 5
-37 6 l-53 1 7 -67 c6 -61 5 -68 -15 -83 -19 -15 -23 -31 -32 -136 -13 -152
-13 -141 6 -264 21 -138 21 -167 -1 -173 -17 -4 -17 -5 0 -6 14 -1 17 -11 17
-71 0 -70 0 -70 -25 -64 -14 3 -46 3 -71 -1 l-46 -7 6 -46 c3 -26 2 -52 -2
-57 -13 -19 -82 -34 -108 -25 -28 11 -32 40 -6 41 42 2 63 6 72 15 5 5 -9 8
-37 5 -31 -2 -48 1 -54 10 -15 24 -10 39 14 40 12 0 31 5 42 10 15 7 8 8 -27
6 l-46 -2 -16 55 c-25 87 -56 254 -56 303 0 24 -11 87 -24 138 -13 52 -27 113
-31 137 -8 47 1 44 -130 43 -91 -2 -98 4 -94 68 2 28 1 51 -3 51 -5 0 -8 14
-8 30 0 26 -4 30 -27 32 -16 0 -35 1 -43 2 -11 1 -17 28 -27 116 -7 63 -14
125 -16 138 -6 31 3 20 34 -41 27 -55 61 -74 73 -40 4 10 2 19 -4 21 -18 6
-46 75 -49 118 -2 34 2 44 23 58 17 11 26 12 26 5 0 -7 3 -10 6 -7 3 4 0 31
-7 60 l-13 55 -20 -21 c-12 -12 -18 -17 -13 -12 14 19 7 45 -15 57 -23 12 -23
12 -4 -9 l19 -22 -69 -31 c-38 -17 -79 -35 -90 -41 -12 -6 -56 -10 -98 -11
-73 0 -76 -1 -76 -24 0 -22 -4 -23 -59 -23 -33 0 -63 -5 -67 -11 -4 -7 10 -9
50 -4 38 5 56 4 57 -4 4 -32 6 -36 17 -33 7 1 12 -4 12 -10 0 -7 2 -62 4 -123
l3 -110 -43 -2 c-42 -2 -43 -1 -60 43 -9 24 -22 44 -29 44 -14 0 -25 -31 -25
-71 0 -33 -8 -41 -30 -29 -11 6 -16 20 -15 40 1 16 -1 30 -5 30 -4 0 -7 6 -8
13 0 6 -3 21 -6 32 -2 11 -5 32 -5 48 l-1 27 -77 0 c-42 0 -74 3 -70 6 3 3 37
6 76 5 64 -1 70 1 66 18 -7 38 6 63 31 58 18 -3 24 0 24 14 0 11 -6 19 -13 19
-24 0 -59 59 -55 91 4 23 1 29 -9 24 -8 -3 -19 -5 -24 -5 -5 0 -9 -13 -9 -30
0 -28 -29 -57 -43 -43 -3 3 -35 2 -71 -1 l-64 -7 -41 -62 c-60 -90 -73 -108
-79 -103 -2 3 16 37 42 75 25 39 46 74 46 79 0 5 -20 8 -45 6 -50 -5 -50 -4
-59 63 -6 39 -4 43 29 63 26 16 39 19 49 11 9 -7 16 -7 23 0 8 8 13 8 17 0 4
-6 26 -10 49 -10 23 1 34 3 25 6 -20 5 -24 23 -6 23 7 0 2 7 -10 16 -12 8 -27
12 -32 9 -6 -3 -10 3 -10 14 0 12 5 21 11 21 5 0 7 4 4 10 -4 6 1 7 11 3 12
-4 15 -3 10 5 -4 7 -2 12 3 12 6 0 11 -7 11 -15 0 -8 9 -15 20 -15 11 0 20 5
20 11 0 6 9 9 20 6 19 -5 30 6 42 38 1 6 6 9 10 8 3 -1 67 89 142 200 248 370
261 387 287 387 10 0 23 -8 28 -17 6 -10 11 -13 11 -6 0 6 -4 15 -10 18 -6 4
-5 11 3 19 6 8 16 11 21 8 5 -3 7 2 3 11 -3 9 -2 19 3 22 16 10 -2 37 -21 32
-16 -4 -18 -1 -13 19 8 33 -19 32 -34 -1 -6 -14 -18 -25 -27 -25 -8 0 -15 -8
-15 -17 -1 -27 -88 -121 -98 -106 -8 13 -85 6 -77 -7 2 -3 18 -5 35 -2 16 2
30 2 30 -1 0 -4 -20 -27 -46 -53 -33 -34 -54 -48 -77 -49 -32 -3 -33 -1 -46
48 -7 29 -15 79 -18 112 -6 68 -27 111 -57 119 -32 9 -1124 7 -1129 -1z m804
-19 c52 -27 79 -56 79 -86 0 -15 -5 -28 -10 -28 -6 0 -35 24 -65 53 -72 70
-74 98 -4 61z m319 -222 c0 -13 -4 -20 -10 -17 -5 3 -10 15 -10 26 0 10 -4 19
-10 19 -5 0 -10 5 -10 10 0 6 8 5 20 -2 11 -7 20 -23 20 -36z m-808 -4 c-9 -9
-12 -7 -12 12 0 19 3 21 12 12 9 -9 9 -15 0 -24z m278 -68 c0 -12 -8 -12 -35
0 -18 8 -17 9 8 9 15 1 27 -3 27 -9z m-397 -58 c3 -24 1 -40 -4 -36 -5 3 -9
24 -9 46 0 51 5 47 13 -10z m369 17 c2 -14 15 -25 38 -33 19 -6 36 -19 38 -28
3 -15 -4 -18 -46 -18 l-50 0 -11 44 c-14 57 -14 56 8 56 12 0 21 -8 23 -21z
m-734 -89 c39 0 42 -2 28 -15 -17 -17 -30 -20 -21 -5 4 6 -8 10 -29 10 -41 0
-42 -2 -20 -24 9 -10 11 -16 4 -16 -8 0 -10 -21 -5 -77 5 -54 4 -75 -3 -68 -9
9 -19 55 -25 120 -2 15 -12 21 -42 26 l-40 6 38 2 c26 1 37 6 37 16 0 8 -8 15
-17 15 -16 0 -16 2 -3 10 8 6 24 8 35 5 11 -2 39 -5 63 -5z m-125 -7 c-7 -2
-21 -2 -30 0 -10 3 -5 5 12 5 17 0 24 -2 18 -5z m157 -40 c0 -5 -11 -8 -25 -8
-14 0 -25 3 -25 8 0 4 11 7 25 7 14 0 25 -3 25 -7z m-76 -234 c-8 -14 -24 -10
-24 6 0 9 6 12 15 9 8 -4 12 -10 9 -15z m926 11 c0 -5 -10 -10 -22 -10 -19 0
-20 2 -8 10 19 13 30 13 30 0z m340 -10 c0 -5 -4 -10 -9 -10 -6 0 -13 5 -16
10 -3 6 1 10 9 10 9 0 16 -4 16 -10z m-260 -10 c0 -5 -6 -10 -12 -10 -9 0 -8
-4 2 -10 13 -8 12 -10 -2 -10 -11 0 -18 8 -18 20 0 11 7 20 15 20 8 0 15 -4
15 -10z m187 4 c-3 -3 -12 -4 -19 -1 -8 3 -5 6 6 6 11 1 17 -2 13 -5z m-295
-36 c-11 -11 -32 -3 -32 12 0 4 9 6 21 3 13 -4 17 -9 11 -15z m33 12 c3 -5 1
-10 -4 -10 -6 0 -11 5 -11 10 0 6 2 10 4 10 3 0 8 -4 11 -10z m171 -12 c25
-24 32 -64 12 -65 -7 0 -25 -4 -39 -8 -32 -8 -43 6 -35 41 5 20 11 24 27 19
18 -6 19 -5 10 14 -15 27 -5 27 25 -1z m-1166 -38 c0 -5 -4 -10 -10 -10 -5 0
-10 5 -10 10 0 6 5 10 10 10 6 0 10 -4 10 -10z m830 -10 c0 -5 -2 -10 -4 -10
-3 0 -8 5 -11 10 -3 6 -1 10 4 10 6 0 11 -4 11 -10z m-30 -10 c0 -5 -5 -10
-11 -10 -5 0 -7 5 -4 10 3 6 8 10 11 10 2 0 4 -4 4 -10z m-793 -16 c-3 -3 -12
-4 -19 -1 -8 3 -5 6 6 6 11 1 17 -2 13 -5z m26 -69 c-4 -15 -36 -12 -41 3 -3
9 3 13 19 10 13 -1 23 -7 22 -13z m1964 -31 c-3 -3 -12 -4 -19 -1 -8 3 -5 6 6
6 11 1 17 -2 13 -5z m-27 -28 c0 -3 -4 -8 -10 -11 -5 -3 -10 -1 -10 4 0 6 5
11 10 11 6 0 10 -2 10 -4z m-907 -107 c-36 -23 -39 -35 -21 -74 16 -35 5 -41
-39 -19 -21 10 -44 17 -52 15 -7 -1 -10 2 -6 9 4 6 -3 22 -16 36 l-22 24 39 2
c21 1 50 2 64 3 14 1 34 7 45 13 35 20 41 12 8 -9z m837 11 c0 -5 -2 -10 -4
-10 -3 0 -8 5 -11 10 -3 6 -1 10 4 10 6 0 11 -4 11 -10z m-50 -31 l38 -11 -22
-25 c-34 -40 -55 -47 -77 -27 -15 13 -22 14 -33 5 -8 -7 -19 -10 -24 -7 -16 9
-21 45 -8 54 17 14 46 11 46 -5 0 -7 7 -13 16 -13 8 0 12 5 9 10 -6 10 2 30
12 30 3 0 23 -5 43 -11z m-770 -99 c0 -5 -2 -10 -4 -10 -3 0 -8 5 -11 10 -3 6
-1 10 4 10 6 0 11 -4 11 -10z m220 0 c0 -5 -10 -10 -22 -10 -19 0 -20 2 -8 10
19 13 30 13 30 0z m60 -6 c0 -2 -12 -4 -26 -4 -14 0 -23 4 -20 9 6 8 46 4 46
-5z m2103 -181 c-7 -2 -21 -2 -30 0 -10 3 -4 5 12 5 17 0 24 -2 18 -5z m100 0
c-7 -2 -21 -2 -30 0 -10 3 -4 5 12 5 17 0 24 -2 18 -5z m-601 -188 c6 -28 -6
-34 -16 -9 -8 22 -7 34 3 34 5 0 11 -11 13 -25z m-1079 -32 c-7 -2 -19 -2 -25
0 -7 3 -2 5 12 5 14 0 19 -2 13 -5z m0 -30 c-7 -2 -19 -2 -25 0 -7 3 -2 5 12
5 14 0 19 -2 13 -5z m1097 -45 c0 -10 -7 -18 -15 -18 -16 0 -19 17 -9 45 5 13
8 14 15 3 5 -7 9 -21 9 -30z m100 20 c0 -6 -7 -7 -16 -4 -9 3 -23 6 -32 6 -14
0 -14 2 -3 9 16 10 51 3 51 -11z m-1122 -50 c-5 -15 -78 -40 -98 -33 -24 10
14 33 44 28 13 -3 27 0 30 6 9 15 29 14 24 -1z m345 -155 c-7 -2 -19 -2 -25 0
-7 3 -2 5 12 5 14 0 19 -2 13 -5z m392 -384 c4 -6 5 -12 2 -15 -7 -7 -37 7
-37 17 0 13 27 11 35 -2z m-115 -135 c0 -15 -9 -17 -34 -8 -15 6 -15 8 1 19
20 15 33 11 33 -11z"/>
<path d="M2867 2493 c-4 -3 -7 -14 -7 -24 0 -15 4 -16 30 -6 17 6 30 15 30 20
0 5 9 5 20 2 11 -4 20 -2 20 4 0 12 -82 15 -93 4z"/>
<path d="M3158 2475 c2 -14 -1 -32 -8 -40 -10 -12 -10 -21 0 -45 14 -33 34
-39 44 -14 9 24 7 54 -4 54 -5 0 -10 16 -10 35 0 23 -5 35 -14 35 -9 0 -12 -8
-8 -25z"/>
<path d="M0 2480 c0 -5 11 -10 25 -10 14 0 25 5 25 10 0 6 -11 10 -25 10 -14
0 -25 -4 -25 -10z"/>
<path d="M35 2451 c-3 -5 -1 -12 5 -16 5 -3 10 1 10 9 0 18 -6 21 -15 7z"/>
<path d="M3876 2452 c-2 -4 -1 -14 5 -22 7 -12 9 -10 9 8 0 23 -5 28 -14 14z"/>
<path d="M250 2425 c0 -8 7 -15 16 -15 8 0 13 4 10 9 -4 5 0 12 6 14 7 3 3 6
-9 6 -14 1 -23 -5 -23 -14z"/>
<path d="M1660 2420 c-13 -9 -13 -10 0 -9 8 0 24 4 35 9 l20 9 -20 0 c-11 0
-27 -4 -35 -9z"/>
<path d="M2761 2384 c0 -11 3 -14 6 -6 3 7 2 16 -1 19 -3 4 -6 -2 -5 -13z"/>
<path d="M2888 2379 c-16 -11 -28 -27 -28 -35 0 -16 16 -19 25 -3 4 6 14 8 22
5 20 -8 49 9 56 34 4 16 0 20 -21 20 -15 0 -39 -10 -54 -21z"/>
<path d="M38 2343 c6 -2 18 -2 25 0 6 3 1 5 -13 5 -14 0 -19 -2 -12 -5z"/>
<path d="M90 2340 c8 -5 20 -10 25 -10 6 0 3 5 -5 10 -8 5 -19 10 -25 10 -5 0
-3 -5 5 -10z"/>
<path d="M2761 2334 c0 -11 3 -14 6 -6 3 7 2 16 -1 19 -3 4 -6 -2 -5 -13z"/>
<path d="M173 2333 c9 -2 25 -2 35 0 9 3 1 5 -18 5 -19 0 -27 -2 -17 -5z"/>
<path d="M50 2320 c0 -5 5 -10 10 -10 6 0 10 5 10 10 0 6 -4 10 -10 10 -5 0
-10 -4 -10 -10z"/>
<path d="M275 2320 c-3 -5 -1 -10 4 -10 6 0 11 5 11 10 0 6 -2 10 -4 10 -3 0
-8 -4 -11 -10z"/>
<path d="M318 2320 c12 -5 25 -16 28 -24 5 -12 8 -12 25 2 18 16 18 17 2 24
-10 3 -31 7 -48 7 -28 0 -28 -1 -7 -9z"/>
<path d="M400 2310 c0 -6 10 -8 24 -4 18 4 27 1 36 -15 14 -26 45 -28 47 -2 1
12 -7 21 -20 25 -35 9 -87 7 -87 -4z"/>
<path d="M1588 2312 c-17 -7 -17 -8 1 -19 16 -10 22 -8 37 8 16 18 16 19 -2
18 -10 0 -27 -4 -36 -7z"/>
<path d="M2450 2313 c0 -4 5 -15 10 -23 7 -11 12 -12 21 -3 8 8 6 14 -10 22
-12 7 -21 8 -21 4z"/>
<path d="M545 2302 c6 -4 10 -14 10 -22 0 -8 8 -16 18 -18 11 -2 17 3 17 17 0
12 8 21 23 24 12 2 0 5 -28 5 -27 1 -45 -2 -40 -6z"/>
<path d="M1871 2260 c-8 -30 -36 -127 -62 -215 -27 -88 -49 -166 -49 -172 0
-9 9 -8 35 4 32 15 38 15 95 -2 60 -18 68 -29 52 -65 -8 -16 -21 -19 -127 -22
-79 -3 -95 -13 -92 -54 2 -23 7 -29 27 -30 14 0 36 -6 48 -13 37 -20 117 -5
136 25 9 13 16 31 17 41 0 10 5 3 10 -14 5 -18 16 -33 24 -33 8 0 15 -4 15
-10 0 -5 5 -10 10 -10 6 0 10 9 10 20 0 11 16 36 36 57 34 35 35 38 18 50 -14
10 -16 16 -6 22 9 6 9 16 -2 52 -8 24 -31 97 -51 162 -20 64 -41 117 -46 117
-7 0 -8 -27 -3 -77 11 -130 11 -128 -11 -125 -11 2 -21 5 -23 7 -4 3 -27 171
-41 285 l-6 55 -14 -55z m179 -424 c0 -9 -30 -14 -35 -6 -4 6 3 10 14 10 12 0
21 -2 21 -4z m10 -46 c-9 -6 -17 -5 -21 2 -4 6 -12 7 -18 4 -6 -4 -11 -3 -11
3 0 13 42 19 55 9 6 -6 5 -12 -5 -18z"/>
<path d="M2768 2263 c-2 -27 -1 -59 3 -73 5 -16 8 0 8 48 1 82 -5 95 -11 25z"/>
<path d="M1810 2222 c-60 -114 -184 -289 -353 -501 -37 -46 -66 -86 -63 -88 2
-3 25 -1 49 2 39 6 47 11 56 38 8 22 8 34 0 44 -7 7 -8 17 -4 21 4 4 10 1 12
-5 3 -7 11 -13 19 -13 8 0 14 -5 14 -10 0 -6 6 -9 13 -8 7 2 13 -10 14 -32 l2
-35 -12 28 c-6 15 -14 27 -18 27 -5 0 -1 -15 7 -32 8 -18 17 -41 21 -50 3 -10
12 -18 19 -18 16 0 19 -36 4 -45 -15 -9 0 -35 21 -35 22 0 27 36 7 43 -10 3
-9 12 4 38 9 19 20 54 23 78 5 31 13 45 26 48 21 6 26 42 7 61 -16 16 -2 28
15 14 11 -10 27 33 85 240 40 138 71 252 70 254 -2 1 -19 -27 -38 -64z m-180
-424 c11 -18 16 -34 10 -36 -5 -2 -7 -18 -5 -35 4 -29 4 -29 -8 6 -7 21 -16
38 -20 38 -22 -2 -28 0 -22 9 3 5 12 7 20 3 8 -3 15 0 15 6 0 6 -13 11 -30 11
-29 0 -38 9 -23 23 16 16 45 4 63 -25z m-65 -28 c3 -5 1 -10 -4 -10 -6 0 -11
5 -11 10 0 6 2 10 4 10 3 0 8 -4 11 -10z m58 -83 c9 8 9 -6 1 -46 -7 -31 -28
-42 -37 -18 -4 10 -3 36 2 71 0 5 7 3 14 -3 8 -6 17 -8 20 -4z"/>
<path d="M2897 2259 c-9 -5 -21 -8 -26 -5 -5 4 -7 -3 -4 -15 4 -16 11 -19 29
-15 16 4 24 2 24 -6 0 -7 5 -5 11 5 8 14 14 16 25 6 11 -9 14 -7 14 15 0 22
-4 26 -27 26 -16 0 -36 -5 -46 -11z"/>
<path d="M1763 2187 c-22 -34 -59 -90 -82 -125 -23 -35 -62 -92 -87 -128 -25
-35 -43 -64 -40 -64 16 0 264 365 254 375 -2 2 -22 -24 -45 -58z"/>
<path d="M2981 2203 c-11 -23 -10 -24 21 -21 41 4 51 33 14 40 -18 4 -27 -1
-35 -19z m49 -3 c0 -5 -2 -10 -4 -10 -3 0 -8 5 -11 10 -3 6 -1 10 4 10 6 0 11
-4 11 -10z"/>
<path d="M9 2211 c7 -5 22 -6 32 -4 10 3 19 0 19 -6 0 -6 7 -11 15 -11 9 0 12
6 9 15 -4 10 -20 15 -48 15 -27 0 -36 -3 -27 -9z"/>
<path d="M3720 2200 c0 -5 5 -10 10 -10 6 0 10 5 10 10 0 6 -4 10 -10 10 -5 0
-10 -4 -10 -10z"/>
<path d="M2035 2190 c-3 -5 -2 -10 4 -10 5 0 13 5 16 10 3 6 2 10 -4 10 -5 0
-13 -4 -16 -10z"/>
<path d="M3892 2180 c0 -14 2 -19 5 -12 2 6 2 18 0 25 -3 6 -5 1 -5 -13z"/>
<path d="M2848 2179 c-22 -12 -21 -69 2 -91 16 -15 18 -15 34 4 17 20 43 20
39 0 -2 -6 3 -9 10 -6 8 3 13 -3 13 -16 0 -22 -12 -27 -19 -7 -4 9 -8 8 -16
-3 -13 -19 -2 -30 36 -34 21 -3 37 2 48 14 15 16 14 18 -15 24 -17 3 -29 10
-25 15 3 5 -2 14 -11 19 -9 5 -15 12 -15 15 4 30 -1 38 -21 35 -15 -2 -26 4
-33 19 -8 16 -15 19 -27 12z"/>
<path d="M2003 2155 c3 -11 27 -87 52 -170 26 -82 49 -156 51 -164 3 -10 8
-11 15 -4 8 8 19 6 40 -6 33 -19 40 -54 9 -49 -10 2 -19 0 -20 -4 -1 -23 2
-26 20 -21 30 8 26 -25 -5 -37 -30 -11 -33 -40 -5 -40 23 0 25 -10 8 -30 -7
-8 -4 -7 8 3 25 21 38 22 30 2 -3 -8 -1 -15 4 -15 5 0 13 12 16 28 4 15 12 34
18 42 6 8 19 30 29 48 l18 32 -45 65 c-26 35 -52 67 -59 71 -8 5 -8 3 1 -9 8
-9 12 -22 10 -28 -2 -7 -30 32 -62 87 -75 126 -140 225 -133 199z"/>
<path d="M2504 2146 c-17 -8 -43 -25 -57 -40 -27 -27 -32 -55 -24 -158 2 -27
0 -48 -5 -48 -4 0 -8 4 -8 9 0 5 -9 7 -20 4 -16 -4 -18 -8 -9 -19 6 -7 14 -13
17 -12 29 3 52 -4 52 -18 0 -13 11 -14 83 -8 45 4 88 7 95 7 6 0 12 4 12 9 0
4 7 8 15 8 8 0 15 -6 15 -14 0 -10 7 -12 22 -8 21 5 21 6 2 18 -59 40 -58 36
-40 87 26 78 1 148 -66 183 -33 17 -44 17 -84 0z"/>
<path d="M3170 2150 c0 -5 5 -10 11 -10 5 0 7 5 4 10 -3 6 -8 10 -11 10 -2 0
-4 -4 -4 -10z"/>
<path d="M3068 2143 c7 -3 16 -2 19 1 4 3 -2 6 -13 5 -11 0 -14 -3 -6 -6z"/>
<path d="M2117 2111 l-27 -6 62 -86 c35 -47 83 -118 108 -158 24 -39 48 -71
53 -71 4 0 19 7 32 16 20 13 23 19 14 36 -6 11 -8 22 -6 25 3 2 8 -5 12 -16 8
-25 23 -26 50 -5 17 13 18 15 2 12 -11 -2 -49 31 -111 95 -68 71 -100 97 -118
97 -13 0 -32 6 -42 13 -17 12 -17 15 -2 29 9 9 16 19 16 22 0 7 -3 6 -43 -3z
m140 -134 c21 -15 4 -28 -20 -14 -12 6 -24 13 -26 14 -1 1 0 7 4 12 6 11 17 8
42 -12z"/>
<path d="M3167 2114 c-11 -11 -8 -44 4 -44 7 0 9 -10 5 -26 -6 -24 -5 -26 19
-22 16 4 24 1 22 -6 -2 -6 -18 -11 -36 -10 -19 0 -29 -4 -26 -10 3 -6 8 -18
11 -27 6 -17 109 -57 120 -47 3 4 -4 16 -15 27 -12 12 -21 26 -21 32 0 6 -7 9
-15 5 -18 -6 -20 5 -4 21 8 8 20 7 45 -3 47 -20 66 -17 25 4 -39 19 -52 42
-24 42 15 0 15 2 3 9 -8 6 -18 7 -22 5 -4 -3 -8 0 -8 5 0 6 -9 11 -20 11 -12
0 -20 7 -20 16 0 10 -6 14 -14 11 -8 -3 -16 -1 -18 4 -2 6 -7 7 -11 3z"/>
<path d="M3574 2010 c-39 -39 -67 -73 -63 -76 5 -3 9 -16 9 -29 0 -14 8 -29
20 -35 10 -6 17 -16 14 -24 -3 -8 4 -16 18 -19 13 -3 77 -21 143 -41 66 -20
125 -36 131 -36 15 0 25 85 15 130 -5 26 -13 36 -29 38 -12 2 -22 9 -22 16 0
24 -56 80 -74 73 -18 -7 -11 -37 9 -37 16 0 45 -27 45 -41 0 -5 -11 -9 -25 -9
-15 0 -28 -7 -32 -17 -3 -10 -11 -24 -16 -31 -16 -20 -59 73 -58 126 1 89 -7
90 -85 12z m60 -46 c9 -23 8 -24 -14 -24 -11 0 -20 2 -20 4 0 12 13 36 20 36
4 0 11 -7 14 -16z m-29 -84 c-3 -5 -10 -10 -16 -10 -5 0 -9 5 -9 10 0 6 7 10
16 10 8 0 12 -4 9 -10z"/>
<path d="M2264 2062 c3 -6 0 -12 -6 -15 -7 -2 -10 -7 -7 -11 9 -10 40 5 36 17
-2 6 -9 13 -17 15 -7 3 -10 0 -6 -6z"/>
<path d="M2300 2004 c0 -8 5 -12 10 -9 6 4 8 11 5 16 -9 14 -15 11 -15 -7z"/>
<path d="M3054 1992 c3 -3 19 -6 36 -7 17 -1 28 1 24 4 -3 3 -19 6 -35 7 -17
1 -28 -1 -25 -4z"/>
<path d="M2323 1958 c16 -25 38 -30 45 -10 2 7 -5 12 -17 12 -12 0 -21 5 -21
10 0 6 -5 10 -11 10 -7 0 -6 -8 4 -22z"/>
<path d="M3325 1970 c-8 -13 3 -30 18 -30 7 0 6 4 -3 10 -9 6 -10 10 -3 10 6
0 15 -5 18 -10 4 -6 11 -8 16 -4 6 4 6 11 -2 20 -13 16 -35 18 -44 4z"/>
<path d="M3986 1953 c5 -26 3 -32 -15 -38 -12 -3 -21 -15 -21 -25 0 -32 -11
-50 -31 -50 -19 0 -21 -6 -23 -80 0 -21 7 -27 49 -41 l50 -16 3 130 c2 82 -1
134 -8 141 -7 7 -8 1 -4 -21z"/>
<path d="M3040 1940 c-6 -11 -21 -20 -34 -20 -23 0 -66 -37 -66 -57 0 -6 -9
-9 -20 -6 -13 3 -19 13 -17 27 1 15 -4 22 -20 24 -16 2 -23 -2 -23 -12 0 -19
-13 -20 -41 -6 -11 7 -19 7 -19 1 0 -5 6 -12 13 -15 6 -2 -1 -4 -18 -3 -34 2
-47 -16 -15 -21 11 -2 24 -11 30 -21 5 -10 41 -37 79 -60 58 -35 75 -41 105
-37 20 3 52 8 71 11 27 5 35 2 35 -10 0 -8 4 -15 9 -15 11 0 26 -39 23 -56 -1
-7 6 -14 17 -17 18 -4 18 -3 4 31 -8 19 -21 42 -29 50 -22 21 -14 56 14 60 16
2 22 10 22 27 0 18 4 23 16 18 12 -4 12 -8 4 -13 -9 -5 -6 -10 9 -15 11 -3 24
-18 28 -33 3 -15 17 -44 30 -64 12 -21 23 -47 23 -58 0 -21 -49 -99 -63 -100
-4 0 -16 18 -26 40 l-18 41 -7 -38 c-9 -55 -8 -63 9 -63 8 0 15 5 15 11 0 5 4
8 9 5 10 -6 26 -73 22 -93 -1 -7 7 -14 19 -14 11 -1 26 -2 33 -3 6 -1 18 -9
25 -19 7 -9 17 -15 21 -12 5 2 24 -8 42 -25 21 -18 36 -25 40 -18 4 6 21 9 41
5 19 -3 53 -2 76 3 34 6 40 5 32 -5 -17 -20 39 -25 263 -23 l197 1 0 148 c0
102 -4 149 -11 151 -9 3 -9 10 0 26 13 24 5 30 -61 46 -25 6 -28 4 -28 -19 0
-35 -26 -32 -33 3 -5 26 -14 31 -80 51 -40 12 -81 19 -90 15 -10 -3 -17 -2
-17 3 0 10 -43 25 -107 38 -26 5 -33 3 -33 -9 0 -10 -9 -16 -25 -16 -20 0 -25
5 -25 25 0 21 -8 26 -50 39 -28 8 -57 13 -65 9 -9 -3 -23 1 -32 8 -9 8 -14 9
-10 3 8 -14 -38 -28 -56 -17 -7 4 -16 8 -22 8 -5 0 -9 10 -7 22 3 24 -1 27
-40 37 -21 5 -28 3 -28 -8 0 -8 -6 -17 -12 -19 -8 -3 -6 -6 5 -6 9 -1 17 -5
17 -9 0 -5 -10 -8 -22 -7 -13 1 -23 7 -23 14 0 7 -8 19 -19 26 -10 8 -15 19
-10 26 4 7 3 10 -3 6 -6 -4 -13 0 -17 8 -8 22 -43 18 -56 -5z m55 -60 c3 -5 1
-10 -4 -10 -6 0 -11 5 -11 10 0 6 2 10 4 10 3 0 8 -4 11 -10z m129 -6 c3 -8 2
-12 -4 -9 -6 3 -10 10 -10 16 0 14 7 11 14 -7z m-117 -46 c-3 -7 -5 -2 -5 12
0 14 2 19 5 13 2 -7 2 -19 0 -25z m-170 -20 c-3 -7 -5 -2 -5 12 0 14 2 19 5
13 2 -7 2 -19 0 -25z m346 -4 c9 -9 -4 -35 -14 -28 -5 3 -9 12 -9 20 0 14 12
19 23 8z m266 -77 c1 -5 -3 -5 -9 -2 -5 3 -10 16 -9 28 0 21 1 21 9 2 5 -11 9
-24 9 -28z m-246 19 c3 -8 -2 -16 -14 -19 -11 -3 -19 0 -19 7 0 26 24 35 33
12z m312 -77 c4 -17 4 -33 1 -36 -3 -4 -6 -1 -6 5 0 7 -6 12 -14 12 -19 0 -30
32 -14 42 21 13 26 10 33 -23z m35 -19 c0 -5 -5 -10 -11 -10 -5 0 -7 5 -4 10
3 6 8 10 11 10 2 0 4 -4 4 -10z m-194 -95 c-1 -35 -10 -46 -19 -22 -4 11 8 57
16 57 2 0 3 -16 3 -35z m26 -57 c-7 -7 -16 -6 -29 1 -17 11 -17 11 2 9 15 -2
19 2 17 17 -2 19 -2 19 9 2 7 -13 8 -22 1 -29z m103 4 c-6 -7 -35 18 -35 31 0
5 9 2 20 -8 11 -10 18 -20 15 -23z m-69 -20 c-4 -11 -13 -22 -20 -25 -11 -4
-11 1 1 24 16 33 29 33 19 1z m151 -4 c-3 -7 -5 -2 -5 12 0 14 2 19 5 13 2 -7
2 -19 0 -25z m-349 -4 c14 -15 14 -16 -3 -13 -10 2 -20 10 -23 17 -5 17 6 15
26 -4z m102 -9 c0 -8 -4 -15 -10 -15 -5 0 -7 7 -4 15 4 8 8 15 10 15 2 0 4 -7
4 -15z m406 -12 c-10 -10 -19 5 -10 18 6 11 8 11 12 0 2 -7 1 -15 -2 -18z
m-446 2 c-14 -17 -30 -20 -30 -4 0 5 4 8 9 4 5 -3 12 -1 16 5 3 5 9 10 12 10
3 0 0 -7 -7 -15z m-113 -1 c-3 -3 -12 -4 -19 -1 -8 3 -5 6 6 6 11 1 17 -2 13
-5z m550 -49 c0 -12 -14 -15 -71 -14 l-71 1 65 13 c36 7 68 13 71 14 3 0 6 -6
6 -14z"/>
<path d="M3725 1950 c3 -5 8 -10 11 -10 2 0 4 5 4 10 0 6 -5 10 -11 10 -5 0
-7 -4 -4 -10z"/>
<path d="M3390 1942 c0 -1 11 -7 25 -12 27 -10 34 -40 10 -40 -8 0 -15 8 -15
18 0 13 -2 14 -9 3 -7 -11 -13 -11 -32 3 -30 21 -57 22 -40 2 18 -21 164 -69
158 -52 -3 8 0 19 6 25 8 8 5 11 -10 11 -14 0 -23 7 -25 22 -2 16 -10 21 -36
22 -17 1 -32 0 -32 -2z"/>
<path d="M2685 1930 c-3 -5 -2 -10 4 -10 6 0 8 -6 5 -14 -4 -11 0 -13 15 -9
27 7 28 43 2 43 -11 0 -23 -4 -26 -10z"/>
<path d="M2777 1772 c8 -20 21 -46 29 -56 12 -17 17 -18 38 -7 13 7 38 14 55
15 37 1 28 12 -43 51 -39 22 -50 24 -57 14 -5 -9 -9 -10 -9 -3 0 7 -6 14 -14
17 -12 5 -11 0 1 -31z"/>
<path d="M653 1758 c-21 -28 -22 -60 -1 -88 12 -17 17 -33 13 -41 -6 -9 -3
-11 8 -6 9 3 17 2 19 -3 2 -5 13 -7 24 -4 17 5 22 13 21 40 -1 19 -6 34 -11
34 -6 0 -4 5 4 10 12 8 13 11 1 19 -11 7 -11 9 0 13 12 4 12 7 0 21 -16 20
-64 22 -78 5z"/>
<path d="M2847 1656 c10 -13 23 -22 28 -20 6 3 19 -3 30 -12 15 -12 16 -14 4
-11 -13 4 -15 1 -11 -15 3 -14 1 -19 -6 -15 -6 4 -9 0 -8 -10 3 -22 26 -30 26
-9 0 9 5 15 12 14 6 -2 14 11 18 29 7 31 6 31 -36 38 -23 3 -45 12 -48 20 -3
8 -10 15 -16 15 -6 0 -3 -11 7 -24z"/>
<path d="M1739 1656 c12 -14 12 -19 2 -25 -10 -6 -9 -10 4 -14 9 -4 13 -3 10
3 -3 6 -1 10 4 10 18 0 12 14 -11 29 -21 13 -22 13 -9 -3z"/>
<path d="M3180 1641 c0 -17 5 -31 10 -31 6 0 10 11 10 24 0 14 -4 28 -10 31
-6 4 -10 -7 -10 -24z"/>
<path d="M1970 1650 c-9 -6 -10 -10 -3 -10 6 0 15 5 18 10 8 12 4 12 -15 0z"/>
<path d="M1985 1630 c-3 -6 1 -7 9 -4 18 7 21 14 7 14 -6 0 -13 -4 -16 -10z"/>
<path d="M1800 1620 c20 -13 33 -13 25 0 -3 6 -14 10 -23 10 -15 0 -15 -2 -2
-10z"/>
<path d="M2000 1610 c-9 -6 -10 -10 -3 -10 6 0 15 5 18 10 8 12 4 12 -15 0z"/>
<path d="M2300 1610 c0 -5 5 -10 10 -10 6 0 15 -10 20 -22 5 -13 9 -16 9 -8 0
16 -22 50 -33 50 -3 0 -6 -4 -6 -10z"/>
<path d="M1050 1602 c0 -5 7 -15 15 -22 8 -7 15 -8 15 -2 0 5 -7 15 -15 22 -8
7 -15 8 -15 2z"/>
<path d="M1737 1599 c7 -7 15 -10 18 -7 3 3 -2 9 -12 12 -14 6 -15 5 -6 -5z"/>
<path d="M1853 1603 c9 -2 25 -2 35 0 9 3 1 5 -18 5 -19 0 -27 -2 -17 -5z"/>
<path d="M1898 1583 c7 -3 16 -2 19 1 4 3 -2 6 -13 5 -11 0 -14 -3 -6 -6z"/>
<path d="M1898 1563 c7 -3 16 -2 19 1 4 3 -2 6 -13 5 -11 0 -14 -3 -6 -6z"/>
<path d="M2850 1545 c-19 -23 -8 -116 19 -153 26 -37 37 -40 46 -13 3 10 15
21 27 25 12 3 19 8 16 12 -4 3 -20 2 -37 -4 -26 -9 -30 -8 -36 11 -16 50 -19
64 -19 100 0 43 0 42 -16 22z"/>
<path d="M820 1530 c0 -5 5 -10 11 -10 5 0 7 5 4 10 -3 6 -8 10 -11 10 -2 0
-4 -4 -4 -10z"/>
<path d="M663 1505 c-25 -17 -31 -50 -10 -58 7 -3 5 -6 -5 -6 -10 -1 -18 -6
-18 -12 0 -6 9 -9 20 -6 13 3 20 0 20 -9 0 -20 51 -43 76 -34 28 11 37 50 21
97 -11 33 -16 38 -47 41 -20 1 -45 -4 -57 -13z m94 -81 c-3 -3 -12 -4 -19 -1
-8 3 -5 6 6 6 11 1 17 -2 13 -5z"/>
<path d="M250 1504 c-8 -1 -68 -6 -132 -9 l-118 -7 0 -50 0 -51 62 7 c35 3
103 9 151 12 48 4 90 11 93 16 3 5 3 27 -1 48 -7 40 -13 44 -55 34z"/>
<path d="M1075 1479 c-8 -23 -1 -34 14 -24 13 8 15 45 2 45 -5 0 -13 -9 -16
-21z"/>
<path d="M890 1365 c0 -11 -5 -15 -14 -12 -11 5 -12 -1 -4 -29 6 -25 6 -39 -2
-49 -7 -8 -7 -15 -1 -19 9 -6 22 26 35 86 3 15 2 30 -4 33 -5 3 -10 -1 -10
-10z"/>
<path d="M2275 1350 c-16 -16 -26 -32 -23 -35 2 -3 19 11 37 30 38 43 26 47
-14 5z"/>
<path d="M1615 1328 c-26 -71 -33 -98 -26 -98 4 0 14 18 21 40 7 22 16 40 20
40 4 0 15 -16 26 -35 10 -19 24 -35 31 -35 8 0 0 20 -19 50 -34 51 -45 59 -53
38z"/>
<path d="M2330 1310 c-9 -6 -10 -10 -3 -10 6 0 15 5 18 10 8 12 4 12 -15 0z"/>
<path d="M2431 1288 c-40 -36 -39 -46 7 -53 20 -4 53 -13 72 -20 49 -20 150
-30 150 -16 0 6 8 11 19 11 10 0 21 9 24 19 4 16 -2 21 -24 26 -31 7 -30 25 2
25 10 0 19 5 19 11 0 6 -14 9 -32 7 -26 -2 -33 -8 -34 -26 -1 -12 6 -27 15
-33 13 -8 13 -9 1 -7 -8 1 -25 -3 -37 -10 -17 -9 -28 -9 -47 0 -35 15 -33 24
9 39 19 7 35 17 35 21 0 12 -38 10 -45 -2 -9 -15 -25 -12 -25 5 0 7 7 18 15
22 9 6 -5 9 -39 9 -45 0 -59 -5 -85 -28z"/>
<path d="M2300 1280 c-8 -5 -12 -12 -9 -15 4 -3 12 1 19 10 14 17 11 19 -10 5z"/>
<path d="M726 1263 l-29 -5 27 -13 c22 -12 31 -12 47 -2 38 24 24 30 -45 20z"/>
<path d="M2062 1208 c-2 -57 -2 -58 26 -57 16 1 20 3 10 6 -26 7 -22 22 5 17
17 -3 16 -2 -5 7 -21 8 -28 18 -31 47 -3 27 -4 21 -5 -20z"/>
<path d="M2808 1213 c7 -3 16 -2 19 1 4 3 -2 6 -13 5 -11 0 -14 -3 -6 -6z"/>
<path d="M740 1174 c0 -17 22 -14 28 4 2 7 -3 12 -12 12 -9 0 -16 -7 -16 -16z"/>
<path d="M948 1153 c12 -2 32 -2 45 0 12 2 2 4 -23 4 -25 0 -35 -2 -22 -4z"/>
<path d="M750 1140 c0 -5 5 -10 10 -10 6 0 10 5 10 10 0 6 -4 10 -10 10 -5 0
-10 -4 -10 -10z"/>
<path d="M1141 1104 c0 -11 3 -14 6 -6 3 7 2 16 -1 19 -3 4 -6 -2 -5 -13z"/>
<path d="M2968 1093 c7 -3 16 -2 19 1 4 3 -2 6 -13 5 -11 0 -14 -3 -6 -6z"/>
<path d="M763 1039 c-1 -16 2 -29 7 -29 12 0 13 47 3 53 -5 3 -9 -8 -10 -24z"/>
<path d="M370 1043 c0 -12 5 -25 10 -28 13 -8 13 15 0 35 -8 12 -10 11 -10 -7z"/>
<path d="M2188 1053 c6 -2 18 -2 25 0 6 3 1 5 -13 5 -14 0 -19 -2 -12 -5z"/>
<path d="M2400 970 c0 -5 11 -12 25 -16 14 -3 25 -10 25 -15 0 -5 5 -9 10 -9
6 0 10 7 10 15 0 11 12 15 47 15 68 0 49 7 -39 14 -49 4 -78 2 -78 -4z"/>
<path d="M2599 978 c-1 -2 -3 -13 -4 -25 -1 -12 -5 -39 -8 -60 -4 -21 -2 -44
2 -52 13 -20 33 21 35 72 1 38 3 41 41 53 l40 12 -52 1 c-29 1 -54 0 -54 -1z"/>
<path d="M528 603 c7 -3 16 -2 19 1 4 3 -2 6 -13 5 -11 0 -14 -3 -6 -6z"/>
<path d="M2611 514 c0 -11 3 -14 6 -6 3 7 2 16 -1 19 -3 4 -6 -2 -5 -13z"/>
<path d="M2640 430 c0 -5 17 -10 38 -10 27 0 33 3 22 10 -20 13 -60 13 -60 0z"/>
<path d="M2650 360 c-11 -7 -1 -10 35 -9 37 0 45 3 30 9 -27 12 -47 12 -65 0z"/>
<path d="M2635 300 c-3 -5 -1 -10 4 -10 6 0 11 5 11 10 0 6 -2 10 -4 10 -3 0
-8 -4 -11 -10z"/>
</g>
</svg>
